<svg width="49" height="49" viewBox="0 0 49 49" fill="none" xmlns="http://www.w3.org/2000/svg">
<circle cx="24.5" cy="24.5" r="24.5" fill="#0863B5"/>
<path d="M21.582 27.9482V26.7197C21.582 25.6572 21.8089 24.7331 22.2627 23.9473C22.7165 23.1615 23.5465 22.3258 24.7529 21.4404C25.915 20.6104 26.6787 19.9352 27.0439 19.415C27.4202 18.8949 27.6084 18.3138 27.6084 17.6719C27.6084 16.9525 27.3428 16.4046 26.8115 16.0283C26.2803 15.652 25.5387 15.4639 24.5869 15.4639C22.9268 15.4639 21.0342 16.0062 18.9092 17.0908L17.0996 13.4551C19.5677 12.0716 22.1852 11.3799 24.9521 11.3799C27.2321 11.3799 29.0417 11.9277 30.3809 13.0234C31.7311 14.1191 32.4062 15.5801 32.4062 17.4062C32.4062 18.6237 32.1296 19.6751 31.5762 20.5605C31.0228 21.446 29.9714 22.4421 28.4219 23.5488C27.3594 24.3346 26.6842 24.9323 26.3965 25.3418C26.1198 25.7513 25.9814 26.2881 25.9814 26.9521V27.9482H21.582ZM21.0508 33.626C21.0508 32.6963 21.2998 31.9935 21.7979 31.5176C22.2959 31.0417 23.0208 30.8037 23.9727 30.8037C24.8913 30.8037 25.5996 31.0472 26.0977 31.5342C26.6068 32.0212 26.8613 32.7184 26.8613 33.626C26.8613 34.5003 26.6068 35.1921 26.0977 35.7012C25.5885 36.1992 24.8802 36.4482 23.9727 36.4482C23.043 36.4482 22.3236 36.2048 21.8145 35.7178C21.3053 35.2197 21.0508 34.5225 21.0508 33.626Z" fill="white"/>
</svg>
