<svg width="32" height="32" viewBox="0 0 32 32" fill="none" xmlns="http://www.w3.org/2000/svg">
<path d="M28 13.3333C28 22.6667 16 30.6667 16 30.6667C16 30.6667 4 22.6667 4 13.3333C4 10.1507 5.26428 7.0985 7.51472 4.84806C9.76515 2.59763 12.8174 1.33334 16 1.33334C19.1826 1.33334 22.2348 2.59763 24.4853 4.84806C26.7357 7.0985 28 10.1507 28 13.3333Z" fill="#0863B5" stroke="#0863B5" stroke-width="2" stroke-linecap="round" stroke-linejoin="round"/>
<path fill-rule="evenodd" clip-rule="evenodd" d="M17 10.6383C17 10.2858 17.2755 10 17.6154 10H24.3846C24.7245 10 25 10.2858 25 10.6383V17.6596C25 18.0958 24.7469 18.4707 24.3846 18.6349V20H23.359V18.7234H18.8462V20H17.8205V18.6508C17.3425 18.4755 17 18.0026 17 17.4468V10.6383ZM24.1795 17.6596C24.1795 17.8946 23.9958 18.0851 23.7692 18.0851C23.5427 18.0851 23.359 17.8946 23.359 17.6596C23.359 17.4246 23.5427 17.234 23.7692 17.234C23.9958 17.234 24.1795 17.4246 24.1795 17.6596ZM24.5897 11.7021H17.6154L18.0256 16.5957H24.1795L24.5897 11.7021ZM18.8462 17.6596C18.8462 17.8946 18.6625 18.0851 18.4359 18.0851C18.2093 18.0851 18.0256 17.8946 18.0256 17.6596C18.0256 17.4246 18.2093 17.234 18.4359 17.234C18.6625 17.234 18.8462 17.4246 18.8462 17.6596ZM24.5897 10.6383H17.6154V11.2766H24.5897V10.6383Z" fill="#F7F7F7"/>
<path fill-rule="evenodd" clip-rule="evenodd" d="M10.9281 6L7.91131 7.77249L9.76575 8.86207H7.82759C7.37052 8.86207 7 9.18728 7 9.58846V18.5472C7 18.9484 7.37052 19.2736 7.82759 19.2736L8.65517 19.2736V20H9.48276V19.2736H12.7931V20H13.6207V19.2736L14.1724 19.2736C14.6295 19.2736 15 18.9484 15 18.5472V9.58846C15 9.18728 14.6295 8.86207 14.1724 8.86207H12.0292L13.786 7.77249L10.9281 6ZM10.9154 8.66342L9.39903 7.77249L10.9154 6.88156L12.3519 7.77249L10.9154 8.66342ZM7.55172 11.0412L8.37931 16.6102H13.609L14.3103 11.0412H7.55172ZM7.55172 9.58846H14.4483V10.3148H7.55172V9.58846ZM8.93103 18.3051C9.23574 18.3051 9.48276 18.0883 9.48276 17.8208C9.48276 17.5534 9.23574 17.3366 8.93103 17.3366C8.62633 17.3366 8.37931 17.5534 8.37931 17.8208C8.37931 18.0883 8.62633 18.3051 8.93103 18.3051ZM13.6207 17.8208C13.6207 18.0883 13.3737 18.3051 13.069 18.3051C12.7643 18.3051 12.5172 18.0883 12.5172 17.8208C12.5172 17.5534 12.7643 17.3366 13.069 17.3366C13.3737 17.3366 13.6207 17.5534 13.6207 17.8208Z" fill="white"/>
</svg>
