<svg width="32" height="32" viewBox="0 0 32 32" fill="none" xmlns="http://www.w3.org/2000/svg">
<path d="M28 13.3333C28 22.6667 16 30.6667 16 30.6667C16 30.6667 4 22.6667 4 13.3333C4 10.1507 5.26428 7.0985 7.51472 4.84806C9.76515 2.59763 12.8174 1.33334 16 1.33334C19.1826 1.33334 22.2348 2.59763 24.4853 4.84806C26.7357 7.0985 28 10.1507 28 13.3333Z" fill="#E3001F" stroke="#E3001F" stroke-width="2" stroke-linecap="round" stroke-linejoin="round"/>
<path fill-rule="evenodd" clip-rule="evenodd" d="M15.9101 3L12.1391 5.53213L14.4572 7.08867H12.0345C11.4632 7.08867 11 7.55326 11 8.12637V20.9246C11 21.4977 11.4632 21.9623 12.0345 21.9623L13.069 21.9623V23H14.1034V21.9623H18.2414V23H19.2759V21.9623L19.9655 21.9623C20.5368 21.9623 21 21.4977 21 20.9246V8.12637C21 7.55326 20.5368 7.08867 19.9655 7.08867H17.2865L19.4825 5.53213L15.9101 3ZM15.8942 6.80488L13.9988 5.53213L15.8942 4.25938L17.6899 5.53213L15.8942 6.80488ZM11.6897 10.2018L12.7241 18.1574H19.2612L20.1379 10.2018H11.6897ZM11.6897 8.12637H20.3103V9.16406H11.6897V8.12637ZM13.4138 20.5787C13.7947 20.5787 14.1034 20.269 14.1034 19.8869C14.1034 19.5048 13.7947 19.1951 13.4138 19.1951C13.0329 19.1951 12.7241 19.5048 12.7241 19.8869C12.7241 20.269 13.0329 20.5787 13.4138 20.5787ZM19.2759 19.8869C19.2759 20.269 18.9671 20.5787 18.5862 20.5787C18.2053 20.5787 17.8966 20.269 17.8966 19.8869C17.8966 19.5048 18.2053 19.1951 18.5862 19.1951C18.9671 19.1951 19.2759 19.5048 19.2759 19.8869Z" fill="white"/>
</svg>
