<svg width="32" height="32" viewBox="0 0 32 32" fill="none" xmlns="http://www.w3.org/2000/svg">
<path d="M28 13.3333C28 22.6667 16 30.6667 16 30.6667C16 30.6667 4 22.6667 4 13.3333C4 10.1507 5.26428 7.0985 7.51472 4.84806C9.76515 2.59763 12.8174 1.33334 16 1.33334C19.1826 1.33334 22.2348 2.59763 24.4853 4.84806C26.7357 7.0985 28 10.1507 28 13.3333Z" fill="#60dd6c" stroke="#60dd6c" stroke-width="2" stroke-linecap="round" stroke-linejoin="round"/>
<path fill-rule="evenodd" clip-rule="evenodd" d="M24.8964 22.4792C27.4223 20.1076 29 16.7381 29 13C29 5.8203 23.1797 0 16 0C8.8203 0 3 5.8203 3 13C3 16.7381 4.57771 20.1076 7.10356 22.4792H24.8964Z" fill="#60dd6c"/>
<path fill-rule="evenodd" clip-rule="evenodd" d="M9.01967 7.29921C9.03976 6.57591 9.6319 6 10.3555 6H21.8394C22.563 6 23.1551 6.57591 23.1752 7.29921L23.5072 19.2516C23.5281 20.0038 22.924 20.625 22.1714 20.625H10.0235C9.2709 20.625 8.66676 20.0038 8.68766 19.2516L9.01967 7.29921ZM10.0032 10.3262C10.0032 10.031 10.2425 9.79168 10.5377 9.79168H21.927C22.2222 9.79168 22.4615 10.031 22.4615 10.3262V15.4863C22.4615 15.7815 22.2222 16.0208 21.927 16.0208H10.5377C10.2425 16.0208 10.0032 15.7815 10.0032 15.4863V10.3262ZM10.2705 7.08334C10.1229 7.08334 10.0032 7.203 10.0032 7.3506V8.44108C10.0032 8.58868 10.1228 8.70834 10.2705 8.70834H22.1943C22.3419 8.70834 22.4615 8.58868 22.4615 8.44108V7.3506C22.4615 7.203 22.3419 7.08334 22.1943 7.08334H10.2705ZM15.1491 17.6458H17.3158V19H15.1491V17.6458ZM11.6284 21.7083H20.295V23.0625L19.4826 23.0625V22.25H12.4409V23.0625H11.6284V21.7083Z" fill="white"/>
</svg>
