<svg width="32" height="32" viewBox="0 0 32 32" fill="none" xmlns="http://www.w3.org/2000/svg">
<path d="M28 13.3333C28 22.6667 16 30.6667 16 30.6667C16 30.6667 4 22.6667 4 13.3333C4 10.1507 5.26428 7.0985 7.51472 4.84806C9.76515 2.59763 12.8174 1.33334 16 1.33334C19.1826 1.33334 22.2348 2.59763 24.4853 4.84806C26.7357 7.0985 28 10.1507 28 13.3333Z" fill="#60dd6c" stroke="#60dd6c" stroke-width="2" stroke-linecap="round" stroke-linejoin="round"/>
<path fill-rule="evenodd" clip-rule="evenodd" d="M9 7.08511C9 6.48582 9.48215 6 10.0769 6H21.9231C22.5178 6 23 6.48582 23 7.08511V19.0213C23 19.7629 22.557 20.4002 21.9231 20.6793V23H20.1282V20.8298H12.2308V23H10.4359V20.7063C9.59935 20.4084 9 19.6045 9 18.6596V7.08511ZM21.5641 19.0213C21.5641 19.4208 21.2427 19.7447 20.8462 19.7447C20.4496 19.7447 20.1282 19.4208 20.1282 19.0213C20.1282 18.6218 20.4496 18.2979 20.8462 18.2979C21.2427 18.2979 21.5641 18.6218 21.5641 19.0213ZM22.2821 8.89362H10.0769L10.7949 17.2128H21.5641L22.2821 8.89362ZM12.2308 19.0213C12.2308 19.4208 11.9093 19.7447 11.5128 19.7447C11.1163 19.7447 10.7949 19.4208 10.7949 19.0213C10.7949 18.6218 11.1163 18.2979 11.5128 18.2979C11.9093 18.2979 12.2308 18.6218 12.2308 19.0213ZM22.2821 7.08511H10.0769V8.17021H22.2821V7.08511Z" fill="#F7F7F7"/>
</svg>
