<svg width="32" height="32" viewBox="0 0 32 32" fill="none" xmlns="http://www.w3.org/2000/svg">
<path d="M28 13.3333C28 22.6667 16 30.6667 16 30.6667C16 30.6667 4 22.6667 4 13.3333C4 10.1507 5.26428 7.0985 7.51472 4.84806C9.76516 2.59763 12.8174 1.33334 16 1.33334C19.1826 1.33334 22.2348 2.59763 24.4853 4.84806C26.7357 7.0985 28 10.1507 28 13.3333Z" fill="#F39100" stroke="#F39100" stroke-width="2" stroke-linecap="round" stroke-linejoin="round"/>
<path fill-rule="evenodd" clip-rule="evenodd" d="M20.2885 6H11.9938V6.65057H13.389L13.9525 7.62647H9.7981L8.41564 9.09025H23.8666L22.5655 7.62647H18.3552L18.9187 6.65057H20.2885V6ZM18.042 6.65057H14.2657L14.8292 7.62647H17.4785L18.042 6.65057ZM5 9.57813H27.282L25.6816 11.9834C26.1179 12.1134 26.5267 12.341 26.9043 12.6371L25.7077 14.1633C25.3475 13.8809 25.0681 13.8007 24.8539 13.8007C24.6396 13.8007 24.3602 13.8809 24 14.1633C23.3921 14.6399 22.7034 14.9391 21.9495 14.9391C21.1957 14.9391 20.507 14.6399 19.8991 14.1633C19.5388 13.8809 19.2595 13.8007 19.0452 13.8007C18.831 13.8007 18.5516 13.8809 18.1914 14.1633C17.5835 14.6399 16.8948 14.9391 16.1409 14.9391C15.387 14.9391 14.6983 14.6399 14.0905 14.1633C13.7302 13.8809 13.4508 13.8007 13.2366 13.8007C13.0223 13.8007 12.743 13.8809 12.3827 14.1633C11.7748 14.6399 11.0861 14.9391 10.3323 14.9391C9.57838 14.9391 8.88966 14.6399 8.28181 14.1633C7.92156 13.8809 7.64217 13.8007 7.42793 13.8007C7.2137 13.8007 6.93431 13.8809 6.57406 14.1633L5.37748 12.6371C5.78357 12.3187 6.22574 12.0795 6.69931 11.9557L6.55646 11.6925L5 9.57813ZM7.42793 16.2403C7.2137 16.2403 6.93431 16.3205 6.57406 16.603L5.37748 15.0767C5.98534 14.6002 6.67406 14.3009 7.42793 14.3009C8.18181 14.3009 8.87053 14.6002 9.47839 15.0767C9.83863 15.3592 10.118 15.4394 10.3323 15.4394C10.5465 15.4394 10.8259 15.3592 11.1861 15.0767C11.794 14.6002 12.4827 14.3009 13.2366 14.3009C13.9905 14.3009 14.6792 14.6002 15.287 15.0767C15.6473 15.3592 15.9267 15.4394 16.1409 15.4394C16.3551 15.4394 16.6345 15.3592 16.9948 15.0767C17.6026 14.6002 18.2913 14.3009 19.0452 14.3009C19.7991 14.3009 20.4878 14.6002 21.0957 15.0767C21.4559 15.3592 21.7353 15.4394 21.9495 15.4394C22.1638 15.4394 22.4432 15.3592 22.8034 15.0767C23.4113 14.6002 24.1 14.3009 24.8539 14.3009C25.6077 14.3009 26.2965 14.6002 26.9043 15.0767L25.7077 16.603C25.3475 16.3205 25.0681 16.2403 24.8539 16.2403C24.6396 16.2403 24.3602 16.3205 24 16.603C23.3921 17.0795 22.7034 17.3788 21.9495 17.3788C21.1957 17.3788 20.507 17.0795 19.8991 16.603C19.5388 16.3205 19.2595 16.2403 19.0452 16.2403C18.831 16.2403 18.5516 16.3205 18.1914 16.603C17.5835 17.0795 16.8948 17.3788 16.1409 17.3788C15.387 17.3788 14.6983 17.0795 14.0905 16.603C13.7302 16.3205 13.4508 16.2403 13.2366 16.2403C13.0223 16.2403 12.743 16.3205 12.3827 16.603C11.7748 17.0795 11.0861 17.3788 10.3323 17.3788C9.57838 17.3788 8.88966 17.0795 8.28181 16.603C7.92156 16.3205 7.64217 16.2403 7.42793 16.2403Z" fill="white"/>
</svg>
