<svg width="62" height="25" viewBox="0 0 62 25" fill="none" xmlns="http://www.w3.org/2000/svg">
<rect x="1" y="1" width="60" height="22.8" stroke="black" stroke-width="2"/>
<rect x="2" y="17.8" width="5" height="5" fill="#C4C4C4"/>
<rect x="12" y="17.8" width="6" height="5" fill="#C4C4C4"/>
<rect x="23" y="17.8" width="5" height="5" fill="#C4C4C4"/>
<rect x="34" y="17.8" width="5" height="5" fill="#C4C4C4"/>
<rect x="2" y="16.8" width="58" height="1" fill="#C4C4C4"/>
<rect x="44" y="17.8" width="5" height="5" fill="#C4C4C4"/>
<rect x="55" y="17.8" width="5" height="5" fill="#C4C4C4"/>
<path d="M30.2929 22.85C30.6834 23.2405 31.3166 23.2405 31.7071 22.85L38.0711 16.486C38.4616 16.0955 38.4616 15.4623 38.0711 15.0718C37.6805 14.6813 37.0474 14.6813 36.6569 15.0718L31 20.7286L25.3431 15.0718C24.9526 14.6813 24.3195 14.6813 23.9289 15.0718C23.5384 15.4623 23.5384 16.0955 23.9289 16.486L30.2929 22.85ZM31.7071 1.95003C31.3166 1.55951 30.6834 1.55951 30.2929 1.95003L23.9289 8.31399C23.5384 8.70452 23.5384 9.33768 23.9289 9.72821C24.3195 10.1187 24.9526 10.1187 25.3431 9.72821L31 4.07135L36.6569 9.72821C37.0474 10.1187 37.6805 10.1187 38.0711 9.72821C38.4616 9.33768 38.4616 8.70452 38.0711 8.31399L31.7071 1.95003ZM32 22.1429L32 2.65714H30L30 22.1429H32Z" fill="black"/>
</svg>
