<svg width="58" height="30" viewBox="0 0 58 30" fill="none" xmlns="http://www.w3.org/2000/svg">
<path d="M23 24H0.999999V28H23V24Z" stroke="black" stroke-width="2"/>
<path d="M16.9701 21.7772C16.8362 22.313 16.2933 22.6388 15.7575 22.5048C15.2217 22.3709 14.8959 21.828 15.0299 21.2922L16.9701 21.7772ZM31.4721 18.1757C31.5001 18.7273 31.0757 19.1972 30.5242 19.2252L21.5358 19.6822C20.9842 19.7103 20.5143 19.2859 20.4863 18.7343C20.4582 18.1827 20.8826 17.7128 21.4342 17.6848L29.4239 17.2786L29.0177 9.28889C28.9896 8.73732 29.414 8.26745 29.9656 8.2394C30.5172 8.21136 30.9871 8.63576 31.0151 9.18734L31.4721 18.1757ZM15.0299 21.2922C15.2844 20.2741 15.5007 19.2818 15.7137 18.3256C15.9249 17.3776 16.1339 16.4604 16.3686 15.6288C16.8184 14.0353 17.4321 12.4644 18.6281 11.6201C19.9518 10.6858 21.6106 10.8564 23.534 11.7973C25.4613 12.7401 27.9241 14.5764 31.1437 17.4844L29.8031 18.9686C26.613 16.0872 24.3203 14.4085 22.6551 13.5938C20.986 12.7773 20.2153 12.9479 19.7815 13.2541C19.2201 13.6504 18.7482 14.5607 18.2934 16.172C18.0759 16.9429 17.8778 17.809 17.6658 18.7606C17.4556 19.704 17.2325 20.7277 16.9701 21.7772L15.0299 21.2922Z" fill="black"/>
<path fill-rule="evenodd" clip-rule="evenodd" d="M33 1.91489C33 0.857327 33.8573 0 34.9149 0H55.9787C57.0363 0 57.8936 0.857327 57.8936 1.91489V22.9787C57.8936 24.2874 57.1059 25.4122 55.9787 25.9047V30H52.7872V26.1702H38.7447V30H35.5532V25.9523C34.0657 25.4265 33 24.0079 33 22.3404V1.91489ZM55.3404 22.9787C55.3404 23.6838 54.7689 24.2553 54.0638 24.2553C53.3588 24.2553 52.7872 23.6838 52.7872 22.9787C52.7872 22.2737 53.3588 21.7021 54.0638 21.7021C54.7689 21.7021 55.3404 22.2737 55.3404 22.9787ZM56.617 5.10638H34.9149L36.1915 19.7872H55.3404L56.617 5.10638ZM38.7447 22.9787C38.7447 23.6838 38.1731 24.2553 37.4681 24.2553C36.763 24.2553 36.1915 23.6838 36.1915 22.9787C36.1915 22.2737 36.763 21.7021 37.4681 21.7021C38.1731 21.7021 38.7447 22.2737 38.7447 22.9787ZM56.617 1.91489H34.9149V3.82979H56.617V1.91489Z" fill="#0863B5"/>
</svg>
