<svg width="52" height="19" viewBox="0 0 52 19" fill="none" xmlns="http://www.w3.org/2000/svg">
<rect x="0.5" y="0.5" width="51" height="18" stroke="black"/>
<rect x="1" y="13" width="5" height="5" fill="#C4C4C4"/>
<rect x="41" y="13" width="5" height="5" fill="#C4C4C4"/>
<rect x="31" y="13" width="5" height="5" fill="#C4C4C4"/>
<rect x="21" y="13" width="5" height="5" fill="#C4C4C4"/>
<rect x="11" y="13" width="5" height="5" fill="#C4C4C4"/>
<path d="M1 13.5L51 13.5" stroke="#C4C4C4"/>
<path d="M25.6464 17.3536C25.8417 17.5488 26.1583 17.5488 26.3536 17.3536L29.5355 14.1716C29.7308 13.9763 29.7308 13.6597 29.5355 13.4645C29.3403 13.2692 29.0237 13.2692 28.8284 13.4645L26 16.2929L23.1716 13.4645C22.9763 13.2692 22.6597 13.2692 22.4645 13.4645C22.2692 13.6597 22.2692 13.9763 22.4645 14.1716L25.6464 17.3536ZM25.5 2V17H26.5V2H25.5Z" fill="black"/>
<path d="M26.3536 1.64645C26.1583 1.45118 25.8417 1.45118 25.6464 1.64645L22.4645 4.82843C22.2692 5.02369 22.2692 5.34027 22.4645 5.53553C22.6597 5.7308 22.9763 5.7308 23.1716 5.53553L26 2.70711L28.8284 5.53553C29.0237 5.73079 29.3403 5.73079 29.5355 5.53553C29.7308 5.34027 29.7308 5.02369 29.5355 4.82843L26.3536 1.64645ZM26.5 17L26.5 2L25.5 2L25.5 17L26.5 17Z" fill="black"/>
</svg>
