<svg width="50" height="25" viewBox="0 0 50 25" fill="none" xmlns="http://www.w3.org/2000/svg">
<path fill-rule="evenodd" clip-rule="evenodd" d="M44.0338 0L48.6046 3.03856L45.7948 4.90641H48.7314C49.424 4.90641 49.9854 5.46392 49.9854 6.15164V21.5095C49.9854 22.1973 49.424 22.7548 48.7314 22.7548L47.4775 22.7548V24H46.2236V22.7548H41.2079V24H39.954V22.7548L39.1181 22.7548C38.4255 22.7548 37.8641 22.1973 37.8641 21.5095V6.15164C37.8641 5.46392 38.4255 4.90641 39.1181 4.90641H42.3654L39.7035 3.03856L44.0338 0ZM44.053 4.56586L46.3505 3.03856L44.053 1.51125L41.8764 3.03856L44.053 4.56586ZM49.1494 8.64211L47.8955 18.1889H39.9718L38.9091 8.64211H49.1494ZM49.1494 6.15164H38.7001V7.39688H49.1494V6.15164ZM47.0595 21.0945C46.5979 21.0945 46.2236 20.7228 46.2236 20.2643C46.2236 19.8058 46.5979 19.4341 47.0595 19.4341C47.5212 19.4341 47.8955 19.8058 47.8955 20.2643C47.8955 20.7228 47.5212 21.0945 47.0595 21.0945ZM39.954 20.2643C39.954 20.7228 40.3283 21.0945 40.7899 21.0945C41.2516 21.0945 41.6259 20.7228 41.6259 20.2643C41.6259 19.8058 41.2516 19.4341 40.7899 19.4341C40.3283 19.4341 39.954 19.8058 39.954 20.2643Z" fill="#2B2B2B"/>
<path d="M30.448 17.7196H0.999992V23.7345H30.448V17.7196Z" stroke="#2B2B2B"/>
<path d="M35.7845 17.1972C36.063 17.2243 36.3066 17.026 36.3286 16.7545L36.6878 12.3293C36.7099 12.0578 36.502 11.8158 36.2235 11.7887C35.945 11.7617 35.7014 11.9599 35.6794 12.2315L35.36 16.165L31.3261 15.7736C31.0476 15.7466 30.804 15.9448 30.7819 16.2163C30.7599 16.4879 30.9678 16.7299 31.2463 16.757L35.7845 17.1972ZM34.615 16.0586L35.4396 17.0186L36.2092 16.3925L35.3845 15.4324L34.615 16.0586Z" fill="#2B2B2B"/>
<path d="M26 18C27.7368 14.7388 31.9684 9.76107 35 15.9403" stroke="black"/>
</svg>
