<svg width="77" height="31" viewBox="0 0 77 31" fill="none" xmlns="http://www.w3.org/2000/svg">
<path fill-rule="evenodd" clip-rule="evenodd" d="M71.476 30.2604C74.8762 27.068 77 22.532 77 17.5C77 7.83502 69.165 0 59.5 0C49.835 0 42 7.83502 42 17.5C42 22.532 44.1238 27.068 47.524 30.2604H71.476Z" fill="#009EE3"/>
<path fill-rule="evenodd" clip-rule="evenodd" d="M50.1034 9.04063C50.1305 8.06696 50.9276 7.29169 51.9016 7.29169H67.3607C68.3348 7.29169 69.1319 8.06696 69.1589 9.04062L69.6058 25.1303C69.634 26.143 68.8207 26.9792 67.8076 26.9792H51.4547C50.4416 26.9792 49.6283 26.143 49.6565 25.1304L50.1034 9.04063ZM51.4274 13.1154C51.4274 12.718 51.7496 12.3959 52.147 12.3959H67.4787C67.8761 12.3959 68.1983 12.718 68.1983 13.1154V20.0617C68.1983 20.4591 67.8761 20.7813 67.4787 20.7813H52.147C51.7496 20.7813 51.4274 20.4591 51.4274 20.0617V13.1154ZM51.7872 8.75004C51.5885 8.75004 51.4274 8.91111 51.4274 9.10981V10.5778C51.4274 10.7765 51.5885 10.9375 51.7872 10.9375H67.8385C68.0372 10.9375 68.1983 10.7765 68.1983 10.5778V9.10981C68.1983 8.91111 68.0372 8.75004 67.8385 8.75004H51.7872ZM58.3547 22.9688H61.2713V24.7917H58.3547V22.9688ZM53.6151 28.4375H65.2818V30.2604H64.1882V29.1667H54.709V30.2604H53.6151V28.4375ZM54.709 30.2604V30.2605H64.1882V30.2604H54.709Z" fill="white"/>
<path d="M40 24.5521H1V28.5521H40V24.5521Z" stroke="black" stroke-width="2"/>
<line x1="33.7575" y1="23.0299" x2="49.7575" y2="19.0299" stroke="#0863B5" stroke-width="2"/>
</svg>
