<svg width="77" height="31" viewBox="0 0 77 31" fill="none" xmlns="http://www.w3.org/2000/svg">
<path fill-rule="evenodd" clip-rule="evenodd" d="M71.476 30.7083C74.8762 27.5159 77 22.9799 77 17.9479C77 8.28292 69.165 0.447906 59.5 0.447906C49.835 0.447906 42 8.28292 42 17.9479C42 22.9799 44.1238 27.5159 47.524 30.7083H71.476Z" fill="#009EE3"/>
<path fill-rule="evenodd" clip-rule="evenodd" d="M50.1034 9.48853C50.1305 8.51486 50.9276 7.73959 51.9016 7.73959H67.3607C68.3348 7.73959 69.1319 8.51486 69.1589 9.48853L69.6058 25.5783C69.634 26.5909 68.8207 27.4271 67.8076 27.4271H51.4547C50.4416 27.4271 49.6283 26.5909 49.6565 25.5783L50.1034 9.48853ZM51.4274 13.5633C51.4274 13.1659 51.7496 12.8438 52.147 12.8438H67.4787C67.8761 12.8438 68.1983 13.1659 68.1983 13.5633V20.5096C68.1983 20.907 67.8761 21.2292 67.4787 21.2292H52.147C51.7496 21.2292 51.4274 20.907 51.4274 20.5096V13.5633ZM51.7872 9.19794C51.5885 9.19794 51.4274 9.35902 51.4274 9.55772V11.0257C51.4274 11.2244 51.5885 11.3854 51.7872 11.3854H67.8385C68.0372 11.3854 68.1983 11.2244 68.1983 11.0257V9.55772C68.1983 9.35902 68.0372 9.19794 67.8385 9.19794H51.7872ZM58.3547 23.4167H61.2713V25.2396H58.3547V23.4167ZM53.6151 28.8854H65.2818V30.7084H64.1882V29.6146H54.709V30.7084H53.6151V28.8854ZM54.709 30.7084V30.7084H64.1882V30.7084H54.709Z" fill="white"/>
<path d="M40 25H1V29H40V25Z" stroke="black" stroke-width="2"/>
<path d="M33.9701 22.7772C33.8362 23.313 33.2933 23.6388 32.7575 23.5048C32.2217 23.3709 31.8959 22.828 32.0299 22.2922L33.9701 22.7772ZM48.4721 19.1757C48.5001 19.7273 48.0757 20.1972 47.5242 20.2252L38.5358 20.6822C37.9842 20.7103 37.5143 20.2859 37.4863 19.7343C37.4582 19.1827 37.8826 18.7128 38.4342 18.6848L46.4239 18.2786L46.0177 10.2889C45.9896 9.73732 46.414 9.26745 46.9656 9.2394C47.5172 9.21136 47.9871 9.63576 48.0151 10.1873L48.4721 19.1757ZM32.0299 22.2922C32.2844 21.2741 32.5007 20.2818 32.7137 19.3256C32.9249 18.3776 33.1339 17.4604 33.3686 16.6288C33.8184 15.0353 34.4321 13.4644 35.6281 12.6201C36.9518 11.6858 38.6106 11.8564 40.534 12.7973C42.4613 13.7401 44.9241 15.5764 48.1437 18.4844L46.8031 19.9686C43.613 17.0872 41.3203 15.4085 39.6551 14.5938C37.986 13.7773 37.2153 13.9479 36.7815 14.2541C36.2201 14.6504 35.7482 15.5607 35.2934 17.172C35.0759 17.9429 34.8778 18.809 34.6658 19.7606C34.4556 20.704 34.2325 21.7277 33.9701 22.7772L32.0299 22.2922Z" fill="black"/>
</svg>
