<svg width="30" height="26" viewBox="0 0 30 26" fill="none" xmlns="http://www.w3.org/2000/svg">
<line y1="-0.5" x2="17.8493" y2="-0.5" transform="matrix(-0.948683 0.316228 0.452821 0.891601 17.9333 20.3555)" stroke="#2B2B2B"/>
<path d="M22.9941 1.20739L19.314 3.81578L21.5275 5.38467L22.8084 6.29259H21.2383H17.836C17.5745 6.29259 17.341 6.41686 17.1919 6.61046H17.398H28.3463H28.5525C28.4034 6.41686 28.1699 6.29259 27.9084 6.29259H24.8315H23.19L24.5528 5.37749L26.8786 3.81578L22.9941 1.20739ZM17.398 8.92834H17.0222V23.3642C17.0222 23.8174 17.388 24.1821 17.836 24.1821L18.7118 24.1821L19.2118 24.1821V24.6821V25.5H19.5256V24.6821V24.1821H20.0256H25.2808H25.7808V24.6821V25.5H26.0946V24.6821V24.1821L26.5946 24.1821L27.9084 24.1821C28.3564 24.1821 28.7222 23.8174 28.7222 23.3642V10.7333L27.5283 19.9144L27.4717 20.3499H27.0325H18.7305H18.2825L18.2335 19.9047L17.12 9.80098L17.0589 9.24621H17.617H28.3463H28.7222V8.92834H28.3463H17.398ZM25.6924 3.40068L26.3106 3.81578L25.6924 4.23088L23.2852 5.84728L22.9988 6.0396L22.7174 5.8401L20.4369 4.2237L19.8614 3.81578L20.4369 3.40786L22.7174 1.79146L22.9988 1.59196L23.2852 1.78428L25.6924 3.40068ZM26.1567 23.4249C25.3953 23.4249 24.7808 22.8063 24.7808 22.0464C24.7808 21.2865 25.3953 20.6678 26.1567 20.6678C26.918 20.6678 27.5325 21.2865 27.5325 22.0464C27.5325 22.8063 26.918 23.4249 26.1567 23.4249ZM19.5877 23.4249C18.8264 23.4249 18.2118 22.8063 18.2118 22.0464C18.2118 21.2865 18.8264 20.6678 19.5877 20.6678C20.349 20.6678 20.9635 21.2865 20.9635 22.0464C20.9635 22.8063 20.349 23.4249 19.5877 23.4249Z" fill="#2B2B2B" stroke="#2B2B2B"/>
</svg>
