<svg width="54" height="28" viewBox="0 0 54 28" fill="none" xmlns="http://www.w3.org/2000/svg">
<rect x="1" y="1" width="52" height="26" stroke="black" stroke-width="2"/>
<rect x="6" y="20" width="6" height="6" fill="#C4C4C4"/>
<rect x="18" y="20" width="6" height="6" fill="#C4C4C4"/>
<rect x="30" y="20" width="6" height="6" fill="#C4C4C4"/>
<rect x="2" y="19" width="50" height="1" fill="#C4C4C4"/>
<rect x="42" y="20" width="6" height="6" fill="#C4C4C4"/>
<path d="M26.2929 25.7071C26.6834 26.0976 27.3166 26.0976 27.7071 25.7071L34.0711 19.3431C34.4616 18.9526 34.4616 18.3195 34.0711 17.9289C33.6805 17.5384 33.0474 17.5384 32.6569 17.9289L27 23.5858L21.3431 17.9289C20.9526 17.5384 20.3195 17.5384 19.9289 17.9289C19.5384 18.3195 19.5384 18.9526 19.9289 19.3431L26.2929 25.7071ZM27.7071 2.29289C27.3166 1.90237 26.6834 1.90237 26.2929 2.29289L19.9289 8.65685C19.5384 9.04738 19.5384 9.68054 19.9289 10.0711C20.3195 10.4616 20.9526 10.4616 21.3431 10.0711L27 4.41421L32.6569 10.0711C33.0474 10.4616 33.6805 10.4616 34.0711 10.0711C34.4616 9.68054 34.4616 9.04738 34.0711 8.65685L27.7071 2.29289ZM28 25L28 3H26L26 25H28Z" fill="black"/>
</svg>
