<svg width="37" height="23" viewBox="0 0 37 23" fill="none" xmlns="http://www.w3.org/2000/svg">
<path d="M36 15H14V19H36V15Z" stroke="black" stroke-width="2"/>
<path d="M2 21.9788C2 22.5311 1.55228 22.9788 1 22.9788C0.447716 22.9788 0 22.5311 0 21.9788H2ZM19.4664 12.2357C19.3246 12.7694 18.7768 13.0871 18.2431 12.9452L9.54516 10.6331C9.01141 10.4912 8.69374 9.94353 8.83562 9.40978C8.9775 8.87603 9.52521 8.55836 10.059 8.70024L17.7905 10.7554L19.8457 3.02395C19.9875 2.4902 20.5353 2.17253 21.069 2.31441C21.6028 2.45629 21.9204 3.004 21.7785 3.53775L19.4664 12.2357ZM0 21.9788C0 19.1902 0.189728 15.5772 0.706244 12.1126C1.218 8.67989 2.0679 5.2649 3.45612 2.96248C4.15395 1.8051 5.04626 0.830337 6.19678 0.337074C7.38871 -0.173944 8.70392 -0.103189 10.0748 0.543021C11.4143 1.17441 12.8291 2.36095 14.3442 4.12883C15.8668 5.90526 17.534 8.32007 19.365 11.4771L17.635 12.4805C15.841 9.38752 14.2426 7.08358 12.8257 5.43034C11.4014 3.76854 10.2029 2.81446 9.22206 2.35211C8.27264 1.90457 7.56051 1.92846 6.98486 2.17526C6.3678 2.43981 5.7523 3.02755 5.16888 3.99517C3.9946 5.94275 3.18825 9.02776 2.68438 12.4075C2.18527 15.7554 2 19.2674 2 21.9788H0Z" fill="black"/>
</svg>
