<svg width="68" height="38" viewBox="0 0 68 38" fill="none" xmlns="http://www.w3.org/2000/svg">
<path fill-rule="evenodd" clip-rule="evenodd" d="M59.1619 0L65.9496 4.81105L61.7771 7.76848H66.1379C67.1663 7.76848 68 8.6512 68 9.7401V34.0568C68 35.1457 67.1663 36.0284 66.1379 36.0284L64.2759 36.0284V38H62.4138V36.0284H54.9655V38H53.1034V36.0284L51.8621 36.0284C50.8337 36.0284 50 35.1457 50 34.0568V9.7401C50 8.6512 50.8337 7.76848 51.8621 7.76848H56.6843L52.7315 4.81105L59.1619 0ZM59.1904 7.22928L62.6022 4.81105L59.1904 2.39281L55.9582 4.81105L59.1904 7.22928ZM66.7586 13.6833L64.8966 28.7991H53.1299L51.5517 13.6833H66.7586ZM66.7586 9.7401H51.2414V11.7117H66.7586V9.7401ZM63.6552 33.3996C62.9696 33.3996 62.4138 32.8111 62.4138 32.0851C62.4138 31.3592 62.9696 30.7707 63.6552 30.7707C64.3408 30.7707 64.8966 31.3592 64.8966 32.0851C64.8966 32.8111 64.3408 33.3996 63.6552 33.3996ZM53.1034 32.0851C53.1034 32.8111 53.6592 33.3996 54.3448 33.3996C55.0304 33.3996 55.5862 32.8111 55.5862 32.0851C55.5862 31.3592 55.0304 30.7707 54.3448 30.7707C53.6592 30.7707 53.1034 31.3592 53.1034 32.0851Z" fill="#0863B5"/>
<path d="M40 32H1V36H40V32Z" stroke="black" stroke-width="2"/>
<line x1="33.7575" y1="30.0299" x2="49.7575" y2="26.0299" stroke="#0863B5" stroke-width="2"/>
</svg>
