<svg width="75" height="30" viewBox="0 0 75 30" fill="none" xmlns="http://www.w3.org/2000/svg">
<path d="M40 24H1V28H40V24Z" stroke="black" stroke-width="2"/>
<line x1="33.7575" y1="22.0299" x2="49.7575" y2="18.0299" stroke="#0863B5" stroke-width="2"/>
<path fill-rule="evenodd" clip-rule="evenodd" d="M49.9999 1.91489C49.9999 0.857327 50.8572 0 51.9148 0H72.9786C74.0362 0 74.8935 0.857327 74.8935 1.91489V22.9787C74.8935 24.2874 74.1058 25.4122 72.9786 25.9047V30H69.7871V26.1702H55.7446V30H52.5531V25.9523C51.0656 25.4265 49.9999 24.0079 49.9999 22.3404V1.91489ZM72.3403 22.9787C72.3403 23.6838 71.7688 24.2553 71.0637 24.2553C70.3587 24.2553 69.7871 23.6838 69.7871 22.9787C69.7871 22.2737 70.3587 21.7021 71.0637 21.7021C71.7688 21.7021 72.3403 22.2737 72.3403 22.9787ZM73.6169 5.10638H51.9148L53.1914 19.7872H72.3403L73.6169 5.10638ZM55.7446 22.9787C55.7446 23.6838 55.173 24.2553 54.468 24.2553C53.7629 24.2553 53.1914 23.6838 53.1914 22.9787C53.1914 22.2737 53.7629 21.7021 54.468 21.7021C55.173 21.7021 55.7446 22.2737 55.7446 22.9787ZM73.6169 1.91489H51.9148V3.82979H73.6169V1.91489Z" fill="#0863B5"/>
</svg>
