<svg width="68" height="38" viewBox="0 0 68 38" fill="none" xmlns="http://www.w3.org/2000/svg">
<path fill-rule="evenodd" clip-rule="evenodd" d="M59.1619 0L65.9496 4.81105L61.7771 7.76848H66.1379C67.1663 7.76848 68 8.6512 68 9.7401V34.0568C68 35.1457 67.1663 36.0284 66.1379 36.0284L64.2759 36.0284V38H62.4138V36.0284H54.9655V38H53.1034V36.0284L51.8621 36.0284C50.8337 36.0284 50 35.1457 50 34.0568V9.7401C50 8.6512 50.8337 7.76848 51.8621 7.76848H56.6843L52.7315 4.81105L59.1619 0ZM59.1904 7.22928L62.6022 4.81105L59.1904 2.39281L55.9582 4.81105L59.1904 7.22928ZM66.7586 13.6833L64.8966 28.7991H53.1299L51.5517 13.6833H66.7586ZM66.7586 9.7401H51.2414V11.7117H66.7586V9.7401ZM63.6552 33.3996C62.9696 33.3996 62.4138 32.8111 62.4138 32.0851C62.4138 31.3592 62.9696 30.7707 63.6552 30.7707C64.3408 30.7707 64.8966 31.3592 64.8966 32.0851C64.8966 32.8111 64.3408 33.3996 63.6552 33.3996ZM53.1034 32.0851C53.1034 32.8111 53.6592 33.3996 54.3448 33.3996C55.0304 33.3996 55.5862 32.8111 55.5862 32.0851C55.5862 31.3592 55.0304 30.7707 54.3448 30.7707C53.6592 30.7707 53.1034 31.3592 53.1034 32.0851Z" fill="#0863B5"/>
<path d="M40 32H1V36H40V32Z" stroke="black" stroke-width="2"/>
<path d="M33.9701 29.7772C33.8362 30.313 33.2933 30.6388 32.7575 30.5048C32.2217 30.3709 31.8959 29.828 32.0299 29.2922L33.9701 29.7772ZM48.4721 26.1757C48.5001 26.7273 48.0757 27.1972 47.5242 27.2252L38.5358 27.6822C37.9842 27.7103 37.5143 27.2859 37.4863 26.7343C37.4582 26.1827 37.8826 25.7128 38.4342 25.6848L46.4239 25.2786L46.0177 17.2889C45.9896 16.7373 46.414 16.2674 46.9656 16.2394C47.5172 16.2114 47.9871 16.6358 48.0151 17.1873L48.4721 26.1757ZM32.0299 29.2922C32.2844 28.2741 32.5007 27.2818 32.7137 26.3256C32.9249 25.3776 33.1339 24.4604 33.3686 23.6288C33.8184 22.0353 34.4321 20.4644 35.6281 19.6201C36.9518 18.6858 38.6106 18.8564 40.534 19.7973C42.4613 20.7401 44.9241 22.5764 48.1437 25.4844L46.8031 26.9686C43.613 24.0872 41.3203 22.4085 39.6551 21.5938C37.986 20.7773 37.2153 20.9479 36.7815 21.2541C36.2201 21.6504 35.7482 22.5607 35.2934 24.172C35.0759 24.9429 34.8778 25.809 34.6658 26.7606C34.4556 27.704 34.2325 28.7277 33.9701 29.7772L32.0299 29.2922Z" fill="black"/>
</svg>
