<svg width="75" height="30" viewBox="0 0 75 30" fill="none" xmlns="http://www.w3.org/2000/svg">
<path d="M40 24H1V28H40V24Z" stroke="black" stroke-width="2"/>
<path d="M33.9701 21.7772C33.8362 22.313 33.2933 22.6388 32.7575 22.5048C32.2217 22.3709 31.8959 21.828 32.0299 21.2922L33.9701 21.7772ZM48.4721 18.1757C48.5001 18.7273 48.0757 19.1972 47.5242 19.2252L38.5358 19.6822C37.9842 19.7103 37.5143 19.2859 37.4863 18.7343C37.4582 18.1827 37.8826 17.7128 38.4342 17.6848L46.4239 17.2786L46.0177 9.28889C45.9896 8.73732 46.414 8.26745 46.9656 8.2394C47.5172 8.21136 47.9871 8.63576 48.0151 9.18734L48.4721 18.1757ZM32.0299 21.2922C32.2844 20.2741 32.5007 19.2818 32.7137 18.3256C32.9249 17.3776 33.1339 16.4604 33.3686 15.6288C33.8184 14.0353 34.4321 12.4644 35.6281 11.6201C36.9518 10.6858 38.6106 10.8564 40.534 11.7973C42.4613 12.7401 44.9241 14.5764 48.1437 17.4844L46.8031 18.9686C43.613 16.0872 41.3203 14.4085 39.6551 13.5938C37.986 12.7773 37.2153 12.9479 36.7815 13.2541C36.2201 13.6504 35.7482 14.5607 35.2934 16.172C35.0759 16.9429 34.8778 17.809 34.6658 18.7606C34.4556 19.704 34.2325 20.7277 33.9701 21.7772L32.0299 21.2922Z" fill="black"/>
<path fill-rule="evenodd" clip-rule="evenodd" d="M49.9999 1.91489C49.9999 0.857327 50.8572 0 51.9148 0H72.9786C74.0362 0 74.8935 0.857327 74.8935 1.91489V22.9787C74.8935 24.2874 74.1058 25.4122 72.9786 25.9047V30H69.7871V26.1702H55.7446V30H52.5531V25.9523C51.0656 25.4265 49.9999 24.0079 49.9999 22.3404V1.91489ZM72.3403 22.9787C72.3403 23.6838 71.7688 24.2553 71.0637 24.2553C70.3587 24.2553 69.7871 23.6838 69.7871 22.9787C69.7871 22.2737 70.3587 21.7021 71.0637 21.7021C71.7688 21.7021 72.3403 22.2737 72.3403 22.9787ZM73.6169 5.10638H51.9148L53.1914 19.7872H72.3403L73.6169 5.10638ZM55.7446 22.9787C55.7446 23.6838 55.173 24.2553 54.468 24.2553C53.7629 24.2553 53.1914 23.6838 53.1914 22.9787C53.1914 22.2737 53.7629 21.7021 54.468 21.7021C55.173 21.7021 55.7446 22.2737 55.7446 22.9787ZM73.6169 1.91489H51.9148V3.82979H73.6169V1.91489Z" fill="#0863B5"/>
</svg>
