<svg width="58" height="30" viewBox="0 0 58 30" fill="none" xmlns="http://www.w3.org/2000/svg">
<path d="M23 24H0.999999V28H23V24Z" stroke="black" stroke-width="2"/>
<line x1="16.7575" y1="22.0299" x2="32.7575" y2="18.0299" stroke="#0863B5" stroke-width="2"/>
<path fill-rule="evenodd" clip-rule="evenodd" d="M32.9999 1.91489C32.9999 0.857327 33.8572 0 34.9148 0H55.9786C57.0362 0 57.8935 0.857327 57.8935 1.91489V22.9787C57.8935 24.2874 57.1058 25.4122 55.9786 25.9047V30H52.7871V26.1702H38.7446V30H35.5531V25.9523C34.0656 25.4265 32.9999 24.0079 32.9999 22.3404V1.91489ZM55.3403 22.9787C55.3403 23.6838 54.7688 24.2553 54.0637 24.2553C53.3587 24.2553 52.7871 23.6838 52.7871 22.9787C52.7871 22.2737 53.3587 21.7021 54.0637 21.7021C54.7688 21.7021 55.3403 22.2737 55.3403 22.9787ZM56.6169 5.10638H34.9148L36.1914 19.7872H55.3403L56.6169 5.10638ZM38.7446 22.9787C38.7446 23.6838 38.173 24.2553 37.468 24.2553C36.7629 24.2553 36.1914 23.6838 36.1914 22.9787C36.1914 22.2737 36.7629 21.7021 37.468 21.7021C38.173 21.7021 38.7446 22.2737 38.7446 22.9787ZM56.6169 1.91489H34.9148V3.82979H56.6169V1.91489Z" fill="#0863B5"/>
</svg>
