<svg width="51" height="38" viewBox="0 0 51 38" fill="none" xmlns="http://www.w3.org/2000/svg">
<path fill-rule="evenodd" clip-rule="evenodd" d="M42.1619 0L48.9496 4.81105L44.7771 7.76848H49.1379C50.1663 7.76848 51 8.6512 51 9.7401V34.0568C51 35.1457 50.1663 36.0284 49.1379 36.0284L47.2759 36.0284V38H45.4138V36.0284H37.9655V38H36.1034V36.0284L34.8621 36.0284C33.8337 36.0284 33 35.1457 33 34.0568V9.7401C33 8.6512 33.8337 7.76848 34.8621 7.76848H39.6843L35.7315 4.81105L42.1619 0ZM42.1904 7.22928L45.6022 4.81105L42.1904 2.39281L38.9582 4.81105L42.1904 7.22928ZM49.7586 13.6833L47.8966 28.7991H36.1299L34.5517 13.6833H49.7586ZM49.7586 9.7401H34.2414V11.7117H49.7586V9.7401ZM46.6552 33.3996C45.9696 33.3996 45.4138 32.8111 45.4138 32.0851C45.4138 31.3592 45.9696 30.7707 46.6552 30.7707C47.3408 30.7707 47.8966 31.3592 47.8966 32.0851C47.8966 32.8111 47.3408 33.3996 46.6552 33.3996ZM36.1034 32.0851C36.1034 32.8111 36.6592 33.3996 37.3448 33.3996C38.0304 33.3996 38.5862 32.8111 38.5862 32.0851C38.5862 31.3592 38.0304 30.7707 37.3448 30.7707C36.6592 30.7707 36.1034 31.3592 36.1034 32.0851Z" fill="#0863B5"/>
<path d="M23 32H0.999999V36H23V32Z" stroke="black" stroke-width="2"/>
<path d="M16.9701 29.7772C16.8362 30.313 16.2933 30.6388 15.7575 30.5048C15.2217 30.3709 14.8959 29.828 15.0299 29.2922L16.9701 29.7772ZM31.4721 26.1757C31.5001 26.7273 31.0757 27.1972 30.5242 27.2252L21.5358 27.6822C20.9842 27.7103 20.5143 27.2859 20.4863 26.7343C20.4582 26.1827 20.8826 25.7128 21.4342 25.6848L29.4239 25.2786L29.0177 17.2889C28.9896 16.7373 29.414 16.2674 29.9656 16.2394C30.5172 16.2114 30.9871 16.6358 31.0151 17.1873L31.4721 26.1757ZM15.0299 29.2922C15.2844 28.2741 15.5007 27.2818 15.7137 26.3256C15.9249 25.3776 16.1339 24.4604 16.3686 23.6288C16.8184 22.0353 17.4321 20.4644 18.6281 19.6201C19.9518 18.6858 21.6106 18.8564 23.534 19.7973C25.4613 20.7401 27.9241 22.5764 31.1437 25.4844L29.8031 26.9686C26.613 24.0872 24.3203 22.4085 22.6551 21.5938C20.986 20.7773 20.2153 20.9479 19.7815 21.2541C19.2201 21.6504 18.7482 22.5607 18.2934 24.172C18.0759 24.9429 17.8778 25.809 17.6658 26.7606C17.4556 27.704 17.2325 28.7277 16.9701 29.7772L15.0299 29.2922Z" fill="black"/>
</svg>
