<svg width="61" height="27" viewBox="0 0 61 27" fill="none" xmlns="http://www.w3.org/2000/svg">
<path fill-rule="evenodd" clip-rule="evenodd" d="M60.1159 20.7754H0.884058V25.1957H60.1159V20.7754ZM0 19.8914V26.0798H61V19.8914H0Z" fill="black"/>
<path d="M4.42041 0H34.9204V2.65217H4.42041V0Z" fill="#2B2B2B"/>
<path fill-rule="evenodd" clip-rule="evenodd" d="M34.0364 0.884058H5.30447V1.76812H34.0364V0.884058ZM4.42041 0V2.65217H34.9204V0H4.42041Z" fill="#2B2B2B"/>
<path d="M6.18823 2.65222H34.0361V19.8914H6.18823V2.65222Z" fill="#D3EEFA"/>
<path fill-rule="evenodd" clip-rule="evenodd" d="M33.152 3.53628H7.07229V19.0073H33.152V3.53628ZM6.18823 2.65222V19.8914H34.0361V2.65222H6.18823Z" fill="black"/>
<path fill-rule="evenodd" clip-rule="evenodd" d="M15.0289 19.8914L15.0289 2.65222H15.4709L15.4709 19.8914H15.0289Z" fill="black"/>
<path fill-rule="evenodd" clip-rule="evenodd" d="M24.3116 19.8914L24.3116 2.65222L24.7537 2.65222L24.7537 19.8914L24.3116 19.8914Z" fill="black"/>
<path fill-rule="evenodd" clip-rule="evenodd" d="M10.6087 15.9131V19.8914H9.72461V15.9131H10.6087Z" fill="black"/>
<path fill-rule="evenodd" clip-rule="evenodd" d="M20.7754 15.9131V19.8914H19.8914V15.9131H20.7754Z" fill="black"/>
<path fill-rule="evenodd" clip-rule="evenodd" d="M22.1013 16.355H8.39844V15.4709H22.1013V16.355Z" fill="black"/>
<path d="M8.39844 14.1449C8.39844 13.9008 8.59634 13.7029 8.84047 13.7029H21.6593C21.9034 13.7029 22.1013 13.9008 22.1013 14.1449V14.5869C22.1013 14.8311 21.9034 15.029 21.6593 15.029H8.84047C8.59634 15.029 8.39844 14.8311 8.39844 14.5869V14.1449Z" fill="#2B2B2B"/>
<path d="M8.39844 12.3767C8.39844 12.1326 8.59634 11.9347 8.84047 11.9347H21.6593C21.9034 11.9347 22.1013 12.1326 22.1013 12.3767V12.8188C22.1013 13.0629 21.9034 13.2608 21.6593 13.2608H8.84047C8.59634 13.2608 8.39844 13.0629 8.39844 12.8188V12.3767Z" fill="#2B2B2B"/>
<path fill-rule="evenodd" clip-rule="evenodd" d="M20.3334 12.8189V15.9131H19.8914V12.8189H20.3334Z" fill="black"/>
<path fill-rule="evenodd" clip-rule="evenodd" d="M10.6088 12.8189V15.9131H10.1667V12.8189H10.6088Z" fill="black"/>
</svg>
