<svg width="54" height="22" viewBox="0 0 54 22" fill="none" xmlns="http://www.w3.org/2000/svg">
<path d="M53 15.4975H14V19.4975H53V15.4975Z" stroke="black" stroke-width="2"/>
<path d="M2 20.4974C2 21.0497 1.55228 21.4974 1 21.4974C0.447716 21.4974 0 21.0497 0 20.4974H2ZM19.4664 12.7331C19.3246 13.2669 18.7768 13.5846 18.2431 13.4427L9.54516 11.1306C9.01141 10.9887 8.69374 10.441 8.83562 9.90724C8.9775 9.3735 9.52521 9.05583 10.059 9.19771L17.7905 11.2529L19.8457 3.52141C19.9875 2.98766 20.5353 2.66999 21.069 2.81187C21.6028 2.95375 21.9204 3.50146 21.7785 4.03521L19.4664 12.7331ZM0 20.4974C0 17.7088 0.189705 14.2162 0.707516 10.9321C1.21929 7.68625 2.07281 4.49492 3.48649 2.42321C4.20274 1.37356 5.12463 0.520423 6.30564 0.16903C7.50956 -0.189179 8.80155 0.0270019 10.1313 0.760106C12.712 2.18295 15.7336 5.7134 19.365 11.9745L17.635 12.978C14.0164 6.73912 11.2255 3.64723 9.16562 2.51155C8.17501 1.96539 7.43966 1.91827 6.876 2.08598C6.28943 2.2605 5.70351 2.72251 5.13851 3.5505C3.98969 5.23408 3.18696 8.04802 2.68311 11.2436C2.1853 14.4009 2 17.7859 2 20.4974H0Z" fill="black"/>
</svg>
