<svg width="60" height="31" viewBox="0 0 60 31" fill="none" xmlns="http://www.w3.org/2000/svg">
<path fill-rule="evenodd" clip-rule="evenodd" d="M54.476 30.2604C57.8762 27.068 60 22.532 60 17.5C60 7.83502 52.165 0 42.5 0C32.835 0 25 7.83502 25 17.5C25 22.532 27.1238 27.068 30.524 30.2604H54.476Z" fill="#009EE3"/>
<path fill-rule="evenodd" clip-rule="evenodd" d="M33.1034 9.04063C33.1305 8.06696 33.9276 7.29169 34.9016 7.29169H50.3607C51.3348 7.29169 52.1319 8.06696 52.1589 9.04062L52.6058 25.1303C52.634 26.143 51.8207 26.9792 50.8076 26.9792H34.4547C33.4416 26.9792 32.6283 26.143 32.6565 25.1304L33.1034 9.04063ZM34.4274 13.1154C34.4274 12.718 34.7496 12.3959 35.147 12.3959H50.4787C50.8761 12.3959 51.1983 12.718 51.1983 13.1154V20.0617C51.1983 20.4591 50.8761 20.7813 50.4787 20.7813H35.147C34.7496 20.7813 34.4274 20.4591 34.4274 20.0617V13.1154ZM34.7872 8.75004C34.5885 8.75004 34.4274 8.91111 34.4274 9.10981V10.5778C34.4274 10.7765 34.5885 10.9375 34.7872 10.9375H50.8385C51.0372 10.9375 51.1983 10.7765 51.1983 10.5778V9.10981C51.1983 8.91111 51.0372 8.75004 50.8385 8.75004H34.7872ZM41.3547 22.9688H44.2713V24.7917H41.3547V22.9688ZM36.6151 28.4375H48.2818V30.2604H47.1882V29.1667H37.709V30.2604H36.6151V28.4375ZM37.709 30.2604V30.2605H47.1882V30.2604H37.709Z" fill="white"/>
<path d="M23 24.5521H0.999999V28.5521H23V24.5521Z" stroke="black" stroke-width="2"/>
<path d="M16.9701 22.3293C16.8362 22.8651 16.2933 23.1909 15.7575 23.0569C15.2217 22.923 14.8959 22.3801 15.0299 21.8443L16.9701 22.3293ZM31.4721 18.7278C31.5001 19.2794 31.0757 19.7493 30.5242 19.7773L21.5358 20.2343C20.9842 20.2624 20.5143 19.8379 20.4863 19.2864C20.4582 18.7348 20.8826 18.2649 21.4342 18.2369L29.4239 17.8307L29.0177 9.84099C28.9896 9.28941 29.414 8.81954 29.9656 8.7915C30.5172 8.76345 30.9871 9.18786 31.0151 9.73943L31.4721 18.7278ZM15.0299 21.8443C15.2844 20.8262 15.5007 19.8339 15.7137 18.8777C15.9249 17.9297 16.1339 17.0125 16.3686 16.1809C16.8184 14.5874 17.4321 13.0165 18.6281 12.1722C19.9518 11.2379 21.6106 11.4085 23.534 12.3494C25.4613 13.2922 27.9241 15.1285 31.1437 18.0365L29.8031 19.5207C26.613 16.6393 24.3203 14.9606 22.6551 14.1459C20.986 13.3294 20.2153 13.5 19.7815 13.8062C19.2201 14.2025 18.7482 15.1128 18.2934 16.7241C18.0759 17.4949 17.8778 18.3611 17.6658 19.3127C17.4556 20.2561 17.2325 21.2798 16.9701 22.3293L15.0299 21.8443Z" fill="black"/>
</svg>
