<svg width="51" height="38" viewBox="0 0 51 38" fill="none" xmlns="http://www.w3.org/2000/svg">
<path fill-rule="evenodd" clip-rule="evenodd" d="M42.1619 0L48.9496 4.81105L44.7771 7.76848H49.1379C50.1663 7.76848 51 8.6512 51 9.7401V34.0568C51 35.1457 50.1663 36.0284 49.1379 36.0284L47.2759 36.0284V38H45.4138V36.0284H37.9655V38H36.1034V36.0284L34.8621 36.0284C33.8337 36.0284 33 35.1457 33 34.0568V9.7401C33 8.6512 33.8337 7.76848 34.8621 7.76848H39.6843L35.7315 4.81105L42.1619 0ZM42.1904 7.22928L45.6022 4.81105L42.1904 2.39281L38.9582 4.81105L42.1904 7.22928ZM49.7586 13.6833L47.8966 28.7991H36.1299L34.5517 13.6833H49.7586ZM49.7586 9.7401H34.2414V11.7117H49.7586V9.7401ZM46.6552 33.3996C45.9696 33.3996 45.4138 32.8111 45.4138 32.0851C45.4138 31.3592 45.9696 30.7707 46.6552 30.7707C47.3408 30.7707 47.8966 31.3592 47.8966 32.0851C47.8966 32.8111 47.3408 33.3996 46.6552 33.3996ZM36.1034 32.0851C36.1034 32.8111 36.6592 33.3996 37.3448 33.3996C38.0304 33.3996 38.5862 32.8111 38.5862 32.0851C38.5862 31.3592 38.0304 30.7707 37.3448 30.7707C36.6592 30.7707 36.1034 31.3592 36.1034 32.0851Z" fill="#0863B5"/>
<path d="M23 32H0.999999V36H23V32Z" stroke="black" stroke-width="2"/>
<line x1="16.7575" y1="30.0299" x2="32.7575" y2="26.0299" stroke="#0863B5" stroke-width="2"/>
</svg>
