<svg width="54" height="32" viewBox="0 0 54 32" fill="none" xmlns="http://www.w3.org/2000/svg">
<rect x="1" y="1" width="52" height="26" stroke="black" stroke-width="2"/>
<rect x="6" y="20" width="6" height="6" fill="#C4C4C4"/>
<rect x="18" y="20" width="6" height="6" fill="#C4C4C4"/>
<rect x="30" y="20" width="6" height="6" fill="#C4C4C4"/>
<rect x="2" y="19" width="50" height="1" fill="#C4C4C4"/>
<rect x="42" y="20" width="6" height="6" fill="#C4C4C4"/>
<rect x="18" y="15" width="18" height="17" fill="#0863B5"/>
<path d="M29.7499 19.6325C30.5323 19.6325 31.1666 18.9982 31.1666 18.2158C31.1666 17.4334 30.5323 16.7992 29.7499 16.7992C28.9675 16.7992 28.3333 17.4334 28.3333 18.2158C28.3333 18.9982 28.9675 19.6325 29.7499 19.6325Z" fill="white"/>
<path d="M27.6251 27.0417H26.2084C26.2084 28.2104 25.2522 29.1667 24.0834 29.1667C22.9147 29.1667 21.9584 28.2104 21.9584 27.0417C21.9584 25.8729 22.9147 24.9167 24.0834 24.9167V23.5C22.1284 23.5 20.5417 25.0867 20.5417 27.0417C20.5417 28.9967 22.1284 30.5833 24.0834 30.5833C26.0384 30.5833 27.6251 28.9967 27.6251 27.0417ZM29.7501 24.5625H28.4326L29.6155 21.9629C30.0476 21.0208 29.3534 19.9583 28.3051 19.9583H24.6217C24.048 19.9583 23.5309 20.2913 23.2972 20.8083L22.8226 22.0833L24.1826 22.4588L24.643 21.375H26.2084L24.9122 24.2792C24.4872 25.2213 25.1884 26.3333 26.2226 26.3333H29.7501V29.875H31.1667V25.9792C31.1667 25.2 30.5292 24.5625 29.7501 24.5625Z" fill="white"/>
<path d="M26.5926 14.4074C26.8176 14.6324 27.1824 14.6324 27.4074 14.4074L31.0741 10.7407C31.2991 10.5157 31.2991 10.1509 31.0741 9.92591C30.8491 9.7009 30.4843 9.7009 30.2593 9.92591L27 13.1852L23.7407 9.92591C23.5157 9.7009 23.1509 9.7009 22.9259 9.92591C22.7009 10.1509 22.7009 10.5157 22.9259 10.7407L26.5926 14.4074ZM27.4074 2.59259C27.1824 2.36759 26.8176 2.36759 26.5926 2.59259L22.9259 6.25927C22.7009 6.48428 22.7009 6.84908 22.9259 7.07409C23.1509 7.2991 23.5157 7.2991 23.7407 7.07409L27 3.81482L30.2593 7.07409C30.4843 7.2991 30.8491 7.2991 31.0741 7.07409C31.2991 6.84908 31.2991 6.48428 31.0741 6.25927L27.4074 2.59259ZM27.5762 14L27.5762 3H26.4238L26.4238 14H27.5762Z" fill="black"/>
</svg>
