<svg width="212" height="212" viewBox="0 0 212 212" fill="none" xmlns="http://www.w3.org/2000/svg">
<circle cx="106" cy="106" r="106" fill="#0863B5"/>
<path d="M160.205 51.7954H169.239V87.9318H133.102V78.8977H152.935C150.535 74.7571 147.665 71.0164 144.324 67.6757C140.984 64.3349 137.266 61.4883 133.173 59.1356C129.079 56.783 124.75 54.9715 120.186 53.7011C115.622 52.4306 110.894 51.7954 106 51.7954C99.5068 51.7954 93.3194 52.8776 87.4378 55.0421C81.5562 57.2065 76.2628 60.2414 71.5576 64.1467C66.8523 68.0521 62.8529 72.6868 59.5592 78.0508C56.2655 83.4148 54.007 89.2728 52.7836 95.6249L43.8907 93.8604C44.8317 88.9199 46.3139 84.2382 48.3371 79.8152C50.3604 75.3923 52.8542 71.2987 55.8185 67.5345C58.7828 63.7703 62.1 60.3355 65.7701 57.23C69.4402 54.1245 73.4397 51.5366 77.7685 49.4663C82.0974 47.396 86.6144 45.7492 91.3197 44.5258C96.0249 43.3024 100.918 42.7143 106 42.7613C111.552 42.7613 116.963 43.4671 122.233 44.8787C127.503 46.2903 132.467 48.3371 137.125 51.0191C141.784 53.7011 146.089 56.9242 150.041 60.6884C153.994 64.4526 157.381 68.6873 160.205 73.3926V51.7954ZM106 160.205C112.493 160.205 118.681 159.122 124.562 156.958C130.444 154.793 135.737 151.759 140.443 147.853C145.148 143.948 149.147 139.337 152.441 134.02C155.735 128.703 157.993 122.845 159.216 116.446L168.039 118.14C166.627 125.574 164.016 132.396 160.205 138.607C156.393 144.818 151.735 150.206 146.23 154.77C140.725 159.334 134.537 162.887 127.668 165.427C120.798 167.968 113.576 169.239 106 169.239C100.401 169.239 94.9662 168.533 89.6963 167.121C84.4265 165.71 79.4389 163.663 74.7336 160.981C70.0284 158.299 65.7466 155.099 61.8883 151.382C58.03 147.665 54.6657 143.407 51.7955 138.607V160.205H42.7614V124.068H78.8978V133.102H59.0651C61.4648 137.29 64.335 141.054 67.6757 144.395C71.0165 147.736 74.7336 150.559 78.8272 152.864C82.9208 155.17 87.2261 156.981 91.7431 158.299C96.2602 159.616 101.012 160.252 106 160.205Z" fill="white"/>
</svg>
