<svg width="16" height="20" viewBox="0 0 16 20" fill="none" xmlns="http://www.w3.org/2000/svg">
<path fill-rule="evenodd" clip-rule="evenodd" d="M0 1.2766C0 0.571551 0.551034 0 1.23077 0H14.7692C15.449 0 16 0.571551 16 1.2766V15.3191C16 16.1916 15.4937 16.9414 14.7692 17.2698V20H12.7179V17.4468H3.69231V20H1.64103V17.3015C0.68497 16.951 0 16.0053 0 14.8936V1.2766ZM14.359 15.3191C14.359 15.7892 13.9916 16.1702 13.5385 16.1702C13.0853 16.1702 12.7179 15.7892 12.7179 15.3191C12.7179 14.8491 13.0853 14.4681 13.5385 14.4681C13.9916 14.4681 14.359 14.8491 14.359 15.3191ZM15.1795 3.40426H1.23077L2.05128 13.1915H14.359L15.1795 3.40426ZM3.69231 15.3191C3.69231 15.7892 3.32495 16.1702 2.87179 16.1702C2.41864 16.1702 2.05128 15.7892 2.05128 15.3191C2.05128 14.8491 2.41864 14.4681 2.87179 14.4681C3.32495 14.4681 3.69231 14.8491 3.69231 15.3191ZM15.1795 1.2766H1.23077V2.55319H15.1795V1.2766Z" fill="#0863B5"/>
</svg>
