<svg width="76" height="76" viewBox="0 0 76 76" fill="none" xmlns="http://www.w3.org/2000/svg">
<circle cx="38" cy="38" r="38" fill="#0863B5"/>
<path fill-rule="evenodd" clip-rule="evenodd" d="M38.71 8.5954L37.8674 8L37.01 8.57394L29.0087 13.93L27.1466 15.1765L29.0087 16.423L33.6931 19.5588H27C25.3431 19.5588 24 20.902 24 22.5588V58.4337C24 60.0906 25.3431 61.4337 27 61.4337L29.8431 61.4337V64.3552H32.7646V61.4337H44.4508V64.3552H47.3723V61.4337L49.2412 61.4337C50.8981 61.4337 52.2412 60.0906 52.2412 58.4337V22.5588C52.2412 20.902 50.8981 19.5588 49.2412 19.5588H41.8219L46.2901 16.4016L48.0238 15.1765L46.2901 13.9515L38.71 8.5954ZM37.8214 18.7122L32.5396 15.1765L37.8214 11.6409L42.8252 15.1765L37.8214 18.7122ZM25.9476 28.3233L28.8691 50.7215H47.3305L49.8065 28.3233H25.9476ZM25.9476 22.4803H50.2934V25.4018H25.9476V22.4803ZM30.8168 57.5383C31.8925 57.5383 32.7645 56.6663 32.7645 55.5907C32.7645 54.515 31.8925 53.643 30.8168 53.643C29.7411 53.643 28.8691 54.515 28.8691 55.5907C28.8691 56.6663 29.7411 57.5383 30.8168 57.5383ZM47.3719 55.5907C47.3719 56.6663 46.4998 57.5383 45.4242 57.5383C44.3485 57.5383 43.4765 56.6663 43.4765 55.5907C43.4765 54.515 44.3485 53.643 45.4242 53.643C46.4998 53.643 47.3719 54.515 47.3719 55.5907Z" fill="white"/>
</svg>
