<svg width="12" height="25" viewBox="0 0 12 25" fill="none" xmlns="http://www.w3.org/2000/svg">
<path fill-rule="evenodd" clip-rule="evenodd" d="M5.89208 0L1.36696 3.16516L4.14863 5.11084H1.24138C0.555784 5.11084 0 5.69158 0 6.40796V22.4058C0 23.1221 0.555784 23.7029 1.24138 23.7029L2.48276 23.7029V25H3.72414V23.7029H8.68966V25H9.93103V23.7029L10.7586 23.7029C11.4442 23.7029 12 23.1221 12 22.4058V6.40796C12 5.69158 11.4442 5.11084 10.7586 5.11084H7.54377L10.179 3.16516L5.89208 0ZM5.87306 4.7561L3.59855 3.16516L5.87306 1.57422L8.02787 3.16516L5.87306 4.7561ZM0.827586 9.0022L2.06897 18.9468H9.91343L10.9655 9.0022H0.827586ZM0.827586 6.40796H11.1724V7.70508H0.827586V6.40796ZM2.89655 21.9734C3.35362 21.9734 3.72414 21.5862 3.72414 21.1086C3.72414 20.6311 3.35362 20.2439 2.89655 20.2439C2.43949 20.2439 2.06897 20.6311 2.06897 21.1086C2.06897 21.5862 2.43949 21.9734 2.89655 21.9734ZM9.93103 21.1086C9.93103 21.5862 9.56051 21.9734 9.10345 21.9734C8.64639 21.9734 8.27586 21.5862 8.27586 21.1086C8.27586 20.6311 8.64639 20.2439 9.10345 20.2439C9.56051 20.2439 9.93103 20.6311 9.93103 21.1086Z" fill="#0863B5"/>
</svg>
