<svg width="67" height="32" viewBox="0 0 67 32" fill="none" xmlns="http://www.w3.org/2000/svg">
<path fill-rule="evenodd" clip-rule="evenodd" d="M45.5758 0H20.8485V1.93939H25.0082L26.6877 4.84848H14.303L10.1818 9.21212H56.2424L52.3636 4.84848H39.8135L41.493 1.93939H45.5758V0ZM38.8795 1.93939H27.6217L29.3012 4.84848H37.2L38.8795 1.93939ZM0 10.6667H66.4242L60.5256 19.5322C61.7612 19.7879 62.9593 20.3926 64.1134 21.2975L62.9169 22.8237C61.5977 21.7895 60.3593 21.3333 59.1861 21.3333C58.013 21.3333 56.7746 21.7895 55.4554 22.8237C53.8886 24.0521 52.241 24.7273 50.5281 24.7273C48.8153 24.7273 47.1677 24.0521 45.6008 22.8237C44.2817 21.7895 43.0433 21.3333 41.8701 21.3333C40.697 21.3333 39.4586 21.7895 38.1394 22.8237C36.5726 24.0521 34.9249 24.7273 33.2121 24.7273C31.4993 24.7273 29.8516 24.0521 28.2848 22.8237L28.2388 22.7879H28.1212V22.6981C26.8631 21.7525 25.6787 21.3333 24.5541 21.3333C23.3809 21.3333 22.1426 21.7895 20.8234 22.8237C19.2566 24.0521 17.6089 24.7273 15.8961 24.7273C14.1833 24.7273 12.5356 24.0521 10.9688 22.8237C9.64961 21.7895 8.41127 21.3333 7.2381 21.3333C6.06492 21.3333 4.82658 21.7895 3.50738 22.8237L2.3108 21.2975C3.50199 20.3636 4.73992 19.7494 6.01769 19.5087L4.63993 16.9697L0 10.6667ZM7.2381 28.6061C6.06492 28.6061 4.82658 29.0622 3.50738 30.0965L2.3108 28.5702C3.87761 27.3418 5.52527 26.6667 7.2381 26.6667C8.95092 26.6667 10.5986 27.3418 12.1654 28.5702C13.4846 29.6045 14.7229 30.0606 15.8961 30.0606C17.0693 30.0606 18.3076 29.6045 19.6268 28.5702C21.1936 27.3418 22.8413 26.6667 24.5541 26.6667C26.2669 26.6667 27.9146 27.3418 29.4814 28.5702C30.8006 29.6045 32.0389 30.0606 33.2121 30.0606C34.3853 30.0606 35.6236 29.6045 36.9428 28.5702C38.5096 27.3418 40.1573 26.6667 41.8701 26.6667C43.583 26.6667 45.2306 27.3418 46.7974 28.5702C48.1166 29.6045 49.355 30.0606 50.5281 30.0606C51.7013 30.0606 52.9397 29.6045 54.2589 28.5702C55.8257 27.3418 57.4733 26.6667 59.1861 26.6667C60.899 26.6667 62.5466 27.3418 64.1134 28.5702L62.9169 30.0965C61.5977 29.0622 60.3593 28.6061 59.1861 28.6061C58.013 28.6061 56.7746 29.0622 55.4554 30.0965C53.8886 31.3248 52.241 32 50.5281 32C48.8153 32 47.1677 31.3248 45.6008 30.0965C44.2817 29.0622 43.0433 28.6061 41.8701 28.6061C40.697 28.6061 39.4586 29.0622 38.1394 30.0965C36.5726 31.3248 34.9249 32 33.2121 32C31.4993 32 29.8516 31.3248 28.2848 30.0965C26.9656 29.0622 25.7273 28.6061 24.5541 28.6061C23.3809 28.6061 22.1426 29.0622 20.8234 30.0965C19.2566 31.3248 17.6089 32 15.8961 32C14.1833 32 12.5356 31.3248 10.9688 30.0965C9.64961 29.0622 8.41127 28.6061 7.2381 28.6061Z" fill="white"/>
</svg>
