<svg width="76" height="76" viewBox="0 0 76 76" fill="none" xmlns="http://www.w3.org/2000/svg">
<path d="M76 38C76 58.9868 58.9868 76 38 76C17.0132 76 0 58.9868 0 38C0 17.0132 17.0132 0 38 0C58.9868 0 76 17.0132 76 38Z" fill="#009EE3"/>
<path fill-rule="evenodd" clip-rule="evenodd" d="M17.5969 19.5817C17.6549 17.4949 19.3632 15.8334 21.4508 15.8334H55.1179C57.2055 15.8334 58.9138 17.4949 58.9718 19.5817L59.9451 54.6209C60.0054 56.7913 58.2624 58.5834 56.0912 58.5834H20.4775C18.3063 58.5834 16.5633 56.7913 16.6236 54.6209L17.5969 19.5817ZM20.4719 28.4589C20.4719 27.6072 21.1624 26.9168 22.0141 26.9168H55.3464C56.1981 26.9168 56.8886 27.6072 56.8886 28.4589V43.5829C56.8886 44.4346 56.1981 45.1251 55.3464 45.1251H22.0141C21.1624 45.1251 20.4719 44.4346 20.4719 43.5829V28.4589ZM21.243 19.0001C20.8171 19.0001 20.4719 19.3453 20.4719 19.7711V22.979C20.4719 23.4048 20.8171 23.7501 21.243 23.7501H56.1175C56.5433 23.7501 56.8886 23.4048 56.8886 22.979V19.7711C56.8886 19.3453 56.5433 19.0001 56.1175 19.0001H21.243ZM35.5136 49.8751H41.8469V53.8334H35.5136V49.8751ZM25.2219 61.75H50.5552V65.7084L48.1804 65.7084V63.3334H27.5971V65.7084H25.2219V61.75Z" fill="white"/>
</svg>
