<svg width="76" height="76" viewBox="0 0 76 76" fill="none" xmlns="http://www.w3.org/2000/svg">
<circle cx="38" cy="38" r="38" fill="#0863B5"/>
<path fill-rule="evenodd" clip-rule="evenodd" d="M50.5758 21H25.8485V22.9394H30.0082L31.6877 25.8485H19.303L15.1818 30.2121H61.2424L57.3636 25.8485H44.8135L46.493 22.9394H50.5758V21ZM43.8795 22.9394H32.6217L34.3012 25.8485H42.2L43.8795 22.9394ZM5 31.6667H71.4242L65.5256 40.5322C66.7612 40.7879 67.9593 41.3926 69.1134 42.2975L67.9169 43.8237C66.5977 42.7895 65.3593 42.3333 64.1861 42.3333C63.013 42.3333 61.7746 42.7895 60.4554 43.8237C58.8886 45.0521 57.241 45.7273 55.5281 45.7273C53.8153 45.7273 52.1677 45.0521 50.6008 43.8237C49.2817 42.7895 48.0433 42.3333 46.8701 42.3333C45.697 42.3333 44.4586 42.7895 43.1394 43.8237C41.5726 45.0521 39.9249 45.7273 38.2121 45.7273C36.4993 45.7273 34.8516 45.0521 33.2848 43.8237L33.2388 43.7879H33.1212V43.6981C31.8631 42.7525 30.6787 42.3333 29.5541 42.3333C28.3809 42.3333 27.1426 42.7895 25.8234 43.8237C24.2566 45.0521 22.6089 45.7273 20.8961 45.7273C19.1833 45.7273 17.5356 45.0521 15.9688 43.8237C14.6496 42.7895 13.4113 42.3333 12.2381 42.3333C11.0649 42.3333 9.82658 42.7895 8.50738 43.8237L7.3108 42.2975C8.50199 41.3636 9.73992 40.7494 11.0177 40.5087L9.63993 37.9697L5 31.6667ZM12.2381 49.6061C11.0649 49.6061 9.82658 50.0622 8.50738 51.0965L7.3108 49.5702C8.87761 48.3418 10.5253 47.6667 12.2381 47.6667C13.9509 47.6667 15.5986 48.3418 17.1654 49.5702C18.4846 50.6045 19.7229 51.0606 20.8961 51.0606C22.0693 51.0606 23.3076 50.6045 24.6268 49.5702C26.1936 48.3418 27.8413 47.6667 29.5541 47.6667C31.2669 47.6667 32.9146 48.3418 34.4814 49.5702C35.8006 50.6045 37.0389 51.0606 38.2121 51.0606C39.3853 51.0606 40.6236 50.6045 41.9428 49.5702C43.5096 48.3418 45.1573 47.6667 46.8701 47.6667C48.583 47.6667 50.2306 48.3418 51.7974 49.5702C53.1166 50.6045 54.355 51.0606 55.5281 51.0606C56.7013 51.0606 57.9397 50.6045 59.2589 49.5702C60.8257 48.3418 62.4733 47.6667 64.1861 47.6667C65.899 47.6667 67.5466 48.3418 69.1134 49.5702L67.9169 51.0965C66.5977 50.0622 65.3593 49.6061 64.1861 49.6061C63.013 49.6061 61.7746 50.0622 60.4554 51.0965C58.8886 52.3248 57.241 53 55.5281 53C53.8153 53 52.1677 52.3248 50.6008 51.0965C49.2817 50.0622 48.0433 49.6061 46.8701 49.6061C45.697 49.6061 44.4586 50.0622 43.1394 51.0965C41.5726 52.3248 39.9249 53 38.2121 53C36.4993 53 34.8516 52.3248 33.2848 51.0965C31.9656 50.0622 30.7273 49.6061 29.5541 49.6061C28.3809 49.6061 27.1426 50.0622 25.8234 51.0965C24.2566 52.3248 22.6089 53 20.8961 53C19.1833 53 17.5356 52.3248 15.9688 51.0965C14.6496 50.0622 13.4113 49.6061 12.2381 49.6061Z" fill="white"/>
</svg>
