<svg width="39" height="47" viewBox="0 0 39 47" fill="none" xmlns="http://www.w3.org/2000/svg">
<path fill-rule="evenodd" clip-rule="evenodd" d="M0 3C0 1.34315 1.34315 0 3 0H36C37.6569 0 39 1.34315 39 3V36C39 38.0503 37.7659 39.8124 36 40.584V47H31V41H9V47H4V40.6586C1.66962 39.8349 0 37.6124 0 35V3ZM35 36C35 37.1046 34.1046 38 33 38C31.8954 38 31 37.1046 31 36C31 34.8954 31.8954 34 33 34C34.1046 34 35 34.8954 35 36ZM37 8H3L5 31H35L37 8ZM9 36C9 37.1046 8.10457 38 7 38C5.89543 38 5 37.1046 5 36C5 34.8954 5.89543 34 7 34C8.10457 34 9 34.8954 9 36ZM37 3H3V6H37V3Z" fill="white"/>
</svg>
