<svg width="76" height="76" viewBox="0 0 76 76" fill="none" xmlns="http://www.w3.org/2000/svg">
<circle cx="38" cy="38" r="38" fill="#0863B5"/>
<path fill-rule="evenodd" clip-rule="evenodd" d="M18 18C18 16.3431 19.3431 15 21 15H54C55.6569 15 57 16.3431 57 18V51C57 53.0503 55.7659 54.8124 54 55.584V62H49V56H27V62H22V55.6586C19.6696 54.8349 18 52.6124 18 50V18ZM53 51C53 52.1046 52.1046 53 51 53C49.8954 53 49 52.1046 49 51C49 49.8954 49.8954 49 51 49C52.1046 49 53 49.8954 53 51ZM55 23H21L23 46H53L55 23ZM27 51C27 52.1046 26.1046 53 25 53C23.8954 53 23 52.1046 23 51C23 49.8954 23.8954 49 25 49C26.1046 49 27 49.8954 27 51ZM55 18H21V21H55V18Z" fill="white"/>
</svg>
