<svg width="29" height="57" viewBox="0 0 29 57" fill="none" xmlns="http://www.w3.org/2000/svg">
<path fill-rule="evenodd" clip-rule="evenodd" d="M14.71 0.595402L13.8674 0L13.01 0.573944L5.00872 5.93004L3.14664 7.17653L5.00872 8.42303L9.69314 11.5588H3C1.34315 11.5588 0 12.902 0 14.5588V50.4337C0 52.0906 1.34315 53.4337 3 53.4337L5.84314 53.4337V56.3552H8.76465V53.4337H20.4508V56.3552H23.3723V53.4337L25.2412 53.4337C26.8981 53.4337 28.2412 52.0906 28.2412 50.4337V14.5588C28.2412 12.902 26.8981 11.5588 25.2412 11.5588H17.8219L22.2901 8.40157L24.0238 7.17653L22.2901 5.95149L14.71 0.595402ZM13.8214 10.7122L8.53964 7.17653L13.8214 3.64088L18.8252 7.17653L13.8214 10.7122ZM1.94755 20.3233L4.86906 42.7215H23.3305L25.8065 20.3233H1.94755ZM1.94755 14.4803H26.2934V17.4018H1.94755V14.4803ZM6.81679 49.5383C7.89246 49.5383 8.76446 48.6663 8.76446 47.5907C8.76446 46.515 7.89246 45.643 6.81679 45.643C5.74113 45.643 4.86912 46.515 4.86912 47.5907C4.86912 48.6663 5.74113 49.5383 6.81679 49.5383ZM23.3719 47.5907C23.3719 48.6663 22.4998 49.5383 21.4242 49.5383C20.3485 49.5383 19.4765 48.6663 19.4765 47.5907C19.4765 46.515 20.3485 45.643 21.4242 45.643C22.4998 45.643 23.3719 46.515 23.3719 47.5907Z" fill="white"/>
</svg>
