<svg width="44" height="51" viewBox="0 0 44 51" fill="none" xmlns="http://www.w3.org/2000/svg">
<path fill-rule="evenodd" clip-rule="evenodd" d="M1.5969 4.58174C1.65486 2.49495 3.36324 0.833374 5.45083 0.833374H39.1179C41.2055 0.833374 42.9138 2.49495 42.9718 4.58174L43.9451 39.6209C44.0054 41.7913 42.2624 43.5834 40.0912 43.5834H4.47753C2.3063 43.5834 0.5633 41.7913 0.623588 39.6209L1.5969 4.58174ZM4.4719 13.4589C4.4719 12.6072 5.16235 11.9168 6.01407 11.9168H39.3464C40.1981 11.9168 40.8886 12.6072 40.8886 13.4589V28.5829C40.8886 29.4346 40.1981 30.1251 39.3464 30.1251H6.01407C5.16235 30.1251 4.4719 29.4346 4.4719 28.5829V13.4589ZM5.24299 4.00005C4.81713 4.00005 4.4719 4.34528 4.4719 4.77114V7.97897C4.4719 8.40483 4.81713 8.75005 5.24299 8.75005H40.1175C40.5433 8.75005 40.8886 8.40483 40.8886 7.97897V4.77114C40.8886 4.34528 40.5433 4.00005 40.1175 4.00005H5.24299ZM19.5136 34.8751H25.8469V38.8334H19.5136V34.8751ZM9.22186 46.75H34.5552V50.7084L32.1804 50.7084V48.3334H11.5971V50.7084H9.22186V46.75Z" fill="white"/>
</svg>
