<svg width="49" height="25" viewBox="0 0 49 25" fill="none" xmlns="http://www.w3.org/2000/svg">
<rect x="0.5" y="0.5" width="48" height="24" stroke="#2B2B2B"/>
<rect x="0.942383" y="17.1052" width="4.71154" height="6.57895" fill="#C4C4C4"/>
<rect x="38.6345" y="17.1052" width="4.71154" height="6.57895" fill="#C4C4C4"/>
<rect x="29.2114" y="17.1052" width="4.71154" height="6.57895" fill="#C4C4C4"/>
<rect x="19.7886" y="17.1052" width="4.71154" height="6.57895" fill="#C4C4C4"/>
<rect x="10.3655" y="17.1052" width="4.71154" height="6.57895" fill="#C4C4C4"/>
<path d="M0.942383 17.7632L48.0578 17.7632" stroke="#C4C4C4"/>
<path d="M24.1464 22.722C24.3417 22.9172 24.6583 22.9172 24.8536 22.722L28.0355 19.54C28.2308 19.3447 28.2308 19.0282 28.0355 18.8329C27.8403 18.6376 27.5237 18.6376 27.3284 18.8329L24.5 21.6613L21.6716 18.8329C21.4763 18.6376 21.1597 18.6376 20.9645 18.8329C20.7692 19.0282 20.7692 19.3447 20.9645 19.54L24.1464 22.722ZM24 2.63159V22.3684H25V2.63159H24Z" fill="#2B2B2B"/>
<path d="M24.8536 2.27801C24.6583 2.08275 24.3417 2.08275 24.1464 2.27801L20.9645 5.45999C20.7692 5.65525 20.7692 5.97184 20.9645 6.1671C21.1597 6.36236 21.4763 6.36236 21.6716 6.1671L24.5 3.33867L27.3284 6.1671C27.5237 6.36236 27.8403 6.36236 28.0355 6.1671C28.2308 5.97184 28.2308 5.65525 28.0355 5.45999L24.8536 2.27801ZM25 22.3684L25 2.63157L24 2.63157L24 22.3684L25 22.3684Z" fill="#2B2B2B"/>
</svg>
