<svg width="52" height="25" viewBox="0 0 52 25" fill="none" xmlns="http://www.w3.org/2000/svg">
<path d="M3.15674 17.3431C3.15674 17.6193 3.3806 17.8431 3.65674 17.8431H8.15674C8.43288 17.8431 8.65674 17.6193 8.65674 17.3431C8.65674 17.067 8.43288 16.8431 8.15674 16.8431H4.15674V12.8431C4.15674 12.567 3.93288 12.3431 3.65674 12.3431C3.3806 12.3431 3.15674 12.567 3.15674 12.8431L3.15674 17.3431ZM9.30318 10.9896L3.30318 16.9896L4.01029 17.6967L10.0103 11.6967L9.30318 10.9896Z" fill="#2B2B2B"/>
<path d="M15.4204 0L46 0.5L46.5 2.65217H15.4204V0Z" fill="#2B2B2B"/>
<path d="M17.1882 2.65222H45.0361V19.8914H17.1882V2.65222Z" fill="#D3EEFA"/>
<rect x="3.5" y="19.5" width="48" height="5" stroke="#2B2B2B"/>
<path fill-rule="evenodd" clip-rule="evenodd" d="M44 4H18V19.0073H44V4ZM17 3V20H45L45.0361 3H17Z" fill="#2B2B2B"/>
<path fill-rule="evenodd" clip-rule="evenodd" d="M26.0289 19.8914V2.65222H26.4709V19.8914H26.0289Z" fill="#2B2B2B"/>
<path fill-rule="evenodd" clip-rule="evenodd" d="M35.3116 19.8914L35.3116 2.65222L35.7537 2.65222L35.7537 19.8914L35.3116 19.8914Z" fill="#2B2B2B"/>
<path fill-rule="evenodd" clip-rule="evenodd" d="M21.6087 15.9131V19.8914H20.7246V15.9131H21.6087Z" fill="#2B2B2B"/>
<path fill-rule="evenodd" clip-rule="evenodd" d="M31.7754 15.9131V19.8914H30.8914V15.9131H31.7754Z" fill="#2B2B2B"/>
<path fill-rule="evenodd" clip-rule="evenodd" d="M33.1013 16.355H19.3984V15.4709H33.1013V16.355Z" fill="#2B2B2B"/>
<path d="M19.3984 14.1449C19.3984 13.9008 19.5963 13.7029 19.8405 13.7029H32.6593C32.9034 13.7029 33.1013 13.9008 33.1013 14.1449V14.5869C33.1013 14.8311 32.9034 15.029 32.6593 15.029H19.8405C19.5963 15.029 19.3984 14.8311 19.3984 14.5869V14.1449Z" fill="#2B2B2B"/>
<path d="M19.3984 12.3767C19.3984 12.1326 19.5963 11.9347 19.8405 11.9347H32.6593C32.9034 11.9347 33.1013 12.1326 33.1013 12.3767V12.8188C33.1013 13.0629 32.9034 13.2608 32.6593 13.2608H19.8405C19.5963 13.2608 19.3984 13.0629 19.3984 12.8188V12.3767Z" fill="#2B2B2B"/>
<path fill-rule="evenodd" clip-rule="evenodd" d="M31.3334 12.8189V15.9131H30.8914V12.8189H31.3334Z" fill="#2B2B2B"/>
<path fill-rule="evenodd" clip-rule="evenodd" d="M21.6088 12.8189V15.9131H21.1667V12.8189H21.6088Z" fill="#2B2B2B"/>
<path fill-rule="evenodd" clip-rule="evenodd" d="M46.0851 0.884058H16.35V1.76812H46.0851V0.884058ZM15 0V3H47L47 0H15Z" fill="#2B2B2B"/>
</svg>
