<svg width="49" height="25" viewBox="0 0 49 25" fill="none" xmlns="http://www.w3.org/2000/svg">
<path d="M12.4204 0L43 0.5L43.5 2.65217H12.4204V0Z" fill="#2B2B2B"/>
<path d="M14.1882 2.65222H42.0361V19.8914H14.1882V2.65222Z" fill="#D3EEFA"/>
<path d="M1.42539 24.5L7.67539 19.5H48.5V24.5H1.42539Z" stroke="#2B2B2B"/>
<path fill-rule="evenodd" clip-rule="evenodd" d="M41 4H15V19.0073H41V4ZM14 3V20H42L42.0361 3H14Z" fill="#2B2B2B"/>
<path fill-rule="evenodd" clip-rule="evenodd" d="M23.0289 19.8914V2.65222H23.4709V19.8914H23.0289Z" fill="#2B2B2B"/>
<path fill-rule="evenodd" clip-rule="evenodd" d="M32.3116 19.8914L32.3116 2.65222L32.7537 2.65222L32.7537 19.8914L32.3116 19.8914Z" fill="#2B2B2B"/>
<path fill-rule="evenodd" clip-rule="evenodd" d="M18.6087 15.9131V19.8914H17.7246V15.9131H18.6087Z" fill="#2B2B2B"/>
<path fill-rule="evenodd" clip-rule="evenodd" d="M28.7754 15.9131V19.8914H27.8914V15.9131H28.7754Z" fill="#2B2B2B"/>
<path fill-rule="evenodd" clip-rule="evenodd" d="M30.1013 16.355H16.3984V15.4709H30.1013V16.355Z" fill="#2B2B2B"/>
<path d="M16.3984 14.1449C16.3984 13.9008 16.5963 13.7029 16.8405 13.7029H29.6593C29.9034 13.7029 30.1013 13.9008 30.1013 14.1449V14.5869C30.1013 14.8311 29.9034 15.029 29.6593 15.029H16.8405C16.5963 15.029 16.3984 14.8311 16.3984 14.5869V14.1449Z" fill="#2B2B2B"/>
<path d="M16.3984 12.3767C16.3984 12.1326 16.5963 11.9347 16.8405 11.9347H29.6593C29.9034 11.9347 30.1013 12.1326 30.1013 12.3767V12.8188C30.1013 13.0629 29.9034 13.2608 29.6593 13.2608H16.8405C16.5963 13.2608 16.3984 13.0629 16.3984 12.8188V12.3767Z" fill="#2B2B2B"/>
<path fill-rule="evenodd" clip-rule="evenodd" d="M28.3334 12.8189V15.9131H27.8914V12.8189H28.3334Z" fill="#2B2B2B"/>
<path fill-rule="evenodd" clip-rule="evenodd" d="M18.6088 12.8189V15.9131H18.1667V12.8189H18.6088Z" fill="#2B2B2B"/>
<path fill-rule="evenodd" clip-rule="evenodd" d="M43.0851 0.884058H13.35V1.76812H43.0851V0.884058ZM12 0V3H44L44 0H12Z" fill="#2B2B2B"/>
</svg>
