<svg width="214" height="37" viewBox="0 0 214 37" fill="none" xmlns="http://www.w3.org/2000/svg">
<path d="M17.5901 36.48C12.3421 36.48 8.21409 34.928 5.20609 31.824C2.19809 28.72 0.694092 24.272 0.694092 18.48C0.694092 12.784 2.15009 8.36798 5.06209 5.23198C7.97409 2.06398 12.0381 0.47998 17.2541 0.47998C19.7501 0.47998 21.9261 0.65598 23.7821 1.00798C24.5501 1.13598 25.1741 1.51998 25.6541 2.15998C26.1341 2.79998 26.3741 3.51998 26.3741 4.31998V5.85598C26.3741 6.52798 26.1021 7.05598 25.5581 7.43998C25.0141 7.82398 24.4221 7.93598 23.7821 7.77598C21.9581 7.29598 20.1021 7.05598 18.2141 7.05598C15.3341 7.05598 13.0781 8.03198 11.4461 9.98398C9.84609 11.936 9.04609 14.768 9.04609 18.48C9.04609 22.128 9.91009 24.96 11.6381 26.976C13.3661 28.992 15.6701 30 18.5501 30C20.4701 30 22.3421 29.76 24.1661 29.28C24.8061 29.12 25.3981 29.232 25.9421 29.616C26.5181 30 26.8061 30.528 26.8061 31.2V32.64C26.8061 33.44 26.5501 34.16 26.0381 34.8C25.5581 35.44 24.9341 35.824 24.1661 35.952C22.2781 36.304 20.0861 36.48 17.5901 36.48Z" fill="white"/>
<path d="M54.1106 18.48C54.1106 10.96 51.4226 7.19998 46.0466 7.19998C40.6706 7.19998 37.9826 10.96 37.9826 18.48C37.9826 26 40.6706 29.76 46.0466 29.76C51.4226 29.76 54.1106 26 54.1106 18.48ZM58.0466 31.728C55.1026 34.896 51.1026 36.48 46.0466 36.48C40.9906 36.48 36.9906 34.896 34.0466 31.728C31.1026 28.528 29.6306 24.112 29.6306 18.48C29.6306 12.848 31.1026 8.44798 34.0466 5.27998C36.9906 2.07998 40.9906 0.47998 46.0466 0.47998C51.1026 0.47998 55.1026 2.07998 58.0466 5.27998C60.9906 8.44798 62.4626 12.848 62.4626 18.48C62.4626 24.112 60.9906 28.528 58.0466 31.728Z" fill="white"/>
<path d="M68.7131 36C67.9771 36 67.3371 35.728 66.7931 35.184C66.2491 34.64 65.9771 34 65.9771 33.264V3.69598C65.9771 2.95998 66.2491 2.31998 66.7931 1.77598C67.3371 1.23198 67.9771 0.95998 68.7131 0.95998H71.6891C72.4251 0.95998 73.0491 1.23198 73.5611 1.77598C74.1051 2.31998 74.3771 2.95998 74.3771 3.69598V28.848C74.3771 29.104 74.5211 29.232 74.8091 29.232H86.4731C87.2091 29.232 87.8491 29.504 88.3931 30.048C88.9371 30.592 89.2091 31.232 89.2091 31.968V33.264C89.2091 34 88.9371 34.64 88.3931 35.184C87.8491 35.728 87.2091 36 86.4731 36H68.7131Z" fill="white"/>
<path d="M113.624 18.48C113.624 10.96 110.936 7.19998 105.56 7.19998C100.184 7.19998 97.4962 10.96 97.4962 18.48C97.4962 26 100.184 29.76 105.56 29.76C110.936 29.76 113.624 26 113.624 18.48ZM117.56 31.728C114.616 34.896 110.616 36.48 105.56 36.48C100.504 36.48 96.5042 34.896 93.5602 31.728C90.6162 28.528 89.1442 24.112 89.1442 18.48C89.1442 12.848 90.6162 8.44798 93.5602 5.27998C96.5042 2.07998 100.504 0.47998 105.56 0.47998C110.616 0.47998 114.616 2.07998 117.56 5.27998C120.504 8.44798 121.976 12.848 121.976 18.48C121.976 24.112 120.504 28.528 117.56 31.728Z" fill="white"/>
<path d="M128.227 36C127.491 36 126.851 35.728 126.307 35.184C125.763 34.64 125.491 34 125.491 33.264V3.69598C125.491 2.95998 125.763 2.31998 126.307 1.77598C126.851 1.23198 127.491 0.95998 128.227 0.95998H144.691C145.427 0.95998 146.067 1.23198 146.611 1.77598C147.155 2.31998 147.427 2.95998 147.427 3.69598V4.79998C147.427 5.53598 147.155 6.17598 146.611 6.71998C146.067 7.26398 145.427 7.53598 144.691 7.53598H134.083C133.795 7.53598 133.651 7.66398 133.651 7.91998V15.072C133.651 15.36 133.795 15.504 134.083 15.504H143.731C144.467 15.504 145.107 15.776 145.651 16.32C146.195 16.832 146.467 17.456 146.467 18.192V18.96C146.467 19.696 146.195 20.336 145.651 20.88C145.107 21.392 144.467 21.648 143.731 21.648H134.083C133.795 21.648 133.651 21.792 133.651 22.08V33.264C133.651 34 133.379 34.64 132.835 35.184C132.323 35.728 131.699 36 130.963 36H128.227Z" fill="white"/>
<path d="M174.216 18.48C174.216 10.96 171.528 7.19998 166.152 7.19998C160.776 7.19998 158.088 10.96 158.088 18.48C158.088 26 160.776 29.76 166.152 29.76C171.528 29.76 174.216 26 174.216 18.48ZM178.152 31.728C175.208 34.896 171.208 36.48 166.152 36.48C161.096 36.48 157.096 34.896 154.152 31.728C151.208 28.528 149.736 24.112 149.736 18.48C149.736 12.848 151.208 8.44798 154.152 5.27998C157.096 2.07998 161.096 0.47998 166.152 0.47998C171.208 0.47998 175.208 2.07998 178.152 5.27998C181.096 8.44798 182.568 12.848 182.568 18.48C182.568 24.112 181.096 28.528 178.152 31.728Z" fill="white"/>
<path d="M188.818 36C188.082 36 187.442 35.728 186.898 35.184C186.354 34.64 186.082 34 186.082 33.264V3.69598C186.082 2.95998 186.354 2.31998 186.898 1.77598C187.442 1.23198 188.082 0.95998 188.818 0.95998H191.17C192.994 0.95998 194.322 1.75998 195.154 3.35998L205.234 22.416C205.234 22.448 205.25 22.464 205.282 22.464C205.314 22.464 205.33 22.448 205.33 22.416V3.69598C205.33 2.95998 205.602 2.31998 206.146 1.77598C206.69 1.23198 207.33 0.95998 208.066 0.95998H210.418C211.154 0.95998 211.794 1.23198 212.338 1.77598C212.882 2.31998 213.154 2.95998 213.154 3.69598V33.264C213.154 34 212.882 34.64 212.338 35.184C211.794 35.728 211.154 36 210.418 36H208.066C206.242 36 204.914 35.2 204.082 33.6L194.002 14.544C194.002 14.512 193.986 14.496 193.954 14.496C193.922 14.496 193.906 14.512 193.906 14.544V33.264C193.906 34 193.634 34.64 193.09 35.184C192.546 35.728 191.906 36 191.17 36H188.818Z" fill="white"/>
</svg>
