<?xml version="1.0" encoding="UTF-8" standalone="no"?><!DOCTYPE svg PUBLIC "-//W3C//DTD SVG 1.1//EN" "http://www.w3.org/Graphics/SVG/1.1/DTD/svg11.dtd"><svg width="100%" height="100%" viewBox="0 0 120 83" version="1.1" xmlns="http://www.w3.org/2000/svg" xmlns:xlink="http://www.w3.org/1999/xlink" xml:space="preserve" xmlns:serif="http://www.serif.com/" style="fill-rule:evenodd;clip-rule:evenodd;stroke-linecap:round;stroke-linejoin:round;stroke-miterlimit:1.5;"><path d="M64.193,52.478c-3.673,0.133 12.649,8.001 15.52,9.392c4.443,2.153 35.76,10.039 38.649,8.273" style="fill:none;stroke:#fff;stroke-width:1px;"/><path d="M118.221,70.189c1.01,-1.178 -22.048,8.313 -23.508,5.925" style="fill:none;stroke:#fff;stroke-width:1px;"/><path d="M118.087,70.293c1.139,-0.119 -4.266,-4.384 -4.848,-4.957c-3.887,-3.823 -7.966,-7.306 -10.854,-12.029" style="fill:none;stroke:#fff;stroke-width:1px;"/><g transform="matrix(1.49693,-0.289897,0.289897,1.49693,-527.633,-375.31)"><text x="307.026px" y="332.315px" style="font-family:'Noteworthy-Light', 'Noteworthy';font-weight:300;font-size:12px;fill:#fff;">Pr<tspan x="318.021px 323.526px " y="332.315px 332.315px ">ob</tspan>eer</text><text x="291.081px" y="344.495px" style="font-family:'Noteworthy-Light', 'Noteworthy';font-weight:300;font-size:12px;fill:#fff;">Ha<tspan x="305.121px 306.501px 310.026px 315.096px 320.466px 325.431px 330.936px 336.081px 341.616px 344.781px 350.106px 351.606px 355.686px " y="344.495px 344.495px 344.495px 344.495px 344.495px 344.495px 344.495px 344.495px 344.495px 344.495px 344.495px 344.495px 344.495px ">ltebuddy uit!</tspan></text></g></svg>