<svg width="84" height="63" viewBox="0 0 84 63" fill="none" xmlns="http://www.w3.org/2000/svg">
<path d="M32.5986 46C34.7412 46.0809 25.2201 50.8673 23.5453 51.7135C20.9536 53.0232 2.6853 57.8205 1.00005 56.7462" stroke="white" stroke-miterlimit="1.5" stroke-linecap="round" stroke-linejoin="round"/>
<path d="M1.08278 56.782C0.49361 56.0654 13.9441 61.839 14.7958 60.3863" stroke="white" stroke-miterlimit="1.5" stroke-linecap="round" stroke-linejoin="round"/>
<path d="M1.16728 56.8411C0.502865 56.7687 3.65578 54.1742 3.99528 53.8256C6.2627 51.4999 8.64212 49.3811 10.3268 46.5079" stroke="white" stroke-miterlimit="1.5" stroke-linecap="round" stroke-linejoin="round"/>
<path d="M37.6804 16.681C35.8031 19.0232 34.0102 19.6431 32.3017 18.5407C31.3821 17.9391 30.7535 17.1672 30.4159 16.2249L30.2661 16.2406L29.9124 16.8648C29.5628 17.4579 29.3634 17.9282 29.3139 18.2757C29.3068 18.3119 29.3023 18.4501 29.3002 18.6903C29.3039 18.9204 29.2943 19.0557 29.2713 19.0963C29.2022 19.2181 29.0933 19.3039 28.9444 19.3536C28.7898 19.4135 28.6465 19.406 28.5146 19.3313C28.2101 19.1587 28.0544 18.9364 28.0477 18.6644C28.0528 18.4661 28.1401 18.1937 28.3096 17.8473C28.5725 17.3124 28.8535 16.781 29.1527 16.2532C29.3252 15.9487 29.6044 15.5035 29.9901 14.9175C30.386 14.3373 30.668 13.8869 30.8362 13.5665C31.0203 13.2417 31.3131 12.7841 31.7148 12.1937C32.1222 11.5932 32.4121 11.1407 32.5847 10.8362L33.4044 9.38982C33.4447 9.31877 33.4877 9.19561 33.5333 9.02036C33.5892 8.85085 33.6372 8.73057 33.6775 8.65952C33.7868 8.46667 33.9734 8.44503 34.2373 8.59459C34.4098 8.69237 34.5088 8.84903 34.5342 9.06456C34.5697 9.28583 34.5385 9.48275 34.4407 9.6553C34.366 9.78725 34.2291 9.95777 34.0301 10.1669C33.8413 10.3817 33.7095 10.5551 33.6348 10.687L33.4256 11.0915C33.8892 10.8178 34.3527 10.5441 34.8163 10.2704C35.7958 9.8198 36.7372 9.85046 37.6406 10.3624C38.615 10.9146 39.1236 11.7326 39.1666 12.8163C39.1987 13.7062 38.9271 14.6586 38.3519 15.6736C38.1505 16.0288 37.9267 16.3646 37.6804 16.681ZM37.5023 15.4335C37.951 14.6418 38.208 13.8688 38.2733 13.1147C38.361 12.1318 38.0597 11.4448 37.3695 11.0536C36.4763 10.5474 35.3837 10.7127 34.0915 11.5493C32.9885 12.2652 32.158 13.1154 31.6 14.1L31.1427 14.9069C31.2729 14.9137 31.3634 14.9314 31.4142 14.9602C31.4852 15.0005 31.5174 15.0857 31.5106 15.216C31.514 15.352 31.5273 15.4467 31.5507 15.5002C31.5233 15.5249 31.5023 15.5264 31.4878 15.5048C31.4732 15.4831 31.4573 15.4875 31.44 15.5179C31.4113 15.5687 31.4001 15.6831 31.4065 15.861C31.4572 16.6944 31.8937 17.344 32.7158 17.8099C33.4872 18.2471 34.2096 18.3212 34.8829 18.0323C35.3901 17.8236 35.9629 17.357 36.6014 16.6327C37.0409 16.1174 37.3412 15.7177 37.5023 15.4335Z" fill="white"/>
<path d="M41.7807 19.4472C41.7576 19.4878 41.7037 19.5712 41.6188 19.6974C41.3718 19.8256 41.1874 19.8552 41.0656 19.7862C40.9844 19.7402 40.9421 19.6492 40.9387 19.5132C41.2706 18.8565 41.1879 18.3872 40.6906 18.1053C40.3658 17.9212 39.7067 18.3389 38.7133 19.3583C38.3441 19.7257 37.9525 20.2748 37.5383 21.0056C37.0091 21.9394 36.7094 22.5273 36.6394 22.7692C36.6323 22.8054 36.6203 22.8857 36.6034 23.0102C36.5922 23.1246 36.5722 23.2072 36.5435 23.2579C36.4169 23.4812 36.2014 23.5066 35.8969 23.334C35.5518 23.1384 35.4799 22.863 35.6812 22.5078C35.71 22.457 35.7604 22.3917 35.8325 22.3119C35.9204 22.2276 35.9788 22.1601 36.0076 22.1094C36.3239 21.5511 36.7731 20.6994 37.3551 19.5541C37.9371 18.4089 38.3863 17.5571 38.7027 16.9988C38.8178 16.7958 38.9223 16.6942 39.0164 16.6938C39.1162 16.6834 39.2676 16.7356 39.4706 16.8507C39.7243 16.9945 39.8197 17.1693 39.7568 17.375C39.6519 17.5837 39.5499 17.7874 39.4507 17.986C39.9447 17.7296 40.2264 17.5875 40.2958 17.5597C40.6629 17.4325 40.9682 17.438 41.2118 17.576C41.3945 17.6795 41.5456 17.8389 41.665 18.0541C41.732 18.1725 41.7799 18.4075 41.8086 18.759C41.8475 19.1163 41.8382 19.3457 41.7807 19.4472Z" fill="white"/>
<path d="M45.3878 24.6898C44.8931 25.5627 44.2688 26.2146 43.515 26.6456C42.6153 27.1683 41.7595 27.1996 40.9475 26.7394C40.1253 26.2735 39.6924 25.6057 39.6488 24.7362C39.613 24.0186 39.8424 23.2233 40.3371 22.3504C40.8261 21.4877 41.4992 20.7494 42.3566 20.1357C43.4248 19.3867 44.3344 19.225 45.0855 19.6507C45.2784 19.76 45.4892 20.0269 45.7179 20.4515C46.3952 21.6936 46.2851 23.1064 45.3878 24.6898ZM44.6656 24.2604C45.0338 23.6108 45.2782 22.9783 45.3991 22.3628C45.5537 21.4984 45.3672 20.9166 44.8394 20.6175C44.2304 20.2723 43.5261 20.4029 42.7266 21.0092C42.1118 21.4788 41.603 22.0688 41.2004 22.7793C40.838 23.4187 40.6245 24.0085 40.5598 24.5485C40.4843 25.2969 40.7257 25.8293 41.284 26.1456C41.893 26.4908 42.5504 26.4074 43.2562 25.8955C43.8046 25.4956 44.2745 24.9506 44.6656 24.2604Z" fill="white"/>
<path d="M50.8133 27.2617C50.3128 28.1447 49.7711 28.8167 49.1881 29.2775C48.3815 29.9199 47.5976 30.0255 46.8363 29.594C46.6435 29.4847 46.4163 29.2822 46.1547 28.9865C45.9528 28.7514 45.7508 28.5162 45.5488 28.281C45.494 28.3304 45.4465 28.3907 45.4062 28.4617C45.3774 28.5125 45.3422 28.5864 45.3006 28.6835C45.2532 28.7907 45.2152 28.8697 45.1864 28.9205C45.1001 29.0727 44.9707 29.1 44.7982 29.0022C44.6256 28.9044 44.5238 28.7528 44.4927 28.5474C44.4619 28.4361 44.5757 28.1051 44.8343 27.5542C45.0397 27.1208 45.2085 26.7874 45.3408 26.554L45.3926 26.4626L50.4965 18.131L50.7097 18.2518C50.8518 18.3323 50.9406 18.4832 50.9761 18.7045C51.0275 18.9214 51.0101 19.106 50.9238 19.2582C50.711 19.6338 50.3438 20.1633 49.8224 20.8467C49.3112 21.5359 48.9491 22.0682 48.7363 22.4438C48.7133 22.4844 48.604 22.6772 48.4084 23.0223C48.5068 23.0379 48.6745 22.9787 48.9113 22.8447C49.2074 22.6773 49.44 22.5744 49.6092 22.5362C49.9157 22.4685 50.2162 22.5181 50.5105 22.6849C51.0079 22.9668 51.3445 23.4258 51.5204 24.0619C51.6787 24.6343 51.6721 25.2139 51.5005 25.8006C51.376 26.186 51.1469 26.673 50.8133 27.2617ZM49.9546 26.8957C50.3112 26.2664 50.553 25.686 50.6799 25.1545C50.8897 24.3347 50.7663 23.7954 50.3095 23.5365C49.7513 23.2201 49.0768 23.381 48.286 24.0191C47.6641 24.5249 47.1662 25.1076 46.7923 25.7674C46.4587 26.3561 46.2755 26.916 46.2426 27.4472C46.18 28.1493 46.4075 28.647 46.9252 28.9404C47.4428 29.2337 48.0356 29.0869 48.7035 28.4999C49.1694 28.0801 49.5864 27.5453 49.9546 26.8957Z" fill="white"/>
<path d="M54.977 32.0955C54.7239 32.5421 54.1973 32.7734 53.3971 32.7892C52.6751 32.8092 52.0755 32.6839 51.5985 32.4136C50.2384 31.6428 50.0473 30.3946 51.0252 28.6691C51.4566 27.9079 52.0567 27.1685 52.8254 26.4509C53.8351 25.5212 54.6241 25.2174 55.1925 25.5395C55.6797 25.8156 56.0717 26.3663 56.3683 27.1915C56.6708 28.0066 56.6839 28.6577 56.4078 29.1449C56.0512 29.7742 55.4868 30.1785 54.7147 30.3578C53.9426 30.5371 53.2368 30.4455 52.5974 30.0831C52.5365 30.0486 52.4333 29.9231 52.2878 29.7065C52.1525 29.4958 52.0493 29.3702 51.9783 29.33C51.8463 29.2552 51.7573 29.2584 51.7113 29.3396C51.0498 30.5068 51.1047 31.3091 51.8761 31.7462C52.272 31.9706 52.7122 32.0457 53.1967 31.9716C53.486 31.9344 53.8444 31.8224 54.2721 31.6357C54.6088 31.4912 54.8075 31.4363 54.8684 31.4708C55.1019 31.6031 55.1381 31.8113 54.977 32.0955ZM55.5141 28.6988C55.7155 28.3435 55.8009 27.9561 55.7705 27.5366C55.7458 27.1069 55.566 26.7971 55.231 26.6073C54.825 26.3772 54.3513 26.444 53.81 26.8077C53.3552 27.1132 52.9984 27.4943 52.7396 27.9511C52.5728 28.2454 52.5232 28.5459 52.5908 28.8524C52.6744 29.1546 52.8634 29.389 53.1577 29.5559C53.5738 29.7917 54.0196 29.8097 54.495 29.6097C54.9328 29.4287 55.2725 29.1251 55.5141 28.6988Z" fill="white"/>
<path d="M60.1273 35.0144C59.8742 35.461 59.3476 35.6922 58.5474 35.7081C57.8254 35.728 57.2259 35.6028 56.7488 35.3324C55.3887 34.5616 55.1976 33.3135 56.1755 31.588C56.6069 30.8267 57.207 30.0873 57.9758 29.3697C58.9854 28.44 59.7744 28.1362 60.3428 28.4583C60.83 28.7344 61.222 29.2851 61.5187 30.1103C61.8211 30.9254 61.8343 31.5766 61.5582 32.0638C61.2015 32.6931 60.6371 33.0974 59.865 33.2766C59.0929 33.4559 58.3872 33.3644 57.7477 33.002C57.6868 32.9675 57.5836 32.8419 57.4381 32.6254C57.3028 32.4146 57.1996 32.2891 57.1286 32.2488C56.9966 32.174 56.9076 32.1772 56.8616 32.2584C56.2001 33.4257 56.2551 34.2279 57.0265 34.6651C57.4223 34.8894 57.8625 34.9645 58.347 34.8905C58.6363 34.8533 58.9948 34.7413 59.4224 34.5545C59.7591 34.4101 59.9579 34.3551 60.0188 34.3896C60.2522 34.5219 60.2884 34.7302 60.1273 35.0144ZM60.6644 31.6176C60.8658 31.2624 60.9512 30.875 60.9208 30.4554C60.8961 30.0257 60.7163 29.716 60.3814 29.5261C59.9754 29.2961 59.5017 29.3629 58.9603 29.7265C58.5056 30.032 58.1488 30.4132 57.8899 30.8699C57.7231 31.1643 57.6735 31.4647 57.7412 31.7713C57.8247 32.0734 58.0137 32.3079 58.308 32.4747C58.7242 32.7105 59.1699 32.7285 59.6453 32.5286C60.0831 32.3476 60.4229 32.0439 60.6644 31.6176Z" fill="white"/>
<path d="M66.4142 33.4078C66.3912 33.4484 66.3372 33.5318 66.2523 33.658C66.0053 33.7862 65.8209 33.8158 65.6991 33.7468C65.6179 33.7007 65.5756 33.6097 65.5722 33.4737C65.9042 32.817 65.8215 32.3477 65.3241 32.0659C64.9993 31.8818 64.3402 32.2994 63.3468 33.3188C62.9776 33.6862 62.586 34.2354 62.1718 34.9661C61.6426 35.8999 61.343 36.4878 61.2729 36.7297C61.2658 36.7659 61.2538 36.8463 61.2369 36.9708C61.2257 37.0851 61.2057 37.1677 61.177 37.2184C61.0504 37.4417 60.8349 37.4671 60.5304 37.2945C60.1853 37.099 60.1134 36.8236 60.3148 36.4683C60.3435 36.4176 60.3939 36.3523 60.466 36.2724C60.554 36.1882 60.6124 36.1207 60.6411 36.0699C60.9575 35.5117 61.4067 34.6599 61.9887 33.5147C62.5707 32.3694 63.0199 31.5176 63.3362 30.9594C63.4513 30.7564 63.5558 30.6547 63.6499 30.6544C63.7497 30.6439 63.9011 30.6962 64.1041 30.8112C64.3579 30.955 64.4533 31.1298 64.3903 31.3355C64.2854 31.5443 64.1834 31.7479 64.0843 31.9465C64.5783 31.6901 64.8599 31.548 64.9293 31.5203C65.2964 31.3931 65.6018 31.3985 65.8454 31.5366C66.0281 31.6401 66.1791 31.7995 66.2986 32.0147C66.3655 32.1331 66.4134 32.3681 66.4421 32.7196C66.481 33.0769 66.4717 33.3063 66.4142 33.4078Z" fill="white"/>
<path d="M20.7297 16.9079C20.4983 16.9376 20.3746 16.9547 20.3587 16.9591C20.2474 16.9899 20.1398 17.0496 20.0359 17.1382C19.4847 17.5902 18.4497 19.109 16.9307 21.6945C17.2501 21.9828 17.3638 22.2082 17.2717 22.3706C17.2142 22.4721 17.1024 22.5629 16.9363 22.6431C16.8118 22.6262 16.6301 22.6036 16.3912 22.5756C16.1381 23.0222 15.8178 23.7056 15.4304 24.6259C15.4118 24.6824 15.3762 24.8634 15.3238 25.1689C15.2798 25.4122 15.2348 25.5744 15.1888 25.6556C15.1197 25.7774 15.005 25.8733 14.8447 25.9433C14.6843 26.0134 14.5432 26.0139 14.4214 25.9448C14.1473 25.7895 14.0746 25.4801 14.2032 25.0166C14.2218 24.9601 14.3624 24.6174 14.625 23.9884C14.8933 23.3493 15.0764 22.9434 15.1742 22.7709C15.2777 22.5882 15.3907 22.4243 15.5132 22.2791C14.8782 21.9326 14.0883 21.599 13.1437 21.2782C12.3324 21.0061 11.5182 20.7391 10.7011 20.4772L10.2717 20.596C10.0633 20.9874 9.84688 21.3811 9.62254 21.7769C9.32376 22.3988 9.20159 22.8391 9.25605 23.098C9.14067 23.2069 9.03731 23.2355 8.94596 23.1837C8.86476 23.1377 8.75176 23.1005 8.60695 23.072C8.46654 23.0595 8.36588 23.036 8.30498 23.0015C8.11213 22.8922 8.20604 22.4425 8.58671 21.6525C8.83677 21.164 9.09191 20.6783 9.35211 20.1955L9.33182 19.9828C9.28547 19.97 9.26229 19.9636 9.26229 19.9636C9.13034 19.8888 9.02868 19.7842 8.95729 19.6499C8.89166 19.5054 8.89336 19.3723 8.96239 19.2505C9.0084 19.1693 9.11736 19.0835 9.28924 18.9932C9.46687 18.8927 9.60136 18.8684 9.69271 18.9201C9.71301 18.9316 9.73551 18.9511 9.76021 18.9785C9.79506 19.0117 9.82263 19.034 9.84293 19.0455C9.84293 19.0455 9.87118 19.0548 9.92769 19.0734C10.1909 18.6326 10.7022 17.7422 11.4615 16.4024C12.4682 14.6262 13.2745 13.4874 13.8805 12.986C14.1474 12.7752 14.4078 12.7417 14.6616 12.8855C14.824 12.9776 14.9496 13.1226 15.0386 13.3205C15.1333 13.5083 15.1347 13.6834 15.0426 13.8458C15.0081 13.9067 14.8848 14.0178 14.6727 14.1792C14.4273 14.3754 14.2881 14.4909 14.255 14.5258C13.4287 15.3449 12.4576 16.739 11.3416 18.7081C11.0828 19.1648 11.0396 19.4421 11.2122 19.5399C11.2629 19.5686 11.5607 19.6703 12.1054 19.8449C13.3166 20.2632 14.105 20.5758 14.4704 20.7829C14.5617 20.8347 14.7283 20.8956 14.9702 20.9657C15.2281 21.0313 15.4585 21.1217 15.6615 21.2367C15.8746 21.3575 16.0566 21.2729 16.2076 20.983L16.9364 19.6259C17.4051 18.7517 17.9346 17.9119 18.525 17.1067C19.4481 15.8329 20.1076 15.3081 20.5034 15.5325C20.7064 15.6475 20.8287 15.8576 20.8703 16.1628C20.893 16.4305 20.8461 16.6788 20.7297 16.9079Z" fill="white"/>
<path d="M20.445 30.0425C20.3644 30.1846 20.2125 30.1924 19.9892 30.0658C19.7456 29.9278 19.656 29.7428 19.7203 29.5111C19.7274 29.4749 19.8345 29.2741 20.0415 28.9087C20.0991 28.8072 20.1299 28.7174 20.1339 28.6392C19.3297 28.7332 18.5977 28.5933 17.9379 28.2194C17.4812 27.9605 17.1116 27.5834 16.8291 27.0881C16.5029 26.5278 16.4607 26.0345 16.7023 25.6082C16.9381 25.192 17.4575 24.95 18.2604 24.882C18.9952 24.8157 19.586 24.9091 20.0326 25.1622L21.5399 26.0164C21.6353 25.99 21.7261 25.9007 21.8124 25.7485C22.1978 25.0684 22.4325 24.5242 22.5164 24.1158C22.6616 23.4338 22.4652 22.9403 21.9272 22.6354C21.5415 22.4168 21.0482 22.4591 20.4473 22.7622C19.8999 23.042 19.5111 23.3849 19.281 23.7909C19.2695 23.8112 19.2523 23.8416 19.2292 23.8822C19.2062 23.9228 19.1919 23.9482 19.1861 23.9584C19.1401 24.0396 19.0765 24.0571 18.9953 24.0111C18.8938 23.9536 18.8166 23.8294 18.7639 23.6386C18.7111 23.4478 18.7106 23.3067 18.7624 23.2153C18.9234 22.9311 19.211 22.6248 19.6252 22.2963C20.0451 21.9576 20.4198 21.7342 20.7494 21.6259C21.1584 21.4957 21.5507 21.537 21.9263 21.7498C22.5048 22.0777 22.9342 22.5624 23.2143 23.2039C23.5076 23.8931 23.5011 24.5197 23.1949 25.0837L20.445 30.0425ZM21.01 27.1644C21.24 26.7584 21.0404 26.3771 20.4111 26.0204C19.9138 25.7386 19.4285 25.5775 18.9551 25.5372C18.3515 25.4902 17.9232 25.6899 17.6701 26.1365C17.5148 26.4106 17.5208 26.6956 17.6883 26.9917C17.8267 27.2444 18.043 27.4542 18.3374 27.621C18.7738 27.8684 19.2654 27.9593 19.8122 27.8936C20.3691 27.8338 20.7684 27.5907 21.01 27.1644Z" fill="white"/>
<path d="M22.9896 30.7001C22.84 30.964 22.6231 31.0154 22.3389 30.8544C21.8923 30.6013 22.1947 29.559 23.246 27.7276L27.1658 20.9175C27.2291 20.8058 27.3031 20.6399 27.3877 20.4196C27.478 20.1892 27.5519 20.0233 27.6095 19.9218C27.8828 19.889 28.0855 19.9099 28.2175 19.9847C28.3596 20.0653 28.4729 20.1965 28.5575 20.3786C28.642 20.5606 28.6441 20.7227 28.5635 20.8648C28.506 20.9663 28.4059 21.0838 28.2631 21.2175C28.0871 21.386 27.9797 21.4927 27.9408 21.5377C27.4278 22.1589 26.8205 23.0886 26.1187 24.3269C24.9855 26.3264 24.4339 27.2878 24.4641 27.211C23.787 28.4767 23.3361 29.4616 23.1114 30.1657C23.0941 30.1961 23.0742 30.2787 23.0515 30.4134C23.0447 30.5436 23.0241 30.6392 22.9896 30.7001Z" fill="white"/>
<path d="M29.0802 28.0168C28.9645 28.0316 28.7428 27.9731 28.4153 27.8411C28.0574 27.6919 27.8444 27.6181 27.7764 27.6198C27.703 27.7257 27.3786 28.2862 26.8034 29.3012C26.3547 30.0929 26.0629 30.6315 25.9279 30.917C25.8646 31.0287 25.7893 31.2207 25.702 31.4931C25.6147 31.7654 25.5336 31.9676 25.4589 32.0995C25.4128 32.1807 25.3161 32.2332 25.1686 32.2568C25.021 32.2805 24.9067 32.2693 24.8255 32.2233C24.6225 32.1083 24.578 31.8082 24.6921 31.323C24.7834 30.9725 24.9068 30.6602 25.0621 30.3861C25.8731 28.955 26.4815 27.9051 26.8872 27.2366C26.8551 27.1513 26.6217 27.019 26.1869 26.8397C25.8391 26.6962 25.7428 26.4875 25.8981 26.2134C26.1167 25.8277 26.6285 25.8831 27.4334 26.3794L29.193 23.7359C29.2103 23.7054 29.221 23.6511 29.225 23.573C29.245 23.4904 29.2636 23.4339 29.2809 23.4035C29.3154 23.3426 29.3876 23.3098 29.4976 23.305C29.6133 23.2901 29.7241 23.3194 29.83 23.3928C30.168 23.6246 30.2449 23.9029 30.0609 24.2277C29.9171 24.4815 29.6658 24.842 29.3072 25.3092C28.9485 25.7764 28.7001 26.1318 28.5621 26.3754C28.493 26.4972 28.437 26.6197 28.3941 26.7429L29.2573 27.1718C29.5415 27.3328 29.6203 27.525 29.4938 27.7483C29.4018 27.9107 29.2639 28.0002 29.0802 28.0168Z" fill="white"/>
<path d="M32.0756 34.0592C31.8225 34.5058 31.2958 34.737 30.4957 34.7529C29.7736 34.7728 29.1741 34.6476 28.697 34.3772C27.3369 33.6064 27.1458 32.3583 28.1237 30.6328C28.5552 29.8715 29.1552 29.1321 29.924 28.4145C30.9336 27.4848 31.7227 27.181 32.2911 27.5031C32.7783 27.7792 33.1702 28.3299 33.4669 29.1551C33.7693 29.9702 33.7825 30.6214 33.5064 31.1086C33.1497 31.7379 32.5854 32.1422 31.8133 32.3214C31.0412 32.5007 30.3354 32.4092 29.6959 32.0468C29.635 32.0123 29.5319 31.8867 29.3864 31.6702C29.251 31.4594 29.1479 31.3339 29.0768 31.2936C28.9449 31.2188 28.8559 31.222 28.8099 31.3032C28.1483 32.4705 28.2033 33.2727 28.9747 33.7099C29.3705 33.9342 29.8107 34.0093 30.2952 33.9353C30.5845 33.8981 30.943 33.7861 31.3707 33.5993C31.7073 33.4549 31.9061 33.3999 31.967 33.4344C32.2004 33.5667 32.2366 33.775 32.0756 34.0592ZM32.6127 30.6624C32.814 30.3072 32.8995 29.9198 32.869 29.5002C32.8443 29.0705 32.6645 28.7608 32.3296 28.5709C31.9236 28.3408 31.4499 28.4076 30.9085 28.7713C30.4538 29.0768 30.097 29.458 29.8381 29.9147C29.6713 30.2091 29.6217 30.5095 29.6894 30.8161C29.773 31.1182 29.9619 31.3527 30.2563 31.5195C30.6724 31.7553 31.1182 31.7733 31.5935 31.5734C32.0314 31.3924 32.3711 31.0887 32.6127 30.6624Z" fill="white"/>
<path d="M36.9182 39.5795C36.5494 39.6387 36.2889 39.6252 36.1367 39.5389C35.9134 39.4123 35.7088 38.874 35.5231 37.9239C35.2989 36.7106 35.178 36.0722 35.1604 36.0086C35.0961 35.838 35.0181 35.4787 34.9265 34.9306C34.8409 34.4664 34.7311 34.1159 34.5971 33.879L34.116 34.0891L33.2618 35.5964C33.21 35.6877 33.1657 35.8369 33.1288 36.044C33.1078 36.2467 33.0714 36.3937 33.0196 36.485C32.9851 36.5459 32.9078 36.5759 32.7877 36.5748C32.672 36.5897 32.5786 36.577 32.5076 36.5368C32.1016 36.3067 32.0222 35.9734 32.2696 35.5369L33.4776 33.4054C33.5524 33.2735 33.6769 33.0893 33.8511 32.8528C34.0413 32.6119 34.1738 32.4255 34.2485 32.2935L36.63 28.0914C36.9694 27.4926 37.2115 27.0062 37.3563 26.6324C37.3851 26.5816 37.423 26.4556 37.47 26.2543C37.5201 26.0949 37.571 25.9696 37.6228 25.8782C37.6803 25.7767 37.814 25.7184 38.0237 25.7031C38.2437 25.6937 38.4145 25.7235 38.5363 25.7925C38.6277 25.8443 38.7068 25.9294 38.7738 26.0478C38.8567 26.1618 38.8751 26.2594 38.8291 26.3406C38.8234 26.3508 38.729 26.4582 38.5459 26.6629C38.3196 26.8967 37.982 27.4094 37.5334 28.2011L34.9702 32.5818L35.0032 32.7011C35.443 32.6822 36.1025 32.5597 36.9815 32.3337C37.5438 32.1697 38.1062 32.0056 38.6685 31.8415C39.5807 31.5807 40.0875 31.4791 40.189 31.5366C40.3413 31.6229 40.4228 31.763 40.4336 31.9568C40.4502 32.1406 40.4103 32.3057 40.3138 32.4522L40.2555 32.5197C39.7259 32.5548 38.8987 32.6894 37.7737 32.9235C36.4795 33.1958 35.7634 33.4538 35.6254 33.6974C35.5736 33.7887 35.5964 34.1034 35.6938 34.6414C35.8545 35.47 36.0101 36.2957 36.1606 37.1185C36.4032 38.1813 36.6873 38.9458 37.0131 39.412L36.9182 39.5795Z" fill="white"/>
<path d="M42.2606 41.9233C42.1364 42.0004 42.0185 42.0073 41.9068 41.9441C41.7952 41.8808 41.6527 41.7062 41.4795 41.4203L41.5486 41.2985C41.6003 41.2071 41.6831 41.073 41.7968 40.896C41.9104 40.7191 41.9903 40.59 42.0363 40.5088C43.9461 37.139 44.4797 35.2154 43.6373 34.738C43.3734 34.5884 42.9799 34.6202 42.4568 34.8333C41.1447 35.3502 40.0773 36.3344 39.2548 37.7859C39.1455 37.9787 39.0149 38.2802 38.8629 38.6902C38.7269 39.0959 38.6042 39.3952 38.4949 39.588C38.4086 39.7403 38.2589 39.756 38.0458 39.6352C37.6398 39.4051 37.618 38.9703 37.9804 38.3309L39.939 34.8748C39.9908 34.7835 40.0757 34.6573 40.1938 34.4962C40.3119 34.3352 40.3968 34.209 40.4486 34.1176C40.5234 33.9857 40.6124 33.7813 40.7156 33.5046C40.829 33.2336 40.9201 33.0372 40.9892 32.9154C41.0352 32.8342 41.1479 32.7773 41.3272 32.7448C41.5224 32.708 41.6555 32.7097 41.7266 32.7499C41.8585 32.8247 41.9401 32.9648 41.9712 33.1702C41.5668 33.8127 41.333 34.1897 41.2698 34.3014C41.1835 34.4536 41.1051 34.6037 41.0348 34.7515C41.1434 34.7729 41.3601 34.6744 41.6849 34.4562C42.0963 34.1798 42.4083 34.0079 42.6208 33.9406C43.0254 33.7945 43.3851 33.8106 43.6997 33.9889C43.8215 34.0579 43.9784 34.2071 44.1702 34.4365C44.6032 34.9501 44.8042 35.5066 44.773 36.1058C44.7145 37.132 44.3113 38.3048 43.5635 39.6243L42.2606 41.9233Z" fill="white"/>
<path d="M49.5939 42.0161C49.0992 42.889 48.475 43.5409 47.7211 43.9719C46.8214 44.4946 45.9656 44.5259 45.1536 44.0657C44.3315 43.5998 43.8986 42.932 43.855 42.0625C43.8191 41.3449 44.0486 40.5496 44.5433 39.6767C45.0322 38.814 45.7054 38.0757 46.5628 37.462C47.631 36.713 48.5406 36.5513 49.2917 36.977C49.4845 37.0863 49.6953 37.3532 49.924 37.7778C50.6013 39.0199 50.4913 40.4327 49.5939 42.0161ZM48.8718 41.5867C49.2399 40.9371 49.4844 40.3046 49.6052 39.6891C49.7599 38.8247 49.5733 38.2429 49.0455 37.9438C48.4365 37.5986 47.7322 37.7292 46.9327 38.3355C46.3179 38.8051 45.8092 39.3951 45.4065 40.1056C45.0441 40.745 44.8306 41.3348 44.766 41.8748C44.6905 42.6232 44.9319 43.1556 45.4901 43.4719C46.0991 43.8171 46.7565 43.7337 47.4623 43.2218C48.0108 42.8219 48.4806 42.2769 48.8718 41.5867Z" fill="white"/>
<path d="M55.3397 44.3068C54.7702 45.3117 54.1456 46.0707 53.4659 46.584C52.535 47.3036 51.6433 47.4218 50.7907 46.9386C50.2325 46.6222 49.892 46.0873 49.7692 45.3338C49.6809 45.324 49.467 45.6185 49.1277 46.2173C48.3799 47.5368 47.9166 48.508 47.7379 49.1309C47.7193 49.1874 47.696 49.3351 47.6679 49.574C47.6499 49.8186 47.6295 49.9612 47.6065 50.0018C47.5144 50.1642 47.3669 50.1879 47.1639 50.0728C46.9203 49.9348 46.7679 49.8015 46.7067 49.6729C46.6556 49.5501 46.7067 49.2706 46.86 48.8345C46.9889 48.465 47.108 48.1839 47.2173 47.991L49.4089 44.1239C49.6102 43.7686 49.9009 43.3031 50.2809 42.7272C50.7184 42.0499 51.0141 41.5872 51.1681 41.3392C51.3335 41.0709 51.5349 40.7157 51.7721 40.2735C52.0783 39.7095 52.2774 39.3463 52.3695 39.1839C52.7664 38.4835 53.1475 38.2369 53.5129 38.444C53.6956 38.5475 53.7496 38.6653 53.6748 38.7972C53.531 39.051 53.3007 39.4099 52.984 39.8741C52.6673 40.3383 52.4399 40.6922 52.3019 40.9358L52.3628 40.9703C52.7746 40.788 53.1892 40.6005 53.6067 40.4081C54.0821 40.2081 54.5228 40.2232 54.9288 40.4533C55.6088 40.8387 55.9488 41.4337 55.9488 42.2383C55.9569 42.8865 55.7539 43.576 55.3397 44.3068ZM54.5592 43.945C54.864 43.407 55.0699 42.9135 55.1769 42.4646C55.3265 41.7984 55.2084 41.356 54.8227 41.1374C54.5385 40.9763 54.0525 41.0294 53.3646 41.2967C52.762 41.5318 52.2602 41.8375 51.8593 42.2137C51.552 42.4955 51.1731 42.9513 50.7224 43.5809C50.3955 44.0393 50.2378 44.2584 50.2493 44.2381C50.2321 44.2685 50.249 44.3452 50.3001 44.468C50.338 44.5431 50.373 44.6233 50.4051 44.7086C50.4352 45.0341 50.4625 45.3646 50.4868 45.7002C50.527 46.0315 50.7146 46.292 51.0496 46.4818C51.6078 46.7982 52.2879 46.5802 53.0898 45.8278C53.661 45.2932 54.1507 44.6656 54.5592 43.945Z" fill="white"/>
<path d="M64.7799 47.062C64.6016 47.3767 64.2986 47.8285 63.8709 48.4176C63.4591 49.0022 63.1237 49.5229 62.8649 49.9796C62.7614 50.1623 62.5781 50.5211 62.3152 51.0561C62.0682 51.5866 61.8814 51.9635 61.7549 52.1868C61.5018 52.6334 61.2986 52.8736 61.1453 52.9074C61.0614 52.9135 60.9636 52.8849 60.852 52.8216C60.6287 52.6951 60.5311 52.5124 60.5592 52.2735C60.6278 52.0576 60.6937 51.8468 60.7566 51.6411C60.2149 51.9108 59.5572 51.9001 58.7834 51.6091C58.4965 51.5001 58.2581 51.2108 58.0684 50.7412C57.8918 50.3193 57.8217 49.9577 57.8583 49.6566C57.906 49.2411 58.2002 48.5564 58.741 47.6023L60.6133 44.2984C60.725 43.9594 60.9838 43.905 61.3898 44.1351C61.674 44.2961 61.7241 44.539 61.54 44.8638C61.2639 45.351 60.8892 45.9768 60.4158 46.7411C59.8216 47.7185 59.4469 48.3443 59.2916 48.6183C59.0743 48.978 58.9484 49.3894 58.9139 49.8526C58.8696 50.4041 59.0047 50.769 59.3194 50.9473C59.837 51.2407 60.4335 51.1228 61.1089 50.5936C61.6052 50.191 62.0289 49.6802 62.3798 49.061L63.5101 47.0665C63.5561 46.9853 63.5889 46.8564 63.6086 46.6798C63.6441 46.4988 63.6877 46.3626 63.7395 46.2713C63.7683 46.2205 63.805 46.1676 63.8497 46.1124C64.0665 46.061 64.2489 46.0705 64.3967 46.1409C64.8765 46.3591 65.0042 46.6662 64.7799 47.062Z" fill="white"/>
<path d="M68.664 45.9041C68.4684 46.2492 68.2082 46.3297 67.8834 46.1456C67.6905 46.0363 67.5532 45.8646 67.4713 45.6305C67.3895 45.3963 67.4003 45.1879 67.5038 45.0052C67.6994 44.6601 67.9697 44.5853 68.3148 44.7809C68.5178 44.896 68.653 45.0597 68.7203 45.2722C68.7978 45.4904 68.779 45.7011 68.664 45.9041ZM67.0804 48.0239C66.9769 48.2066 66.781 48.4576 66.4927 48.777C66.2044 49.0964 66.0085 49.3474 65.905 49.5301L63.9981 52.8948C63.8715 53.1181 63.7446 53.4485 63.6174 53.886C63.5308 53.9442 63.4519 53.9531 63.3809 53.9129C62.8835 53.631 62.77 53.2516 63.0404 52.7745L66.207 47.1869C66.3792 47.1907 66.5263 47.227 66.6481 47.2961C66.7699 47.3651 66.8766 47.4725 66.9683 47.6184C67.1006 47.7872 67.1379 47.9224 67.0804 48.0239Z" fill="white"/>
<path d="M70.033 51.2259C69.9173 51.2408 69.6957 51.1822 69.3681 51.0503C69.0102 50.9011 68.7972 50.8273 68.7292 50.829C68.6558 50.9349 68.3314 51.4953 67.7562 52.5103C67.3075 53.302 67.0157 53.8406 66.8807 54.1262C66.8174 54.2378 66.7421 54.4299 66.6548 54.7022C66.5675 54.9746 66.4865 55.1767 66.4117 55.3087C66.3657 55.3899 66.2689 55.4423 66.1214 55.466C65.9739 55.4897 65.8595 55.4785 65.7783 55.4325C65.5753 55.3174 65.5308 55.0173 65.6449 54.5321C65.7362 54.1816 65.8596 53.8693 66.0149 53.5953C66.826 52.1642 67.4343 51.1143 67.8401 50.4458C67.8079 50.3605 67.5745 50.2282 67.1397 50.0488C66.7919 49.9054 66.6956 49.6966 66.851 49.4226C67.0695 49.0369 67.5813 49.0922 68.3862 49.5886L70.1458 46.945C70.1631 46.9146 70.1738 46.8603 70.1778 46.7821C70.1978 46.6996 70.2164 46.6431 70.2337 46.6126C70.2682 46.5517 70.3404 46.5189 70.4504 46.5142C70.5661 46.4993 70.6769 46.5286 70.7828 46.602C71.1208 46.8338 71.1977 47.1121 71.0137 47.4369C70.8699 47.6906 70.6186 48.0511 70.26 48.5183C69.9013 48.9856 69.6529 49.341 69.5149 49.5846C69.4459 49.7064 69.3899 49.8289 69.3469 49.952L70.2101 50.3809C70.4943 50.542 70.5732 50.7342 70.4466 50.9575C70.3546 51.1199 70.2167 51.2093 70.033 51.2259Z" fill="white"/>
<path d="M76.4036 48.0374C76.2966 48.0841 76.1429 48.178 75.9422 48.3191C74.7079 49.5506 73.5453 51.0105 72.4544 52.6988C72.4199 52.7597 72.3414 52.8627 72.2189 53.0078C72.1123 53.1486 72.0331 53.2646 71.9813 53.356C71.9123 53.4778 71.7749 53.9095 71.5692 54.6511C71.5056 54.6687 71.4 54.6893 71.2525 54.713C71.2061 54.7002 71.1271 54.6621 71.0155 54.5988C70.8734 54.5183 70.7732 54.4347 70.7151 54.3481C70.7286 54.0876 70.8849 53.6934 71.1841 53.1656C71.2416 53.0641 71.2703 53.0134 71.2703 53.0134L74.7146 47.9653C74.7376 47.9247 74.7761 47.7856 74.8303 47.5481C74.8902 47.3005 74.9208 47.1636 74.9222 47.1376C75.2707 47.0669 75.587 47.112 75.8712 47.2731C76.125 47.4169 76.3024 47.6717 76.4036 48.0374ZM70.7977 56.8288C70.4008 57.5292 69.8115 57.6579 69.03 57.215C68.8879 57.1344 68.6707 56.8906 68.3784 56.4836C68.3834 56.2853 68.4378 56.0948 68.5413 55.9121C68.7139 55.6076 68.9152 55.4535 69.1453 55.4498C69.3131 55.4377 69.5492 55.5179 69.8537 55.6904C70.6556 56.1449 70.9702 56.5243 70.7977 56.8288Z" fill="white"/>
</svg>
