<svg width="88" height="56" viewBox="0 0 88 56" fill="none" xmlns="http://www.w3.org/2000/svg">
<path d="M55.4486 40.1744C53.306 40.2553 62.8272 45.0417 64.5019 45.8879C67.0937 47.1976 85.3619 51.995 87.0472 50.9206" stroke="white" stroke-miterlimit="1.5" stroke-linecap="round" stroke-linejoin="round"/>
<path d="M86.9645 50.9564C87.5536 50.2398 74.1031 56.0135 73.2515 54.5608" stroke="white" stroke-miterlimit="1.5" stroke-linecap="round" stroke-linejoin="round"/>
<path d="M86.88 51.0155C87.5444 50.9431 84.3915 48.3486 84.052 48C81.7845 45.6744 79.4051 43.5555 77.7205 40.6824" stroke="white" stroke-miterlimit="1.5" stroke-linecap="round" stroke-linejoin="round"/>
<path d="M27.1499 20.4551C27.5469 23.4304 26.7567 25.1551 24.7794 25.6291C23.7091 25.8784 22.7167 25.7998 21.8022 25.393L21.7101 25.5121L21.9171 26.1991C22.1046 26.8615 22.3068 27.3306 22.524 27.6064C22.5452 27.6365 22.642 27.7353 22.8143 27.9027C22.9832 28.059 23.0744 28.1594 23.0879 28.2041C23.1283 28.3381 23.115 28.4762 23.0482 28.6182C22.9847 28.7713 22.8803 28.8698 22.7351 28.9136C22.4 29.0145 22.1317 28.9735 21.9304 28.7905C21.7905 28.6499 21.6539 28.3986 21.5204 28.0367C21.3153 27.4771 21.1252 26.9069 20.9501 26.326C20.8491 25.9909 20.72 25.4815 20.5627 24.7978C20.4166 24.1107 20.2858 23.5958 20.1703 23.2528C20.0626 22.8954 19.934 22.3675 19.7845 21.6693C19.6316 20.9599 19.5047 20.4376 19.4037 20.1025L18.9241 18.5107C18.9005 18.4325 18.8411 18.3164 18.746 18.1623C18.662 18.0048 18.6082 17.887 18.5846 17.8088C18.5207 17.5966 18.6339 17.4467 18.9243 17.3592C19.1142 17.3019 19.2959 17.3386 19.4692 17.4691C19.6538 17.5963 19.7747 17.7548 19.8319 17.9447C19.8756 18.0899 19.9044 18.3067 19.9182 18.595C19.9431 18.8799 19.9774 19.095 20.0212 19.2402L20.1692 19.6708C20.2915 19.1466 20.4138 18.6223 20.5361 18.0981C20.8868 17.0785 21.5593 16.4189 22.5535 16.1194C23.6258 15.7962 24.5687 15.9934 25.3819 16.7109C26.0475 17.3024 26.5487 18.1566 26.8853 19.2737C27.0031 19.6647 27.0913 20.0585 27.1499 20.4551ZM26.1248 19.7222C25.8623 18.8509 25.4809 18.1311 24.9807 17.563C24.3305 16.8206 23.6257 16.5639 22.8661 16.7928C21.8831 17.089 21.2478 17.9933 20.9602 19.5056C20.7159 20.7976 20.7571 21.9855 21.0836 23.069L21.3512 23.9571C21.4461 23.8675 21.5214 23.8144 21.5773 23.7975C21.6555 23.774 21.7393 23.8096 21.8288 23.9045C21.9295 23.996 22.0072 24.0518 22.062 24.0718C22.061 24.1087 22.0476 24.1249 22.0219 24.1205C21.9961 24.1161 21.9883 24.1306 21.9984 24.1641C22.0153 24.22 22.0902 24.307 22.2234 24.4253C22.861 24.9643 23.6322 25.0974 24.537 24.8248C25.386 24.569 25.9385 24.0978 26.1947 23.4114C26.3941 22.9005 26.4524 22.164 26.3697 21.2019C26.3007 20.5282 26.2191 20.0349 26.1248 19.7222Z" fill="white"/>
<path d="M31.9824 19.401C31.9959 19.4456 32.0189 19.5423 32.0515 19.6909C31.9736 19.958 31.8676 20.1118 31.7336 20.1522C31.6442 20.1791 31.5492 20.1468 31.4485 20.0553C31.2029 19.3617 30.8065 19.0973 30.2591 19.2623C29.9017 19.37 29.7484 20.1351 29.7993 21.5575C29.81 22.0783 29.9365 22.7408 30.1789 23.5451C30.4886 24.5727 30.7067 25.1955 30.8332 25.4132C30.8545 25.4434 30.9043 25.5076 30.9826 25.6058C31.0576 25.6929 31.1035 25.7643 31.1203 25.8202C31.1944 26.0659 31.0639 26.2393 30.7288 26.3403C30.349 26.4547 30.1002 26.3165 29.9823 25.9255C29.9655 25.8696 29.9531 25.7881 29.9452 25.6808C29.945 25.559 29.9365 25.4702 29.9197 25.4143C29.7346 24.8 29.4289 23.8868 29.0028 22.6749C28.5767 21.4629 28.2711 20.5498 28.0859 19.9354C28.0186 19.712 28.0173 19.5662 28.082 19.4979C28.1434 19.4185 28.2858 19.3451 28.5092 19.2778C28.7885 19.1937 28.9807 19.2454 29.086 19.433C29.1645 19.6531 29.2413 19.8675 29.3164 20.0764C29.4722 19.542 29.564 19.2402 29.5919 19.1709C29.7535 18.8176 29.9683 18.6005 30.2364 18.5197C30.4375 18.4592 30.6571 18.46 30.8952 18.5223C31.0271 18.5557 31.2301 18.6834 31.5041 18.9054C31.7893 19.1241 31.9488 19.2893 31.9824 19.401Z" fill="white"/>
<path d="M38.2649 20.4139C38.5544 21.3746 38.5946 22.2763 38.3856 23.1191C38.1421 24.1307 37.5735 24.7712 36.6799 25.0405C35.775 25.3131 34.9932 25.1649 34.3343 24.5958C33.7907 24.126 33.3741 23.4108 33.0846 22.4501C32.7985 21.5006 32.7297 20.5039 32.8781 19.46C33.0743 18.1703 33.5857 17.4008 34.4124 17.1517C34.6246 17.0878 34.9632 17.1198 35.4282 17.2477C36.7942 17.6159 37.7398 18.6713 38.2649 20.4139ZM37.4556 20.6395C37.2401 19.9246 36.9516 19.3109 36.5901 18.7984C36.0718 18.0895 35.5223 17.8225 34.9414 17.9976C34.2712 18.1995 33.8791 18.799 33.7652 19.7959C33.6801 20.5648 33.7554 21.3402 33.991 22.1222C34.2031 22.8259 34.482 23.3876 34.8278 23.8074C35.3169 24.3789 35.8686 24.5721 36.4829 24.387C37.1532 24.185 37.547 23.6521 37.6644 22.7881C37.7541 22.1153 37.6845 21.3991 37.4556 20.6395Z" fill="white"/>
<path d="M43.8723 18.2673C44.1651 19.2391 44.2768 20.0949 44.2073 20.8348C44.1147 21.8619 43.6495 22.5016 42.8117 22.7541C42.5995 22.818 42.2961 22.8424 41.9016 22.8273C41.5921 22.8109 41.2825 22.7945 40.973 22.7781C40.9708 22.8519 40.9815 22.9278 41.0051 23.006C41.0219 23.0619 41.0511 23.1384 41.0925 23.2356C41.1374 23.3439 41.1682 23.426 41.185 23.4819C41.2355 23.6494 41.1658 23.7618 40.9759 23.819C40.786 23.8763 40.6061 23.8452 40.4361 23.7258C40.3343 23.6712 40.1736 23.3602 39.9539 22.7928C39.7823 22.3449 39.6579 21.9925 39.5805 21.7355L39.5502 21.635L37.0511 12.1894L37.2857 12.1187C37.4421 12.0715 37.6125 12.1116 37.7971 12.2387C37.9894 12.3514 38.1108 12.4914 38.1613 12.659C38.2859 13.0723 38.4151 13.7035 38.5492 14.5526C38.6944 15.3984 38.8292 16.0279 38.9538 16.4412C38.9672 16.4859 39.0312 16.6981 39.1456 17.0779C39.2249 17.0175 39.2979 16.8554 39.3646 16.5916C39.448 16.2618 39.5343 16.0226 39.6236 15.8738C39.7864 15.6054 40.0298 15.4224 40.3537 15.3248C40.9011 15.1599 41.4655 15.2335 42.0469 15.5457C42.5703 15.8266 42.9848 16.2318 43.2905 16.7611C43.4831 17.1173 43.6771 17.6194 43.8723 18.2673ZM43.0145 18.6354C42.8058 17.9428 42.5531 17.3671 42.2565 16.9082C41.8086 16.1902 41.3333 15.9069 40.8306 16.0584C40.2163 16.2435 39.8667 16.8424 39.7819 17.8549C39.718 18.654 39.7955 19.4165 40.0143 20.1426C40.2095 20.7905 40.4879 21.3098 40.8493 21.7005C41.3137 22.2307 41.8307 22.41 42.4004 22.2383C42.9701 22.0666 43.2734 21.5366 43.3103 20.6482C43.3286 20.0212 43.23 19.3503 43.0145 18.6354Z" fill="white"/>
<path d="M50.2437 18.5954C50.3918 19.0869 50.1953 19.6275 49.654 20.217C49.1697 20.7529 48.665 21.0999 48.14 21.2581C46.6431 21.7092 45.6086 20.9852 45.0364 19.0862C44.7839 18.2484 44.6637 17.3038 44.6759 16.2522C44.701 14.8799 45.0263 14.0996 45.6519 13.9111C46.1881 13.7495 46.857 13.8464 47.6587 14.2019C48.457 14.5463 48.9369 14.9865 49.0985 15.5227C49.3072 16.2153 49.2097 16.9026 48.806 17.5848C48.4023 18.2669 47.8486 18.714 47.1448 18.9261C47.0778 18.9463 46.9158 18.9342 46.6587 18.8898C46.4128 18.8421 46.2507 18.83 46.1725 18.8535C46.0273 18.8973 45.9682 18.9638 45.9951 19.0532C46.3822 20.3378 47.0002 20.8522 47.8492 20.5964C48.2849 20.4651 48.6432 20.1987 48.9243 19.7972C49.0973 19.5623 49.2639 19.2258 49.4243 18.7875C49.5524 18.4443 49.6499 18.2626 49.717 18.2424C49.9739 18.165 50.1495 18.2827 50.2437 18.5954ZM48.1585 15.8608C48.0407 15.4698 47.8196 15.1404 47.4952 14.8726C47.1675 14.5936 46.8193 14.5097 46.4506 14.6208C46.0038 14.7554 45.7249 15.1441 45.614 15.7868C45.5208 16.3266 45.5499 16.8479 45.7014 17.3506C45.799 17.6745 45.982 17.9179 46.2504 18.0807C46.5266 18.229 46.8266 18.2543 47.1506 18.1567C47.6086 18.0187 47.9295 17.7088 48.1133 17.2269C48.2848 16.7853 48.2999 16.3299 48.1585 15.8608Z" fill="white"/>
<path d="M55.9119 16.8874C56.06 17.3789 55.8634 17.9194 55.3222 18.509C54.8378 19.0449 54.3332 19.3919 53.8082 19.5501C52.3113 20.0012 51.2768 19.2772 50.7045 17.3782C50.4521 16.5404 50.3319 15.5957 50.344 14.5442C50.3692 13.1719 50.6945 12.3915 51.3201 12.203C51.8562 12.0415 52.5252 12.1384 53.3268 12.4939C54.1251 12.8382 54.6051 13.2785 54.7666 13.8147C54.9753 14.5072 54.8778 15.1946 54.4741 15.8767C54.0705 16.5589 53.5167 17.006 52.813 17.2181C52.746 17.2383 52.5839 17.2262 52.3269 17.1818C52.081 17.134 51.9189 17.1219 51.8407 17.1455C51.6955 17.1893 51.6364 17.2558 51.6633 17.3452C52.0504 18.6298 52.6684 19.1442 53.5174 18.8884C53.953 18.7571 54.3114 18.4907 54.5925 18.0892C54.7654 17.8543 54.9321 17.5177 55.0925 17.0795C55.2205 16.7363 55.3181 16.5546 55.3851 16.5344C55.642 16.457 55.8176 16.5746 55.9119 16.8874ZM53.8267 14.1527C53.7089 13.7618 53.4878 13.4324 53.1634 13.1646C52.8356 12.8856 52.4874 12.8017 52.1188 12.9128C51.672 13.0474 51.3931 13.4361 51.2821 14.0787C51.1889 14.6186 51.2181 15.1399 51.3695 15.6425C51.4672 15.9665 51.6502 16.2099 51.9185 16.3727C52.1947 16.521 52.4948 16.5463 52.8188 16.4487C53.2768 16.3107 53.5976 16.0007 53.7814 15.5189C53.953 15.0773 53.9681 14.6219 53.8267 14.1527Z" fill="white"/>
<path d="M59.0928 11.2316C59.1062 11.2763 59.1293 11.3729 59.1618 11.5215C59.0839 11.7887 58.978 11.9425 58.8439 11.9829C58.7546 12.0098 58.6595 11.9775 58.5589 11.886C58.3133 11.1924 57.9168 10.928 57.3695 11.0929C57.012 11.2007 56.8587 11.9657 56.9096 13.3882C56.9203 13.9089 57.0469 14.5714 57.2892 15.3757C57.5989 16.4034 57.817 17.0261 57.9436 17.2439C57.9648 17.274 58.0146 17.3382 58.093 17.4365C58.1679 17.5235 58.2138 17.595 58.2307 17.6508C58.3047 17.8966 58.1742 18.07 57.8391 18.1709C57.4593 18.2854 57.2105 18.1471 57.0927 17.7562C57.0758 17.7003 57.0634 17.6188 57.0555 17.5115C57.0553 17.3897 57.0469 17.3009 57.03 17.245C56.8449 16.6306 56.5393 15.7175 56.1131 14.5055C55.687 13.2936 55.3814 12.3805 55.1963 11.7661C55.1289 11.5427 55.1276 11.3968 55.1924 11.3286C55.2537 11.2492 55.3961 11.1758 55.6195 11.1085C55.8988 11.0243 56.0911 11.0761 56.1963 11.2637C56.2748 11.4837 56.3516 11.6982 56.4268 11.9071C56.5825 11.3727 56.6744 11.0709 56.7022 11.0016C56.8638 10.6483 57.0787 10.4312 57.3468 10.3504C57.5478 10.2898 57.7674 10.2907 58.0055 10.353C58.1374 10.3863 58.3404 10.514 58.6144 10.7361C58.8997 10.9547 59.0591 11.1199 59.0928 11.2316Z" fill="white"/>
<path d="M12.9415 33.6716C12.8031 33.8595 12.7301 33.9607 12.7223 33.9752C12.6676 34.077 12.6365 34.196 12.6288 34.3324C12.5749 35.0431 12.9582 36.8407 13.7786 39.725C14.2077 39.6932 14.4491 39.7666 14.503 39.9453C14.5366 40.057 14.5251 40.2007 14.4683 40.3762C14.3701 40.4545 14.2283 40.5703 14.043 40.7237C14.1911 41.2152 14.4641 41.9188 14.8619 42.8347C14.8899 42.8872 14.9962 43.0379 15.1809 43.2868C15.3264 43.4867 15.4127 43.6313 15.4396 43.7207C15.48 43.8547 15.4701 44.0039 15.41 44.1682C15.3498 44.3326 15.2527 44.435 15.1187 44.4753C14.8171 44.5662 14.5431 44.4051 14.2967 43.9919C14.2687 43.9394 14.118 43.601 13.8446 42.9767C13.5678 42.3412 13.4008 41.9285 13.3436 41.7386C13.283 41.5375 13.2425 41.3426 13.2222 41.1538C12.533 41.3736 11.7461 41.7143 10.8617 42.1758C10.1045 42.5745 9.34905 42.9789 8.59526 43.3888L8.38454 43.7813C8.52362 44.2024 8.6588 44.6308 8.79008 45.0664C9.03336 45.712 9.26739 46.1045 9.49217 46.2439C9.49125 46.4026 9.44052 46.4971 9.33999 46.5274C9.25062 46.5543 9.14565 46.6103 9.02507 46.6954C8.91902 46.7883 8.83249 46.8448 8.76547 46.865C8.55323 46.929 8.29295 46.5505 7.98464 45.7295C7.8041 45.2112 7.62913 44.6913 7.45976 44.1696L7.29197 44.0374C7.25066 44.062 7.23 44.0743 7.23 44.0743C7.08478 44.1181 6.93896 44.1194 6.79252 44.0782C6.64271 44.0259 6.54762 43.9327 6.50722 43.7987C6.48029 43.7093 6.49353 43.5713 6.54694 43.3846C6.59699 43.1867 6.67228 43.0727 6.77281 43.0424C6.79515 43.0356 6.82476 43.0328 6.86164 43.0339C6.90969 43.0316 6.94488 43.0271 6.96722 43.0203C6.96722 43.0203 6.99347 43.0063 7.04595 42.9783C6.90902 42.4835 6.61838 41.4988 6.17406 40.0243C5.585 38.0694 5.31848 36.6997 5.37451 35.9152C5.4065 35.5766 5.56213 35.3652 5.84139 35.281C6.02012 35.2272 6.21177 35.2364 6.41636 35.3088C6.61758 35.37 6.74512 35.49 6.79897 35.6687C6.81917 35.7358 6.81434 35.9017 6.7845 36.1666C6.75694 36.4795 6.74431 36.66 6.74661 36.7081C6.76815 37.8713 7.10543 39.5365 7.75845 41.7036C7.90992 42.2062 8.08061 42.429 8.27051 42.3717C8.32636 42.3549 8.60555 42.2098 9.10807 41.9366C10.2472 41.3496 11.0178 40.9956 11.4199 40.8744C11.5205 40.8441 11.6796 40.7657 11.8974 40.6391C12.1229 40.498 12.3474 40.3939 12.5708 40.3265C12.8054 40.2558 12.87 40.0658 12.7645 39.7564L12.2867 38.292C11.9782 37.3492 11.7368 36.3863 11.5624 35.4031C11.2789 33.8558 11.355 33.0164 11.7906 32.8852C12.014 32.8178 12.2505 32.8745 12.4999 33.0553C12.709 33.2238 12.8562 33.4292 12.9415 33.6716Z" fill="white"/>
<path d="M22.2424 42.9501C22.2896 43.1065 22.1902 43.2217 21.9445 43.2958C21.6764 43.3766 21.4808 43.3137 21.3576 43.1071C21.3363 43.077 21.2651 42.8608 21.1439 42.4587C21.1103 42.347 21.0666 42.2627 21.0129 42.2057C20.5253 42.8522 19.9185 43.2849 19.1924 43.5037C18.6898 43.6551 18.1618 43.6619 17.6084 43.524C16.978 43.3728 16.5921 43.0627 16.4507 42.5935C16.3127 42.1355 16.4964 41.5927 17.0019 40.9652C17.4616 40.3881 17.9372 40.0254 18.4287 39.8773L20.0875 39.3774C20.1343 39.2902 20.1325 39.1628 20.082 38.9953C19.8565 38.2468 19.625 37.7013 19.3877 37.3585C18.9948 36.7824 18.5023 36.5835 17.9103 36.7619C17.4858 36.8898 17.1756 37.2757 16.9797 37.9196C16.8039 38.5087 16.7833 39.0267 16.9179 39.4735C16.9246 39.4959 16.9347 39.5294 16.9482 39.5741C16.9617 39.6187 16.9701 39.6467 16.9735 39.6578C17.0004 39.7472 16.9692 39.8053 16.8798 39.8323C16.7681 39.8659 16.625 39.8359 16.4506 39.7423C16.2761 39.6486 16.1738 39.5515 16.1435 39.451C16.0492 39.1382 16.0264 38.7186 16.0749 38.1923C16.1201 37.6547 16.2173 37.2294 16.3667 36.9163C16.555 36.5306 16.8559 36.2754 17.2692 36.1509C17.9059 35.959 18.553 35.9833 19.2103 36.2239C19.9113 36.4879 20.3599 36.9254 20.5562 37.5364L22.2424 42.9501ZM20.5516 40.5536C20.4169 40.1067 20.0033 39.9877 19.3107 40.1964C18.7634 40.3613 18.3117 40.601 17.9556 40.9155C17.5046 41.3194 17.3532 41.7671 17.5013 42.2586C17.5922 42.5602 17.8025 42.7528 18.1323 42.8362C18.4106 42.9107 18.7117 42.8991 19.0357 42.8015C19.516 42.6568 19.9213 42.3641 20.2515 41.9234C20.5929 41.4793 20.6929 41.0227 20.5516 40.5536Z" fill="white"/>
<path d="M24.4756 41.5644C24.5631 41.8548 24.4505 42.0471 24.1377 42.1414C23.6462 42.2895 23.1014 41.3509 22.5033 39.3257L20.2866 31.7872C20.2495 31.6643 20.1806 31.4962 20.0798 31.2829C19.9756 31.0585 19.9066 30.8904 19.873 30.7787C20.0381 30.5583 20.1933 30.4263 20.3385 30.3825C20.4949 30.3354 20.6681 30.3441 20.8581 30.4087C21.0482 30.4733 21.1668 30.5837 21.2139 30.7401C21.2475 30.8518 21.2634 31.0055 21.2614 31.201C21.2617 31.4446 21.2647 31.5961 21.2703 31.6553C21.3652 32.4553 21.6179 33.5367 22.0286 34.8995C22.6917 37.1 23.0059 38.1629 22.9712 38.0881C23.4187 39.452 23.8194 40.4583 24.1733 41.1071C24.1834 41.1406 24.2293 41.2121 24.3111 41.3215C24.4006 41.4164 24.4554 41.4973 24.4756 41.5644Z" fill="white"/>
<path d="M26.7423 35.3068C26.6732 35.4007 26.4778 35.5205 26.1561 35.6662C25.801 35.8219 25.6005 35.925 25.5547 35.9753C25.5806 36.1016 25.7618 36.7232 26.0984 37.8403C26.361 38.7116 26.5489 39.2947 26.6621 39.5895C26.6991 39.7124 26.786 39.8995 26.9226 40.1507C27.0592 40.402 27.1494 40.6002 27.1932 40.7455C27.2201 40.8348 27.1912 40.941 27.1064 41.064C27.0217 41.1871 26.9346 41.2621 26.8452 41.289C26.6218 41.3563 26.3741 41.1812 26.102 40.7636C25.9117 40.4554 25.7711 40.1505 25.6802 39.8489C25.2056 38.2738 24.8667 37.1087 24.6635 36.3536C24.5796 36.3179 24.3227 36.3953 23.8927 36.5858C23.5487 36.7382 23.3313 36.6636 23.2404 36.362C23.1125 35.9375 23.506 35.6057 24.4209 35.3666L23.7248 32.2682C23.7147 32.2346 23.6828 32.1894 23.6291 32.1325C23.5832 32.061 23.5552 32.0086 23.5451 31.975C23.5249 31.908 23.5511 31.8331 23.6236 31.7503C23.6928 31.6564 23.7905 31.5965 23.9167 31.5706C24.3178 31.4863 24.5722 31.6229 24.6799 31.9804C24.7641 32.2596 24.8512 32.6903 24.9413 33.2724C25.0314 33.8545 25.1168 34.2796 25.1976 34.5477C25.238 34.6817 25.2879 34.8068 25.3473 34.9229L26.2537 34.595C26.5665 34.5007 26.7599 34.5765 26.8339 34.8222C26.8878 35.001 26.8573 35.1625 26.7423 35.3068Z" fill="white"/>
<path d="M33.1807 37.3145C33.3288 37.8061 33.1322 38.3466 32.591 38.9362C32.1066 39.472 31.602 39.819 31.077 39.9772C29.5801 40.4283 28.5456 39.7043 27.9733 37.8053C27.7209 36.9676 27.6007 36.0229 27.6128 34.9713C27.638 33.5991 27.9633 32.8187 28.5889 32.6302C29.125 32.4686 29.794 32.5656 30.5956 32.9211C31.3939 33.2654 31.8738 33.7056 32.0354 34.2418C32.2441 34.9344 32.1466 35.6217 31.7429 36.3039C31.3392 36.986 30.7855 37.4331 30.0818 37.6452C30.0148 37.6654 29.8527 37.6533 29.5956 37.6089C29.3497 37.5612 29.1877 37.5491 29.1095 37.5726C28.9643 37.6164 28.9051 37.683 28.9321 37.7723C29.3192 39.0569 29.9372 39.5713 30.7862 39.3155C31.2218 39.1842 31.5802 38.9178 31.8613 38.5163C32.0342 38.2814 32.2009 37.9449 32.3612 37.5066C32.4893 37.1634 32.5869 36.9817 32.6539 36.9615C32.9108 36.8841 33.0864 37.0018 33.1807 37.3145ZM31.0955 34.5799C30.9777 34.1889 30.7566 33.8595 30.4322 33.5917C30.1044 33.3128 29.7562 33.2288 29.3876 33.3399C28.9408 33.4745 28.6619 33.8632 28.5509 34.5059C28.4577 35.0457 28.4869 35.567 28.6383 36.0697C28.7359 36.3936 28.9189 36.637 29.1873 36.7998C29.4635 36.9481 29.7636 36.9734 30.0875 36.8758C30.5455 36.7378 30.8664 36.4279 31.0502 35.946C31.2218 35.5044 31.2369 35.049 31.0955 34.5799Z" fill="white"/>
<path d="M38.211 33.5506C38.5039 34.5224 38.6156 35.3783 38.5461 36.1181C38.4535 37.1452 37.9883 37.785 37.1505 38.0374C36.9382 38.1014 36.6349 38.1258 36.2404 38.1106C35.9308 38.0942 35.6213 38.0778 35.3117 38.0615C35.3096 38.1352 35.3203 38.2112 35.3438 38.2894C35.3607 38.3452 35.3898 38.4217 35.4313 38.5189C35.4761 38.6273 35.507 38.7093 35.5238 38.7652C35.5743 38.9328 35.5046 39.0451 35.3147 39.1024C35.1248 39.1596 34.9448 39.1285 34.7748 39.0092C34.6731 38.9545 34.5123 38.6435 34.2926 38.0761C34.1211 37.6282 33.9966 37.2758 33.9192 37.0189L33.8889 36.9184L31.3898 27.4727L31.6244 27.402C31.7808 27.3549 31.9513 27.3949 32.1358 27.5221C32.3282 27.6347 32.4496 27.7748 32.5001 27.9423C32.6246 28.3557 32.7539 28.9869 32.8879 29.836C33.0331 30.6817 33.168 31.3112 33.2925 31.7246C33.306 31.7692 33.3699 31.9815 33.4844 32.3613C33.5636 32.3008 33.6366 32.1387 33.7034 31.8749C33.7868 31.5452 33.8731 31.3059 33.9623 31.1572C34.1251 30.8888 34.3685 30.7058 34.6924 30.6082C35.2398 30.4432 35.8042 30.5168 36.3857 30.829C36.909 31.11 37.3235 31.5151 37.6292 32.0444C37.8219 32.4007 38.0158 32.9027 38.211 33.5506ZM37.3533 33.9187C37.1446 33.2262 36.8919 32.6504 36.5952 32.1915C36.1473 31.4735 35.6721 31.1903 35.1694 31.3418C34.555 31.5269 34.2054 32.1257 34.1206 33.1382C34.0568 33.9373 34.1343 34.6999 34.3531 35.426C34.5483 36.0739 34.8266 36.5931 35.188 36.9838C35.6524 37.514 36.1695 37.6933 36.7392 37.5216C37.3089 37.35 37.6122 36.8199 37.6491 35.9315C37.6673 35.3046 37.5687 34.6337 37.3533 33.9187Z" fill="white"/>
<path d="M43.3385 29.2274C43.4428 29.5737 43.5602 30.1049 43.6907 30.821C43.8291 31.5226 43.9739 32.1247 44.1254 32.6274C44.186 32.8285 44.3189 33.2088 44.5241 33.7684C44.7371 34.3135 44.8806 34.7089 44.9546 34.9546C45.1027 35.4461 45.1361 35.759 45.0547 35.8932C45.0011 35.9581 44.9129 36.009 44.79 36.046C44.5443 36.1201 44.3447 36.0645 44.1914 35.8792C44.0828 35.6804 43.9758 35.4872 43.8706 35.2996C43.6914 35.8775 43.2293 36.3458 42.4844 36.7043C42.2074 36.8365 41.8336 36.809 41.3629 36.6218C40.9358 36.4581 40.6261 36.259 40.4336 36.0246C40.1661 35.7031 39.8742 35.0173 39.5577 33.9673L38.4621 30.3313C38.2941 30.0163 38.4335 29.7916 38.8803 29.6569C39.1931 29.5627 39.4033 29.6943 39.511 30.0517C39.6726 30.5879 39.8662 31.2911 40.0919 32.1614C40.3883 33.2662 40.5819 33.9694 40.6728 34.271C40.7828 34.6765 40.9933 35.0517 41.3044 35.3966C41.6726 35.8096 42.0298 35.9639 42.3761 35.8596C42.9458 35.6879 43.2726 35.1752 43.3564 34.3213C43.4082 33.6843 43.3314 33.0251 43.1261 32.3437L42.4646 30.1487C42.4377 30.0593 42.3672 29.9465 42.253 29.8104C42.1467 29.6596 42.0783 29.534 42.048 29.4335C42.0312 29.3776 42.0183 29.3145 42.0093 29.2441C42.1219 29.0518 42.2547 28.9264 42.4077 28.8681C42.8969 28.672 43.2072 28.7917 43.3385 29.2274Z" fill="white"/>
<path d="M48.0904 23.0251C48.1678 23.282 48.2336 23.6216 48.2878 24.044C48.3678 24.5925 48.4168 24.9372 48.4349 25.078C48.5057 25.4344 48.7966 26.6018 49.3074 28.5802C49.779 30.3877 50.0434 31.3864 50.1006 31.5762C50.4608 32.7715 50.821 33.5829 51.1814 34.0104C51.1402 34.1569 51.0582 34.2486 50.9353 34.2856C50.8236 34.3193 50.6783 34.3022 50.4994 34.2342C50.3317 34.1629 50.2143 34.0764 50.1471 33.9748C50.0798 33.7514 49.9436 33.4208 49.7386 32.983C49.332 34.0194 48.8271 34.6285 48.2239 34.8103C47.4978 35.029 46.8568 34.9237 46.3009 34.4941C45.8244 34.126 45.47 33.5565 45.2378 32.7857C44.955 31.8474 44.8353 30.8234 44.8786 29.7137C44.9283 28.2609 45.3217 27.4235 46.059 27.2013C46.3717 27.107 46.7254 27.1284 47.1201 27.2654C47.2006 27.2899 47.5338 27.4453 48.1197 27.7318C48.0025 26.9385 47.5568 25.2573 46.7826 22.6881C46.8372 22.5863 46.9315 22.5153 47.0656 22.4749C47.2778 22.4109 47.4857 22.4336 47.6892 22.5428C47.8927 22.6521 48.0265 22.8128 48.0904 23.0251ZM48.6969 29.5866C48.5488 29.0951 48.3041 28.6876 47.9629 28.3639C47.5534 27.9755 47.1197 27.8504 46.6617 27.9884C46.1032 28.1567 45.828 28.861 45.8362 30.1014C45.8273 31.0423 45.9373 31.8926 46.1662 32.6522C46.3143 33.1437 46.5204 33.5446 46.7845 33.8549C47.1381 34.2601 47.5272 34.3988 47.9517 34.2709C48.6442 34.0622 49.0077 33.3678 49.042 32.1877C49.0778 31.3361 48.9628 30.4691 48.6969 29.5866Z" fill="white"/>
<path d="M54.2429 21.1711C54.3204 21.428 54.3861 21.7677 54.4403 22.19C54.5203 22.7386 54.5693 23.0832 54.5874 23.224C54.6582 23.5804 54.9491 24.7478 55.46 26.7262C55.9315 28.5337 56.1959 29.5324 56.2531 29.7223C56.6133 30.9175 56.9736 31.7289 57.3339 32.1565C57.2927 32.3029 57.2107 32.3946 57.0878 32.4317C56.9761 32.4653 56.8308 32.4482 56.652 32.3802C56.4843 32.3089 56.3668 32.2225 56.2996 32.1209C56.2323 31.8974 56.0961 31.5668 55.8911 31.129C55.4845 32.1654 54.9796 32.7745 54.3764 32.9563C53.6503 33.1751 53.0093 33.0697 52.4534 32.6402C51.9769 32.272 51.6225 31.7025 51.3903 30.9317C51.1075 29.9934 50.9878 28.9694 51.0312 27.8597C51.0808 26.4069 51.4742 25.5695 52.2115 25.3473C52.5243 25.2531 52.878 25.2744 53.2726 25.4114C53.3531 25.4359 53.6863 25.5914 54.2722 25.8778C54.155 25.0846 53.7093 23.4033 52.9351 20.8341C52.9897 20.7324 53.0841 20.6613 53.2181 20.6209C53.4303 20.5569 53.6382 20.5796 53.8417 20.6888C54.0453 20.7981 54.179 20.9589 54.2429 21.1711ZM54.8494 27.7327C54.7013 27.2412 54.4566 26.8336 54.1154 26.5099C53.7059 26.1216 53.2722 25.9964 52.8142 26.1344C52.2557 26.3027 51.9805 27.007 51.9887 28.2474C51.9798 29.1883 52.0898 30.0386 52.3187 30.7982C52.4668 31.2897 52.6729 31.6906 52.937 32.0009C53.2907 32.4061 53.6797 32.5448 54.1042 32.4169C54.7968 32.2082 55.1602 31.5138 55.1945 30.3337C55.2303 29.4822 55.1153 28.6151 54.8494 27.7327Z" fill="white"/>
<path d="M61.2669 23.4959C61.3256 24.0143 61.3899 24.5311 61.4598 25.0462C61.5175 25.6015 61.6154 26.1081 61.7534 26.5661L63.317 31.8157C63.5425 32.5641 63.4919 33.2252 63.1652 33.7989C62.853 34.3803 62.3171 34.7855 61.5575 35.0144C61.1442 35.1389 60.647 35.1669 60.0658 35.0983C59.3997 35.031 58.8995 34.8467 58.565 34.5454C58.4788 34.4617 58.4206 34.3695 58.3903 34.269C58.2927 33.9451 58.4003 33.736 58.713 33.6417C58.7801 33.6215 58.8594 33.622 58.9511 33.6431C59.2015 33.7869 59.4503 33.9252 59.6975 34.0579C60.1816 34.2897 60.7141 34.3181 61.295 34.1431C62.0322 33.9209 62.4463 33.5159 62.5372 32.928C62.5848 32.5603 62.4807 31.952 62.2249 31.103C62.1912 30.9913 62.1016 30.7746 61.9559 30.453C61.8271 30.1872 61.7419 29.9448 61.7002 29.7258C61.475 30.1105 61.3071 30.3621 61.1966 30.4807C60.998 30.7112 60.7535 30.8701 60.463 30.9577C59.7034 31.1865 59.039 31.0639 58.4696 30.5897C57.9685 30.1802 57.5984 29.5789 57.3594 28.7858C56.905 27.2777 56.5436 25.9976 56.2752 24.9452C56.2122 24.5743 56.3538 24.3367 56.7001 24.2323C57.1246 24.1044 57.3364 24.1198 57.3355 24.2785C57.2983 24.9233 57.5843 26.2567 58.1935 28.2785C58.6648 29.8424 59.3472 30.4897 60.2409 30.2204C60.7882 30.0555 61.0977 29.5053 61.1692 28.5699C61.2197 27.8479 61.14 27.1591 60.9303 26.5034L60.3379 24.5983C60.2919 24.4051 60.2307 24.1615 60.1543 23.8677C60.0891 23.5706 60.2331 23.381 60.5861 23.299C60.9983 23.2113 61.2252 23.2769 61.2669 23.4959Z" fill="white"/>
<path d="M70.5012 21.0423C70.6055 21.3886 70.7229 21.9198 70.8534 22.6359C70.9918 23.3375 71.1366 23.9396 71.2881 24.4423C71.3487 24.6434 71.4816 25.0237 71.6868 25.5833C71.8998 26.1284 72.0433 26.5238 72.1173 26.7695C72.2654 27.261 72.2988 27.5739 72.2174 27.7081C72.1638 27.773 72.0756 27.8239 71.9527 27.8609C71.707 27.935 71.5074 27.8794 71.3541 27.6941C71.2455 27.4953 71.1385 27.3021 71.0333 27.1145C70.8541 27.6924 70.392 28.1607 69.6471 28.5192C69.3701 28.6514 68.9963 28.6239 68.5256 28.4367C68.0985 28.273 67.7888 28.0739 67.5963 27.8395C67.3288 27.518 67.0369 26.8322 66.7204 25.7822L65.6248 22.1462C65.4568 21.8312 65.5962 21.6065 66.043 21.4718C66.3558 21.3776 66.566 21.5092 66.6737 21.8666C66.8353 22.4028 67.0289 23.106 67.2546 23.9762C67.551 25.0811 67.7446 25.7843 67.8355 26.0859C67.9455 26.4914 68.156 26.8666 68.4671 27.2115C68.8353 27.6245 69.1925 27.7788 69.5388 27.6745C70.1085 27.5028 70.4353 26.9901 70.5191 26.1362C70.5709 25.4992 70.4941 24.84 70.2888 24.1586L69.6273 21.9636C69.6004 21.8742 69.5299 21.7614 69.4157 21.6252C69.3094 21.4745 69.241 21.3489 69.2107 21.2484C69.1939 21.1925 69.181 21.1294 69.172 21.059C69.2846 20.8666 69.4174 20.7413 69.5704 20.683C70.0596 20.4869 70.3699 20.6066 70.5012 21.0423Z" fill="white"/>
<path d="M72.3467 17.4338C72.4612 17.8136 72.3397 18.0574 71.9822 18.1651C71.77 18.2291 71.5509 18.2098 71.3251 18.1072C71.0992 18.0047 70.956 17.8529 70.8954 17.6518C70.781 17.272 70.9137 17.0249 71.2934 16.9105C71.5169 16.8431 71.7286 16.8585 71.9288 16.9566C72.1401 17.0513 72.2794 17.2104 72.3467 17.4338ZM72.7858 20.0431C72.8463 20.2442 72.8925 20.5593 72.9244 20.9883C72.9562 21.4174 73.0024 21.7325 73.063 21.9335L74.1788 25.6366C74.2529 25.8823 74.4041 26.2023 74.6326 26.5965C74.6148 26.6993 74.5668 26.7625 74.4886 26.7861C73.9413 26.951 73.5885 26.771 73.4303 26.2459L71.5773 20.0966C71.6989 19.9746 71.8268 19.8934 71.9608 19.8531C72.0949 19.8127 72.2463 19.8097 72.4151 19.8441C72.6285 19.8651 72.7521 19.9314 72.7858 20.0431Z" fill="white"/>
<path d="M77.1406 20.1199C77.0714 20.2139 76.876 20.3337 76.5544 20.4794C76.1992 20.6351 75.9988 20.7382 75.953 20.7885C75.9789 20.9147 76.1601 21.5364 76.4967 22.6534C76.7593 23.5248 76.9471 24.1078 77.0604 24.4027C77.0974 24.5256 77.1842 24.7127 77.3209 24.9639C77.4575 25.2152 77.5477 25.4134 77.5915 25.5586C77.6184 25.648 77.5895 25.7542 77.5047 25.8772C77.4199 26.0002 77.3328 26.0752 77.2435 26.1021C77.0201 26.1695 76.7723 25.9943 76.5003 25.5767C76.3099 25.2685 76.1693 24.9637 76.0784 24.662C75.6038 23.087 75.2649 21.9219 75.0617 21.1667C74.9779 21.1311 74.7209 21.2085 74.291 21.399C73.947 21.5514 73.7295 21.4768 73.6386 21.1752C73.5107 20.7507 73.9042 20.4189 74.8191 20.1798L74.1231 17.0813C74.113 17.0478 74.0811 17.0026 74.0274 16.9457C73.9815 16.8742 73.9535 16.8217 73.9434 16.7882C73.9232 16.7212 73.9493 16.6463 74.0219 16.5635C74.091 16.4696 74.1887 16.4097 74.315 16.3838C74.7161 16.2995 74.9704 16.4361 75.0782 16.7935C75.1623 17.0728 75.2494 17.5035 75.3395 18.0856C75.4297 18.6676 75.5151 19.0927 75.5959 19.3608C75.6363 19.4949 75.6862 19.62 75.7455 19.7361L76.652 19.4081C76.9647 19.3139 77.1582 19.3896 77.2322 19.6354C77.2861 19.8141 77.2555 19.9756 77.1406 20.1199Z" fill="white"/>
<path d="M79.2355 13.3109C79.1954 13.4205 79.157 13.5966 79.1205 13.8391C79.1584 15.5823 79.4109 17.4314 79.8782 19.3864C79.8984 19.4534 79.9187 19.5813 79.939 19.7702C79.9672 19.9444 79.9964 20.0819 80.0267 20.1824C80.0671 20.3164 80.2843 20.714 80.6785 21.375C80.6473 21.4332 80.5893 21.5238 80.5045 21.6468C80.4632 21.6714 80.3811 21.7023 80.2582 21.7393C80.1018 21.7864 79.9722 21.8011 79.8694 21.7833C79.6904 21.5936 79.5133 21.2083 79.3383 20.6274C79.3046 20.5157 79.2878 20.4599 79.2878 20.4599L78.0166 14.4824C78.0032 14.4377 77.9293 14.3138 77.7949 14.1106C77.6572 13.8962 77.5794 13.7795 77.5615 13.7605C77.7511 13.4597 78.0023 13.2622 78.3151 13.1679C78.5943 13.0838 78.9011 13.1314 79.2355 13.3109ZM81.7203 23.4372C81.9525 24.2079 81.6386 24.7229 80.7785 24.9821C80.6221 25.0292 80.2958 25.0179 79.7995 24.9481C79.6597 24.8075 79.5594 24.6366 79.4989 24.4355C79.3979 24.1004 79.4255 23.8484 79.5817 23.6795C79.6889 23.5497 79.91 23.4344 80.2451 23.3334C81.1276 23.0674 81.6193 23.102 81.7203 23.4372Z" fill="white"/>
</svg>
