<svg width="70" height="52" viewBox="0 0 70 52" fill="none" xmlns="http://www.w3.org/2000/svg">
<path d="M32.5986 36.7933C34.7412 36.8742 25.2201 41.6606 23.5453 42.5068C20.9536 43.8165 2.6853 48.6138 1.00005 47.5395" stroke="white" stroke-miterlimit="1.5" stroke-linecap="round" stroke-linejoin="round"/>
<path d="M1.08278 47.5753C0.49361 46.8587 13.9441 52.6324 14.7958 51.1797" stroke="white" stroke-miterlimit="1.5" stroke-linecap="round" stroke-linejoin="round"/>
<path d="M1.16728 47.6344C0.502865 47.562 3.65578 44.9675 3.99528 44.6189C6.2627 42.2933 8.64212 40.1744 10.3268 37.3013" stroke="white" stroke-miterlimit="1.5" stroke-linecap="round" stroke-linejoin="round"/>
<path d="M30.5864 10.6349C30.4327 10.9042 30.2356 11.1083 29.995 11.2473C28.8183 11.9574 27.5221 11.9084 26.1065 11.1004C25.6635 10.8475 25.1529 10.4409 24.5747 9.88059C24.5647 9.89796 24.5505 9.91285 24.5319 9.92526C24.517 9.95132 24.4873 10.0437 24.4427 10.2025C24.3485 10.2869 24.2462 10.3149 24.1358 10.2864L24.0613 10.1748C23.8864 10.098 23.8404 9.9566 23.9234 9.75067C24.056 9.45788 24.1167 9.29102 24.1055 9.2501C24.103 9.21413 24.0434 9.11679 23.9268 8.95808C23.8349 8.83657 23.8187 8.72371 23.8782 8.61949C23.9526 8.48922 24.053 8.45444 24.1796 8.51516C24.3198 8.57215 24.4066 8.58141 24.4401 8.54294C24.4351 8.55162 24.4748 8.48214 24.559 8.3345C24.6433 8.18686 24.7815 7.95485 24.9736 7.63847C25.1744 7.32704 25.3219 7.08883 25.416 6.92381L25.6633 6.46043C25.5156 6.29553 25.4715 6.16097 25.531 6.05676C25.6053 5.92648 25.7498 5.86502 25.9644 5.87236L28.448 1.52126C28.4876 1.45178 28.5849 1.3922 28.74 1.34251C28.9037 1.29778 29.0203 1.29524 29.0897 1.3349C29.2287 1.41421 29.2994 1.47185 29.3019 1.50782C29.3243 1.58968 29.3398 1.67339 29.3486 1.75897C28.7535 2.47866 28.3569 3.0122 28.1586 3.35959C28.1586 3.35959 28.1481 3.38813 28.127 3.44519C29.5851 2.26244 30.9004 2.00567 32.0728 2.6749C32.7502 3.06156 33.1183 3.61705 33.1769 4.34139C33.2355 4.9851 33.0665 5.65435 32.6699 6.34914C32.3725 6.87023 31.9584 7.31323 31.4278 7.67815C30.8128 8.11009 30.2485 8.2716 29.7349 8.1627C30.7933 8.95105 31.0771 9.77512 30.5864 10.6349ZM32.0353 5.9178C32.7789 4.61508 32.6773 3.69355 31.7307 3.15321C31.088 2.78638 30.2614 2.87298 29.2507 3.41302C28.3418 3.89596 27.694 4.47613 27.3073 5.15355L26.653 6.29994C26.6183 6.28011 26.9396 6.46353 27.617 6.85019C28.6158 7.42027 29.4426 7.65616 30.0974 7.55786C30.8341 7.43719 31.4801 6.8905 32.0353 5.9178ZM29.9666 10.1775C30.2392 9.69987 29.9549 9.12882 29.1136 8.4644C28.7749 8.19045 28.1409 7.78826 27.2116 7.25784C26.8468 7.04964 26.541 6.90963 26.2942 6.83781C26.1219 7.11945 25.778 7.71188 25.2624 8.6151C25.1336 8.84091 25.0257 9.04996 24.939 9.24225C25.2171 9.72338 25.6992 10.1597 26.3853 10.5514C26.9411 10.8686 27.5781 11.0134 28.2962 10.9858C29.1124 10.968 29.6692 10.6986 29.9666 10.1775Z" fill="white"/>
<path d="M34.5283 14.2494C34.3102 14.6315 33.8582 14.8284 33.1723 14.8398C32.5534 14.855 32.0398 14.7461 31.6316 14.5131C30.4679 13.8489 30.3074 12.7785 31.1501 11.3021C31.5219 10.6508 32.0382 10.0185 32.699 9.40549C33.5668 8.61125 34.2439 8.35293 34.7303 8.63054C35.1472 8.86848 35.4817 9.34151 35.7338 10.0496C35.9909 10.7491 36.0005 11.3072 35.7625 11.7241C35.4552 12.2625 34.9704 12.6076 34.3081 12.7592C33.6458 12.9109 33.0411 12.8305 32.494 12.5182C32.4419 12.4885 32.3537 12.3806 32.2296 12.1946C32.1142 12.0136 32.0261 11.9057 31.9653 11.871C31.8524 11.8066 31.7761 11.8091 31.7364 11.8786C31.1663 12.8773 31.2113 13.5651 31.8714 13.9418C32.2101 14.1352 32.5872 14.2007 33.0027 14.1385C33.2507 14.1074 33.5583 14.0124 33.9253 13.8534C34.2143 13.7305 34.3848 13.6839 34.4369 13.7136C34.6367 13.8276 34.6671 14.0062 34.5283 14.2494ZM34.9977 11.3393C35.1712 11.0354 35.2454 10.7035 35.2204 10.3438C35.2004 9.97547 35.0471 9.70949 34.7605 9.5459C34.4131 9.34761 34.0069 9.40362 33.5419 9.71393C33.1514 9.97459 32.8445 10.3003 32.6215 10.6912C32.4777 10.943 32.4344 11.2004 32.4916 11.4633C32.5624 11.7225 32.7238 11.924 32.9756 12.0678C33.3317 12.271 33.7137 12.2876 34.1217 12.1174C34.4975 11.9635 34.7894 11.7041 34.9977 11.3393Z" fill="white"/>
<path d="M38.6647 18.9938C38.3484 19.0436 38.1251 19.0313 37.9948 18.9569C37.8038 18.8479 37.6299 18.3859 37.4732 17.5711C37.2842 16.5306 37.1822 15.983 37.1673 15.9284C37.1127 15.7821 37.0468 15.4739 36.9697 15.0038C36.8975 14.6057 36.8044 14.305 36.6901 14.1016L36.2772 14.2804L35.541 15.5701C35.4964 15.6483 35.458 15.7761 35.4259 15.9534C35.4074 16.1271 35.3758 16.253 35.3312 16.3312C35.3014 16.3833 35.2351 16.4087 35.1321 16.4076C35.0329 16.42 34.9529 16.4089 34.8921 16.3742C34.5447 16.1759 34.4776 15.89 34.6908 15.5166L35.7318 13.6928C35.7962 13.5799 35.9034 13.4223 36.0534 13.22C36.217 13.0141 36.3311 12.8546 36.3955 12.7417L38.4478 9.1462C38.7403 8.6338 38.9491 8.21756 39.0742 7.89749C39.099 7.85407 39.1318 7.74614 39.1726 7.57371C39.216 7.43725 39.26 7.32994 39.3046 7.25178C39.3542 7.16493 39.4689 7.11526 39.6487 7.10277C39.8372 7.09524 39.9836 7.12121 40.0878 7.1807C40.166 7.22531 40.2336 7.29846 40.2907 7.40014C40.3615 7.4981 40.377 7.58181 40.3374 7.65129C40.3324 7.65998 40.2512 7.7518 40.0938 7.92677C39.8991 8.12656 39.6085 8.56516 39.2218 9.24258L37.0133 12.9907L37.0413 13.093C37.4184 13.078 37.9839 12.9748 38.7379 12.7834C39.2204 12.6442 39.7028 12.5051 40.1852 12.3659C40.9678 12.1448 41.4025 12.059 41.4893 12.1085C41.6196 12.1829 41.6891 12.3032 41.6979 12.4694C41.7116 12.6269 41.6769 12.7683 41.5939 12.8936L41.5437 12.9513C41.0897 12.9801 40.3803 13.0933 39.4154 13.291C38.3054 13.521 37.6909 13.7402 37.572 13.9486C37.5273 14.0268 37.5461 14.2966 37.6282 14.7579C37.7637 15.4686 37.8949 16.1768 38.0218 16.8825C38.2269 17.794 38.4684 18.45 38.7464 18.8505L38.6647 18.9938Z" fill="white"/>
<path d="M44.557 12.3396C44.3884 12.6349 44.1652 12.7032 43.8873 12.5446C43.7223 12.4504 43.605 12.3029 43.5354 12.102C43.4659 11.9011 43.4757 11.7225 43.5649 11.5661C43.7335 11.2708 43.9654 11.2075 44.2607 11.376C44.4344 11.4752 44.5498 11.6159 44.6069 11.7982C44.6728 11.9855 44.6561 12.1659 44.557 12.3396ZM43.1941 14.1524C43.1049 14.3088 42.9363 14.5234 42.6883 14.7964C42.4404 15.0694 42.2718 15.2841 42.1826 15.4404L40.5393 18.3194C40.4302 18.5105 40.3206 18.7933 40.2104 19.168C40.136 19.2176 40.0684 19.2251 40.0076 19.1904C39.582 18.9475 39.4857 18.622 39.7187 18.2138L42.4477 13.4328C42.5953 13.4364 42.7212 13.468 42.8254 13.5275C42.9296 13.587 43.0208 13.6793 43.099 13.8046C43.212 13.9496 43.2437 14.0656 43.1941 14.1524Z" fill="white"/>
<path d="M46.514 14.2857C46.4446 14.4073 46.3287 14.4793 46.1662 14.5017C46.0124 14.5291 45.8747 14.5081 45.7531 14.4387C45.6229 14.3643 45.5254 14.1014 45.4607 13.6499C45.4805 13.6152 45.5152 13.5544 45.5648 13.4676C45.7135 13.207 45.9181 13.1511 46.1786 13.2998C46.3523 13.399 46.4764 13.5446 46.551 13.7369C46.6255 13.9291 46.6132 14.112 46.514 14.2857ZM45.6774 15.5699C45.2819 15.9199 44.9776 16.2816 44.7644 16.655C44.4273 17.2456 43.9347 18.1389 43.2866 19.3349C42.6434 20.5222 42.1533 21.4111 41.8162 22.0017C41.489 22.5749 41.0625 22.9993 40.5368 23.2749C39.9192 23.5903 39.3412 23.5943 38.8028 23.2869C38.5162 23.1233 38.1712 22.7595 37.7678 22.1953C37.3135 21.5791 37.1558 21.1494 37.2946 20.9062C37.3789 20.7585 37.5122 20.7368 37.6946 20.8409C37.7554 20.8756 37.7963 20.9047 37.8174 20.9283C37.9393 21.6426 38.2956 22.1684 38.8861 22.5055C39.7893 23.021 40.6896 22.4928 41.5868 20.9209C41.6116 20.8774 42.6693 18.9538 44.76 15.1499L44.9311 15.0921C45.24 15.1763 45.4118 15.2283 45.4465 15.2481C45.5594 15.3126 45.6364 15.4198 45.6774 15.5699Z" fill="white"/>
<path d="M47.7837 24.1989C47.4675 24.2487 47.2442 24.2364 47.1139 24.162C46.9228 24.053 46.749 23.591 46.5923 22.7762C46.4033 21.7356 46.3013 21.188 46.2864 21.1335C46.2317 20.9871 46.1658 20.679 46.0887 20.2089C46.0166 19.8108 45.9234 19.51 45.8092 19.3067L45.3963 19.4855L44.6601 20.7752C44.6155 20.8533 44.5771 20.9811 44.5449 21.1585C44.5264 21.3322 44.4949 21.4581 44.4502 21.5362C44.4205 21.5883 44.3541 21.6138 44.2512 21.6126C44.152 21.6251 44.072 21.6139 44.0112 21.5792C43.6638 21.381 43.5967 21.0951 43.8098 20.7216L44.8508 18.8978C44.9153 18.7849 45.0225 18.6273 45.1725 18.4251C45.3361 18.2191 45.4501 18.0597 45.5146 17.9468L47.5669 14.3513C47.8593 13.8389 48.0681 13.4226 48.1933 13.1026C48.218 13.0591 48.2509 12.9512 48.2917 12.7788C48.3351 12.6423 48.379 12.535 48.4237 12.4568C48.4732 12.37 48.5879 12.3203 48.7678 12.3078C48.9563 12.3003 49.1027 12.3263 49.2069 12.3858C49.2851 12.4304 49.3527 12.5035 49.4098 12.6052C49.4806 12.7032 49.4961 12.7869 49.4564 12.8564C49.4515 12.865 49.3703 12.9569 49.2128 13.1318C49.0182 13.3316 48.7276 13.7702 48.3409 14.4476L46.1324 18.1958L46.1604 18.2981C46.5374 18.283 47.103 18.1798 47.857 17.9884C48.3394 17.8493 48.8219 17.7101 49.3043 17.571C50.0868 17.3498 50.5215 17.264 50.6084 17.3136C50.7387 17.388 50.8082 17.5082 50.8169 17.6744C50.8307 17.832 50.796 17.9734 50.713 18.0987L50.6628 18.1564C50.2088 18.1851 49.4994 18.2984 48.5345 18.496C47.4245 18.726 46.81 18.9453 46.691 19.1537C46.6464 19.2319 46.6651 19.5016 46.7472 19.963C46.8828 20.6736 47.014 21.3818 47.1408 22.0875C47.3459 22.9991 47.5875 23.6551 47.8655 24.0556L47.7837 24.1989Z" fill="white"/>
<path d="M54.5193 27.8362C54.4101 27.866 54.26 27.8264 54.069 27.7174C53.9734 27.6628 53.9083 27.545 53.8734 27.364C54.3085 26.622 54.6524 26.0296 54.9052 25.5867C56.1643 23.3807 56.4248 22.0671 55.6866 21.6457C55.3739 21.4672 55.0093 21.5009 54.5926 21.7467C54.2318 21.9553 53.9572 22.2245 53.7688 22.5546C53.749 22.5893 53.7037 22.6383 53.6331 22.7016C53.576 22.7612 53.5376 22.8083 53.5178 22.8431L52.566 24.5106C52.4817 24.6582 52.382 24.8834 52.2668 25.1861C52.1516 25.4888 52.0543 25.7096 51.975 25.8486C51.8957 25.9875 51.7518 25.9975 51.5434 25.8785C51.3957 25.7943 51.3094 25.6529 51.2845 25.4545C51.2683 25.261 51.3024 25.0904 51.3866 24.9428L56.0378 16.9756C56.0502 16.9136 56.0712 16.8565 56.101 16.8044C56.1902 16.6481 56.3217 16.6195 56.4954 16.7187C56.5822 16.7682 56.6734 16.9009 56.7691 17.1167C56.8783 17.3287 56.9106 17.4738 56.866 17.552C56.747 17.7604 56.5326 18.0353 56.2227 18.3765C55.9214 18.7227 55.7138 18.9957 55.5998 19.1954C55.5899 19.2128 55.2689 19.7953 54.6369 20.9429C55.1218 20.8398 55.4511 20.8377 55.6248 20.9369C55.9027 21.0955 56.19 21.3689 56.4866 21.757C57.0638 22.5009 56.9706 23.5416 56.2072 24.879L54.5193 27.8362Z" fill="white"/>
<path d="M61.0746 27.7091C60.6483 28.456 60.1115 29.0132 59.4642 29.3806C58.6917 29.8263 57.958 29.8508 57.2632 29.4543C56.5598 29.0527 56.1905 28.4792 56.1554 27.7338C56.1266 27.1186 56.3253 26.4376 56.7516 25.6907C57.173 24.9525 57.7519 24.3215 58.4884 23.7977C59.406 23.1585 60.1861 23.0223 60.8288 23.3891C60.9938 23.4833 61.1737 23.7127 61.3687 24.0772C61.9459 25.1436 61.8479 26.3543 61.0746 27.7091ZM60.4567 27.3392C60.774 26.7833 60.9852 26.2418 61.0904 25.7146C61.2252 24.9741 61.0668 24.4749 60.6152 24.2171C60.0941 23.9197 59.4901 24.0298 58.8032 24.5473C58.275 24.9482 57.8374 25.4526 57.4904 26.0606C57.1781 26.6077 56.9936 27.1126 56.9367 27.5753C56.8701 28.2166 57.0756 28.6735 57.5532 28.9462C58.0743 29.2436 58.638 29.1739 59.2443 28.737C59.7155 28.3957 60.1196 27.9297 60.4567 27.3392Z" fill="white"/>
<path d="M64.8167 31.5376C64.5985 31.9198 64.1465 32.1166 63.4606 32.1281C62.8417 32.1433 62.3281 32.0344 61.92 31.8014C60.7562 31.1371 60.5957 30.0668 61.4384 28.5904C61.8102 27.939 62.3265 27.3068 62.9873 26.6937C63.8552 25.8995 64.5323 25.6412 65.0186 25.9188C65.4355 26.1567 65.77 26.6298 66.0221 27.3379C66.2792 28.0373 66.2888 28.5955 66.0508 29.0123C65.7435 29.5508 65.2587 29.8958 64.5964 30.0475C63.9341 30.1991 63.3294 30.1188 62.7823 29.8065C62.7302 29.7767 62.6421 29.6689 62.5179 29.4829C62.4025 29.3018 62.3144 29.194 62.2536 29.1593C62.1407 29.0948 62.0644 29.0974 62.0247 29.1668C61.4547 30.1656 61.4996 30.8533 62.1597 31.2301C62.4984 31.4234 62.8755 31.489 63.291 31.4268C63.539 31.3956 63.8466 31.3006 64.2137 31.1416C64.5026 31.0187 64.6731 30.9721 64.7252 31.0019C64.925 31.1159 64.9555 31.2945 64.8167 31.5376ZM65.286 28.6276C65.4595 28.3236 65.5337 27.9918 65.5088 27.6321C65.4887 27.2637 65.3354 26.9977 65.0488 26.8341C64.7014 26.6359 64.2952 26.6919 63.8303 27.0022C63.4397 27.2628 63.1328 27.5886 62.9098 27.9794C62.766 28.2312 62.7227 28.4886 62.7799 28.7516C62.8507 29.0108 63.0121 29.2122 63.2639 29.356C63.62 29.5593 64.0021 29.5758 64.41 29.4057C64.7858 29.2517 65.0778 28.9923 65.286 28.6276Z" fill="white"/>
<path d="M20.2597 23.2499C20.1506 23.2797 20.0005 23.2401 19.8094 23.131C19.7139 23.0765 19.6487 22.9587 19.6139 22.7776C20.0489 22.0357 20.3928 21.4433 20.6456 21.0003C21.9048 18.7944 22.1652 17.4807 21.427 17.0594C21.1144 16.8809 20.7497 16.9146 20.3331 17.1604C19.9722 17.3689 19.6976 17.6382 19.5093 17.9682C19.4894 18.003 19.4442 18.052 19.3735 18.1153C19.3165 18.1748 19.2781 18.222 19.2582 18.2567L18.3064 19.9242C18.2222 20.0719 18.1224 20.297 18.0072 20.5997C17.892 20.9024 17.7948 21.1233 17.7154 21.2622C17.6361 21.4012 17.4923 21.4112 17.2838 21.2922C17.1362 21.2079 17.0499 21.0666 17.025 20.8681C17.0088 20.6746 17.0428 20.5041 17.1271 20.3564L21.7783 12.3893C21.7906 12.3273 21.8117 12.2702 21.8414 12.2181C21.9307 12.0618 22.0621 12.0332 22.2358 12.1323C22.3227 12.1819 22.4139 12.3146 22.5095 12.5303C22.6188 12.7424 22.6511 12.8875 22.6065 12.9657C22.4875 13.1741 22.2731 13.4489 21.9631 13.7902C21.6619 14.1364 21.4543 14.4094 21.3403 14.6091C21.3303 14.6265 21.0094 15.209 20.3773 16.3566C20.8623 16.2534 21.1916 16.2514 21.3653 16.3505C21.6432 16.5092 21.9305 16.7825 22.2271 17.1706C22.8042 17.9146 22.7111 18.9553 21.9477 20.2927L20.2597 23.2499Z" fill="white"/>
<path d="M25.7737 24.221C25.5556 24.6031 25.1036 24.7999 24.4176 24.8114C23.7987 24.8266 23.2852 24.7177 22.877 24.4847C21.7132 23.8205 21.5527 22.7501 22.3954 21.2737C22.7672 20.6223 23.2835 19.9901 23.9443 19.3771C24.8122 18.5828 25.4893 18.3245 25.9756 18.6021C26.3925 18.8401 26.727 19.3131 26.9791 20.0212C27.2362 20.7206 27.2458 21.2788 27.0079 21.6957C26.7005 22.2341 26.2157 22.5792 25.5534 22.7308C24.8912 22.8825 24.2864 22.8021 23.7393 22.4898C23.6872 22.4601 23.5991 22.3522 23.4749 22.1662C23.3595 21.9852 23.2714 21.8773 23.2106 21.8426C23.0977 21.7782 23.0214 21.7807 22.9818 21.8502C22.4117 22.8489 22.4567 23.5367 23.1167 23.9134C23.4554 24.1068 23.8325 24.1723 24.248 24.1101C24.4961 24.079 24.8036 23.9839 25.1707 23.825C25.4596 23.7021 25.6302 23.6555 25.6823 23.6852C25.882 23.7992 25.9125 23.9778 25.7737 24.221ZM26.243 21.3109C26.4165 21.0069 26.4908 20.6751 26.4658 20.3154C26.4458 19.947 26.2924 19.6811 26.0058 19.5175C25.6584 19.3192 25.2523 19.3752 24.7873 19.6855C24.3967 19.9462 24.0899 20.2719 23.8668 20.6627C23.723 20.9146 23.6797 21.172 23.7369 21.4349C23.8078 21.6941 23.9691 21.8956 24.221 22.0393C24.577 22.2426 24.9591 22.2591 25.3671 22.089C25.7428 21.935 26.0348 21.6757 26.243 21.3109Z" fill="white"/>
<path d="M30.2751 23.0597C30.1759 23.0722 29.9861 23.0214 29.7057 22.9074C29.3993 22.7786 29.2169 22.7148 29.1586 22.7161C29.0954 22.8066 28.816 23.2862 28.3202 24.1546C27.9336 24.8321 27.682 25.293 27.5655 25.5374C27.511 25.6329 27.446 25.7973 27.3704 26.0305C27.2949 26.2637 27.2249 26.4368 27.1604 26.5497C27.1208 26.6192 27.0377 26.6639 26.9112 26.6838C26.7847 26.7037 26.6867 26.6938 26.6172 26.6541C26.4435 26.555 26.4062 26.2976 26.5052 25.8821C26.5844 25.5819 26.691 25.3145 26.8248 25.08C27.5238 23.8555 28.048 22.9572 28.3975 22.3852C28.3702 22.3121 28.1705 22.1981 27.7983 22.0432C27.5005 21.9193 27.4186 21.7401 27.5524 21.5056C27.7408 21.1756 28.1793 21.2244 28.8679 21.652L30.3831 19.3907C30.398 19.3647 30.4073 19.3181 30.411 19.2512C30.4283 19.1804 30.4444 19.1321 30.4593 19.106C30.489 19.0539 30.551 19.026 30.6453 19.0222C30.7445 19.0097 30.8394 19.0351 30.93 19.0983C31.2191 19.2979 31.2843 19.5366 31.1257 19.8146C31.0017 20.0317 30.7855 20.34 30.4768 20.7395C30.1681 21.1391 29.9543 21.4431 29.8354 21.6515C29.7759 21.7557 29.7275 21.8606 29.6904 21.966L30.4292 22.3359C30.6724 22.4747 30.7394 22.6396 30.6304 22.8307C30.5511 22.9697 30.4326 23.046 30.2751 23.0597Z" fill="white"/>
<path d="M39.8644 28.4641C39.3935 29.2891 38.8189 30.0436 38.1408 30.7273C37.1825 31.7002 36.4124 32.0206 35.8305 31.6885C35.4049 31.4456 35.1914 30.9725 35.1898 30.2692C35.2256 29.9442 35.2639 29.6149 35.3047 29.2812L35.2377 29.2775C34.9178 29.5555 34.5936 29.831 34.265 30.104C33.8546 30.3994 33.467 30.443 33.1023 30.2348C31.9993 29.6053 32.2038 27.9661 33.7157 25.3172C34.0627 24.7093 34.3528 24.2415 34.5858 23.9139C34.6961 23.8618 34.7991 23.863 34.8946 23.9175C34.9902 23.972 35.0808 24.0756 35.1664 24.2281C35.257 24.3719 35.2751 24.4916 35.2205 24.5871C35.1561 24.7 35.0241 24.8607 34.8245 25.0692C34.6385 25.274 34.5059 25.4458 34.4266 25.5848C33.1377 27.8428 32.7842 29.1379 33.3661 29.47C33.7395 29.6832 34.2821 29.4287 34.9937 28.7064C35.5479 28.1592 35.9693 27.6225 36.2581 27.0965L36.9719 25.8459C37.076 25.6635 37.2323 25.6318 37.4407 25.7508C37.6926 25.8945 37.7194 26.1401 37.5211 26.4875C37.4963 26.5309 37.4504 26.5911 37.3835 26.668C37.3252 26.7499 37.2837 26.8126 37.2589 26.856L36.3443 28.4583C36.1311 28.8318 35.9682 29.2685 35.8556 29.7684C35.6984 30.4271 35.7588 30.8357 36.0367 30.9944C36.4101 31.2075 36.9929 30.9127 37.7851 30.1098C38.3926 29.4893 38.8525 28.9055 39.1648 28.3584C39.4771 27.8112 39.6332 27.457 39.6331 27.2958C39.6381 27.2871 39.63 27.2307 39.6089 27.1265C39.5877 27.0223 39.5846 26.9572 39.5995 26.9311C39.654 26.8356 39.7451 26.7667 39.8729 26.7245C40.0093 26.6872 40.1253 26.6958 40.2208 26.7504C40.5335 26.9288 40.4147 27.5001 39.8644 28.4641Z" fill="white"/>
<path d="M42.6989 33.8817C42.4808 34.2639 42.0288 34.4607 41.3429 34.4722C40.724 34.4873 40.2104 34.3784 39.8022 34.1455C38.6384 33.4812 38.4779 32.4108 39.3206 30.9344C39.6924 30.2831 40.2087 29.6509 40.8695 29.0378C41.7374 28.2436 42.4145 27.9852 42.9009 28.2628C43.3177 28.5008 43.6522 28.9738 43.9044 29.6819C44.1615 30.3814 44.171 30.9395 43.9331 31.3564C43.6257 31.8949 43.1409 32.2399 42.4787 32.3915C41.8164 32.5432 41.2117 32.4629 40.6645 32.1506C40.6124 32.1208 40.5243 32.0129 40.4002 31.827C40.2847 31.6459 40.1966 31.538 40.1358 31.5033C40.0229 31.4389 39.9466 31.4414 39.907 31.5109C39.3369 32.5097 39.3819 33.1974 40.0419 33.5742C40.3806 33.7675 40.7577 33.833 41.1732 33.7708C41.4213 33.7397 41.7288 33.6447 42.0959 33.4857C42.3849 33.3628 42.5554 33.3162 42.6075 33.3459C42.8072 33.4599 42.8377 33.6385 42.6989 33.8817ZM43.1682 30.9716C43.3417 30.6677 43.416 30.3358 43.391 29.9762C43.371 29.6078 43.2177 29.3418 42.9311 29.1782C42.5837 28.9799 42.1775 29.0359 41.7125 29.3462C41.3219 29.6069 41.0151 29.9326 40.792 30.3235C40.6483 30.5753 40.605 30.8327 40.6622 31.0956C40.733 31.3548 40.8943 31.5563 41.1462 31.7001C41.5023 31.9033 41.8843 31.9199 42.2923 31.7498C42.668 31.5958 42.96 31.3364 43.1682 30.9716Z" fill="white"/>
<path d="M48.0918 32.5212C48.072 32.5559 48.0255 32.6273 47.9524 32.7352C47.7404 32.8445 47.5822 32.8693 47.478 32.8098C47.4085 32.7702 47.3725 32.6921 47.37 32.5755C47.6562 32.0135 47.5866 31.611 47.161 31.3681C46.8831 31.2095 46.3171 31.5657 45.4629 32.4369C45.1455 32.7508 44.8084 33.2204 44.4514 33.8458C43.9954 34.6448 43.737 35.1478 43.6763 35.355C43.6702 35.386 43.6596 35.4549 43.6448 35.5615C43.6349 35.6595 43.6176 35.7302 43.5928 35.7737C43.4838 35.9647 43.299 35.9859 43.0384 35.8372C42.7431 35.6687 42.6822 35.4324 42.8557 35.1284C42.8805 35.085 42.9239 35.0292 42.9859 34.9609C43.0615 34.8889 43.1117 34.8312 43.1365 34.7878C43.4092 34.3102 43.7964 33.5813 44.2983 32.6011C44.8002 31.621 45.1874 30.8921 45.4601 30.4145C45.5592 30.2408 45.6491 30.1539 45.7297 30.1539C45.8153 30.1451 45.9449 30.1904 46.1186 30.2895C46.3357 30.4134 46.4171 30.5635 46.3626 30.7396C46.2721 30.9183 46.1841 31.0926 46.0986 31.2626C46.5227 31.0441 46.7645 30.923 46.8241 30.8994C47.139 30.7913 47.4008 30.7968 47.6092 30.9158C47.7655 31.005 47.8946 31.142 47.9964 31.3268C48.0535 31.4284 48.0939 31.63 48.1176 31.9314C48.15 32.2377 48.1414 32.4343 48.0918 32.5212Z" fill="white"/>
<path d="M50.377 40.6478C50.0607 40.6975 49.8375 40.6852 49.7072 40.6109C49.5161 40.5018 49.3423 40.0399 49.1856 39.225C48.9965 38.1845 48.8946 37.6369 48.8797 37.5823C48.825 37.436 48.7591 37.1278 48.682 36.6578C48.6099 36.2596 48.5167 35.9589 48.4025 35.7555L47.9895 35.9343L47.2534 37.224C47.2088 37.3022 47.1704 37.43 47.1382 37.6074C47.1197 37.781 47.0881 37.9069 47.0435 37.9851C47.0138 38.0372 46.9474 38.0627 46.8445 38.0615C46.7453 38.0739 46.6653 38.0628 46.6045 38.0281C46.2571 37.8298 46.1899 37.5439 46.4031 37.1705L47.4441 35.3467C47.5086 35.2338 47.6158 35.0762 47.7658 34.874C47.9294 34.668 48.0434 34.5085 48.1079 34.3956L50.1602 30.8001C50.4526 30.2877 50.6614 29.8715 50.7865 29.5514C50.8113 29.508 50.8441 29.4001 50.885 29.2276C50.9283 29.0912 50.9723 28.9839 51.0169 28.9057C51.0665 28.8188 51.1812 28.7692 51.3611 28.7567C51.5496 28.7492 51.696 28.7751 51.8002 28.8346C51.8783 28.8792 51.946 28.9524 52.0031 29.0541C52.0738 29.152 52.0894 29.2357 52.0497 29.3052C52.0448 29.3139 51.9636 29.4057 51.8061 29.5807C51.6115 29.7805 51.3208 30.2191 50.9342 30.8965L48.7257 34.6446L48.7536 34.747C49.1307 34.7319 49.6962 34.6287 50.4503 34.4373C50.9327 34.2981 51.4151 34.159 51.8976 34.0198C52.6801 33.7987 53.1148 33.7129 53.2017 33.7625C53.3319 33.8368 53.4015 33.9571 53.4102 34.1233C53.4239 34.2808 53.3893 34.4222 53.3062 34.5476L53.256 34.6053C52.8021 34.634 52.0927 34.7472 51.1278 34.9449C50.0178 35.1749 49.4033 35.3941 49.2843 35.6025C49.2397 35.6807 49.2584 35.9505 49.3405 36.4118C49.476 37.1225 49.6072 37.8307 49.7341 38.5364C49.9392 39.4479 50.1808 40.104 50.4588 40.5045L50.377 40.6478Z" fill="white"/>
<path d="M55.1795 37.2749C55.0803 37.2873 54.8905 37.2366 54.6101 37.1226C54.3037 36.9937 54.1213 36.9299 54.063 36.9312C53.9998 37.0218 53.7204 37.5013 53.2246 38.3698C52.838 39.0472 52.5864 39.5081 52.4699 39.7525C52.4154 39.8481 52.3504 40.0124 52.2748 40.2457C52.1993 40.4789 52.1293 40.6519 52.0648 40.7649C52.0252 40.8343 51.9421 40.879 51.8156 40.8989C51.6891 40.9188 51.5911 40.909 51.5216 40.8693C51.3479 40.7702 51.3106 40.5128 51.4096 40.0972C51.4889 39.797 51.5954 39.5297 51.7292 39.2952C52.4282 38.0706 52.9524 37.1724 53.3019 36.6004C53.2746 36.5272 53.0749 36.4132 52.7027 36.2584C52.4049 36.1345 52.323 35.9553 52.4568 35.7208C52.6452 35.3908 53.0837 35.4395 53.7723 35.8671L55.2875 33.6059C55.3024 33.5798 55.3117 33.5333 55.3154 33.4663C55.3327 33.3956 55.3488 33.3472 55.3637 33.3212C55.3934 33.2691 55.4554 33.2411 55.5497 33.2374C55.6489 33.2249 55.7438 33.2503 55.8344 33.3135C56.1235 33.5131 56.1887 33.7518 56.0301 34.0297C55.9062 34.2468 55.6899 34.5552 55.3812 34.9547C55.0726 35.3542 54.8587 35.6582 54.7398 35.8667C54.6803 35.9709 54.632 36.0757 54.5948 36.1812L55.3336 36.5511C55.5768 36.6899 55.6438 36.8548 55.5348 37.0459C55.4555 37.1848 55.337 37.2612 55.1795 37.2749Z" fill="white"/>
<path d="M60.6484 34.5587C60.5566 34.5984 60.4246 34.6785 60.2522 34.7989C59.191 35.8512 58.1906 37.0995 57.2511 38.5437C57.2214 38.5958 57.1538 38.6839 57.0485 38.808C56.9567 38.9283 56.8886 39.0276 56.8439 39.1058C56.7845 39.21 56.6656 39.5797 56.4873 40.2148C56.4327 40.2297 56.3422 40.2471 56.2157 40.267C56.176 40.2559 56.1083 40.223 56.0128 40.1685C55.8912 40.0991 55.8056 40.0272 55.756 39.9528C55.7682 39.7295 55.9033 39.3921 56.1611 38.9405C56.2106 38.8536 56.2354 38.8102 56.2354 38.8102L59.2009 34.4924C59.2207 34.4576 59.2541 34.3386 59.3012 34.1351C59.3532 33.923 59.3798 33.8058 59.381 33.7834C59.6799 33.7238 59.9509 33.7633 60.1941 33.9021C60.4112 34.0261 60.5626 34.2449 60.6484 34.5587ZM55.8202 42.0794C55.4782 42.6786 54.9728 42.7874 54.3041 42.4057C54.1825 42.3363 53.9969 42.1268 53.7475 41.7771C53.7523 41.6072 53.7994 41.444 53.8886 41.2877C54.0374 41.0272 54.2103 40.8956 54.4075 40.893C54.5514 40.883 54.7536 40.9524 55.0142 41.1011C55.7003 41.4927 55.969 41.8188 55.8202 42.0794Z" fill="white"/>
</svg>
