<?xml version="1.0" encoding="UTF-8" standalone="no"?>
<!DOCTYPE svg PUBLIC "-//W3C//DTD SVG 1.1//EN" "http://www.w3.org/Graphics/SVG/1.1/DTD/svg11.dtd">
<svg
  width="100%"
  height="100%"
  viewBox="0 0 100 114"
  version="1.1"
  xmlns="http://www.w3.org/2000/svg"
  xmlns:xlink="http://www.w3.org/1999/xlink"
  xml:space="preserve"
  xmlns:serif="http://www.serif.com/"
  style="fill-rule:evenodd;clip-rule:evenodd;stroke-linecap:round;stroke-linejoin:round;stroke-miterlimit:1.5;"
>
  <g transform="matrix(1,0,0,1,-382,-156)">
    <g transform="matrix(-1,0,0,1,1061.63,7.91437)">
      <path
        d="M623.283,220.438C618.723,222.909 632.708,202.029 635.162,198.348C638.961,192.651 671.148,161.025 675.969,161.025"
        style="fill:none;stroke:white;stroke-width:1px;"
      />
    </g>
    <g transform="matrix(-1,0,0,1,1059.05,8.68534)">
      <path
        d="M673.24,160.288C674.715,160.766 650.092,164.695 650.092,167.494"
        style="fill:none;stroke:white;stroke-width:1px;"
      />
    </g>
    <g transform="matrix(-1,0,0,1,1060.01,7.22275)">
      <path
        d="M674.037,161.732C675.071,161.239 672.684,167.697 672.486,168.49C671.163,173.779 669.5,178.878 669.5,184.414"
        style="fill:none;stroke:white;stroke-width:1px;"
      />
    </g>
    <g transform="matrix(1.29558,-0.203289,0.189535,1.20792,-387.656,77.8783)">
      <g transform="matrix(12,0,0,12,581.55,241.368)">
        <path
          d="M0.145,-0.676C0.145,-0.648 0.132,-0.634 0.105,-0.634C0.089,-0.634 0.075,-0.64 0.061,-0.651C0.048,-0.663 0.041,-0.676 0.041,-0.691C0.041,-0.72 0.055,-0.734 0.084,-0.734C0.1,-0.734 0.115,-0.728 0.127,-0.718C0.139,-0.707 0.145,-0.693 0.145,-0.676ZM0.121,-0.489C0.121,-0.474 0.118,-0.451 0.111,-0.421C0.105,-0.391 0.101,-0.369 0.101,-0.354L0.101,-0.078C0.101,-0.059 0.105,-0.034 0.113,-0.003C0.109,0.004 0.105,0.008 0.099,0.008C0.058,0.008 0.038,-0.012 0.038,-0.051L0.038,-0.51C0.048,-0.516 0.059,-0.519 0.069,-0.519C0.079,-0.519 0.089,-0.516 0.1,-0.51C0.114,-0.504 0.121,-0.497 0.121,-0.489Z"
          style="fill-rule:nonzero;fill:white"
        />
      </g>
      <g transform="matrix(12,0,0,12,583.665,241.368)">
        <path
          d="M0.428,0.006C0.423,0.015 0.415,0.02 0.406,0.02C0.397,0.02 0.382,0.014 0.361,0.003L0.361,-0.008C0.361,-0.015 0.362,-0.026 0.363,-0.041C0.363,-0.056 0.364,-0.067 0.364,-0.074C0.364,-0.35 0.329,-0.489 0.26,-0.489C0.238,-0.489 0.215,-0.473 0.19,-0.441C0.127,-0.363 0.095,-0.264 0.095,-0.145C0.095,-0.129 0.098,-0.106 0.103,-0.076C0.109,-0.045 0.111,-0.022 0.111,-0.006C0.111,0.006 0.102,0.013 0.085,0.013C0.052,0.013 0.035,-0.014 0.035,-0.066L0.035,-0.35C0.035,-0.358 0.036,-0.368 0.038,-0.383C0.039,-0.397 0.04,-0.408 0.04,-0.415C0.04,-0.426 0.039,-0.442 0.036,-0.463C0.033,-0.483 0.031,-0.499 0.031,-0.509C0.031,-0.515 0.036,-0.523 0.047,-0.532C0.057,-0.541 0.065,-0.545 0.071,-0.545C0.082,-0.545 0.092,-0.539 0.101,-0.528C0.099,-0.473 0.097,-0.442 0.098,-0.433C0.097,-0.42 0.098,-0.408 0.099,-0.396C0.106,-0.399 0.116,-0.413 0.129,-0.438C0.145,-0.469 0.158,-0.491 0.169,-0.503C0.189,-0.526 0.212,-0.538 0.238,-0.538C0.248,-0.538 0.263,-0.534 0.283,-0.526C0.328,-0.51 0.36,-0.482 0.379,-0.444C0.411,-0.378 0.428,-0.291 0.428,-0.183L0.428,0.006Z"
          style="fill-rule:nonzero;fill:white"
        />
      </g>
      <g transform="matrix(12,0,0,12,588.765,241.368)">
        <path
          d="M0.293,-0.394C0.286,-0.389 0.27,-0.385 0.245,-0.381C0.218,-0.378 0.202,-0.375 0.198,-0.373C0.197,-0.363 0.196,-0.317 0.196,-0.234C0.196,-0.169 0.197,-0.125 0.199,-0.103C0.199,-0.093 0.201,-0.079 0.205,-0.059C0.209,-0.039 0.211,-0.023 0.211,-0.013C0.211,-0.006 0.207,0.001 0.199,0.008C0.19,0.014 0.183,0.018 0.176,0.018C0.16,0.018 0.146,0 0.136,-0.034C0.13,-0.059 0.126,-0.083 0.126,-0.105C0.126,-0.223 0.127,-0.309 0.129,-0.365C0.124,-0.369 0.105,-0.369 0.071,-0.365C0.045,-0.362 0.031,-0.371 0.031,-0.394C0.031,-0.425 0.065,-0.44 0.133,-0.438L0.149,-0.664C0.149,-0.666 0.148,-0.67 0.146,-0.676C0.144,-0.681 0.143,-0.685 0.143,-0.688C0.143,-0.693 0.146,-0.697 0.153,-0.702C0.159,-0.706 0.167,-0.708 0.176,-0.708C0.205,-0.705 0.22,-0.69 0.22,-0.664C0.22,-0.643 0.217,-0.612 0.211,-0.57C0.205,-0.528 0.203,-0.498 0.203,-0.478C0.203,-0.468 0.203,-0.458 0.205,-0.449L0.274,-0.453C0.297,-0.452 0.309,-0.443 0.309,-0.425C0.309,-0.412 0.303,-0.401 0.293,-0.394Z"
          style="fill-rule:nonzero;fill:white"
        />
      </g>
      <g transform="matrix(12,0,0,12,592.29,241.368)">
        <path
          d="M0.398,-0.124C0.398,-0.087 0.373,-0.054 0.324,-0.025C0.28,0.002 0.238,0.015 0.199,0.015C0.087,0.015 0.031,-0.056 0.031,-0.198C0.031,-0.26 0.043,-0.327 0.065,-0.399C0.095,-0.492 0.133,-0.539 0.18,-0.539C0.22,-0.539 0.264,-0.519 0.311,-0.478C0.359,-0.438 0.383,-0.397 0.383,-0.358C0.383,-0.306 0.362,-0.261 0.32,-0.223C0.278,-0.184 0.231,-0.165 0.179,-0.165C0.174,-0.165 0.163,-0.169 0.147,-0.178C0.131,-0.186 0.12,-0.19 0.114,-0.19C0.103,-0.19 0.097,-0.187 0.098,-0.18C0.097,-0.084 0.129,-0.036 0.193,-0.036C0.225,-0.036 0.255,-0.047 0.283,-0.069C0.299,-0.081 0.318,-0.101 0.338,-0.128C0.353,-0.148 0.364,-0.159 0.369,-0.159C0.388,-0.159 0.398,-0.147 0.398,-0.124ZM0.311,-0.354C0.311,-0.383 0.303,-0.41 0.286,-0.436C0.27,-0.461 0.247,-0.474 0.22,-0.474C0.187,-0.474 0.16,-0.453 0.139,-0.411C0.121,-0.376 0.113,-0.34 0.113,-0.303C0.113,-0.278 0.12,-0.258 0.136,-0.242C0.151,-0.226 0.171,-0.218 0.195,-0.218C0.229,-0.218 0.258,-0.232 0.28,-0.261C0.301,-0.288 0.311,-0.319 0.311,-0.354Z"
          style="fill-rule:nonzero;fill:white"
        />
      </g>
      <g transform="matrix(12,0,0,12,597.36,241.368)">
        <path
          d="M0.309,-0.445C0.309,-0.442 0.308,-0.435 0.308,-0.424C0.297,-0.407 0.286,-0.399 0.276,-0.399C0.27,-0.399 0.264,-0.403 0.259,-0.411C0.256,-0.464 0.235,-0.49 0.194,-0.49C0.167,-0.49 0.141,-0.441 0.115,-0.343C0.105,-0.307 0.1,-0.259 0.1,-0.199C0.1,-0.122 0.102,-0.075 0.106,-0.058C0.107,-0.055 0.109,-0.05 0.113,-0.042C0.116,-0.034 0.118,-0.028 0.118,-0.024C0.118,-0.005 0.105,0.004 0.08,0.004C0.052,0.004 0.038,-0.011 0.038,-0.04C0.038,-0.044 0.039,-0.05 0.041,-0.058C0.043,-0.066 0.044,-0.072 0.044,-0.076C0.044,-0.122 0.042,-0.191 0.038,-0.283C0.033,-0.374 0.031,-0.443 0.031,-0.489C0.031,-0.505 0.034,-0.516 0.04,-0.519C0.046,-0.523 0.057,-0.525 0.074,-0.525C0.095,-0.525 0.107,-0.518 0.11,-0.503C0.111,-0.486 0.112,-0.47 0.113,-0.454C0.134,-0.487 0.147,-0.506 0.15,-0.51C0.168,-0.531 0.188,-0.541 0.208,-0.541C0.223,-0.541 0.238,-0.537 0.253,-0.528C0.261,-0.523 0.272,-0.51 0.287,-0.489C0.301,-0.468 0.309,-0.453 0.309,-0.445Z"
          style="fill-rule:nonzero;fill:white"
        />
      </g>
      <g transform="matrix(12,0,0,12,600.63,241.368)">
        <path
          d="M0.42,0.036C0.42,0.048 0.411,0.054 0.393,0.054C0.373,0.054 0.36,0.045 0.356,0.029C0.355,0.026 0.355,0.01 0.355,-0.02C0.355,-0.028 0.354,-0.035 0.351,-0.04C0.305,-0.006 0.254,0.011 0.2,0.011C0.163,0.011 0.126,0.001 0.091,-0.02C0.051,-0.043 0.031,-0.073 0.031,-0.108C0.031,-0.142 0.055,-0.175 0.103,-0.208C0.146,-0.238 0.186,-0.253 0.223,-0.253L0.346,-0.253C0.351,-0.258 0.354,-0.266 0.354,-0.279C0.354,-0.335 0.349,-0.377 0.34,-0.405C0.325,-0.452 0.295,-0.476 0.251,-0.476C0.22,-0.476 0.19,-0.456 0.164,-0.416C0.14,-0.38 0.128,-0.345 0.128,-0.311L0.128,-0.298C0.128,-0.291 0.124,-0.288 0.118,-0.288C0.109,-0.288 0.1,-0.293 0.09,-0.303C0.08,-0.313 0.075,-0.321 0.075,-0.329C0.075,-0.352 0.082,-0.381 0.096,-0.417C0.11,-0.452 0.126,-0.479 0.143,-0.498C0.163,-0.52 0.189,-0.531 0.22,-0.531C0.268,-0.531 0.311,-0.516 0.351,-0.486C0.394,-0.454 0.415,-0.415 0.416,-0.369L0.42,0.036ZM0.354,-0.163C0.354,-0.196 0.328,-0.213 0.276,-0.213C0.235,-0.213 0.2,-0.205 0.169,-0.191C0.13,-0.173 0.11,-0.145 0.11,-0.109C0.11,-0.086 0.12,-0.069 0.141,-0.056C0.159,-0.045 0.18,-0.04 0.204,-0.04C0.24,-0.04 0.274,-0.052 0.306,-0.075C0.338,-0.098 0.354,-0.128 0.354,-0.163Z"
          style="fill-rule:nonzero;fill:white"
        />
      </g>
      <g transform="matrix(12,0,0,12,606.195,241.368)">
        <path
          d="M0.424,-0.13C0.424,-0.11 0.407,-0.083 0.373,-0.049C0.338,-0.016 0.31,0.004 0.289,0.01C0.26,0.019 0.235,0.024 0.216,0.024C0.155,0.024 0.109,0.002 0.076,-0.043C0.046,-0.082 0.031,-0.133 0.031,-0.195C0.031,-0.259 0.045,-0.331 0.073,-0.41C0.107,-0.508 0.149,-0.558 0.2,-0.558C0.224,-0.558 0.256,-0.546 0.296,-0.522C0.336,-0.498 0.359,-0.475 0.364,-0.454C0.37,-0.428 0.373,-0.403 0.373,-0.378C0.373,-0.286 0.359,-0.24 0.331,-0.24C0.325,-0.24 0.317,-0.243 0.308,-0.248C0.298,-0.253 0.294,-0.258 0.294,-0.265C0.294,-0.268 0.295,-0.273 0.299,-0.278C0.302,-0.284 0.304,-0.287 0.305,-0.289C0.308,-0.3 0.31,-0.325 0.31,-0.364C0.31,-0.456 0.289,-0.503 0.248,-0.503C0.202,-0.503 0.164,-0.46 0.135,-0.376C0.113,-0.311 0.102,-0.25 0.103,-0.191C0.102,-0.146 0.11,-0.109 0.124,-0.079C0.143,-0.04 0.172,-0.02 0.213,-0.02C0.237,-0.02 0.265,-0.033 0.298,-0.058C0.327,-0.08 0.348,-0.104 0.363,-0.129C0.366,-0.137 0.371,-0.149 0.378,-0.164C0.382,-0.17 0.388,-0.173 0.395,-0.173C0.4,-0.173 0.406,-0.167 0.413,-0.156C0.42,-0.144 0.424,-0.136 0.424,-0.13Z"
          style="fill-rule:nonzero;fill:white"
        />
      </g>
      <g transform="matrix(12,0,0,12,610.8,241.368)">
        <path
          d="M0.293,-0.394C0.286,-0.389 0.27,-0.385 0.245,-0.381C0.218,-0.378 0.202,-0.375 0.198,-0.373C0.197,-0.363 0.196,-0.317 0.196,-0.234C0.196,-0.169 0.197,-0.125 0.199,-0.103C0.199,-0.093 0.201,-0.079 0.205,-0.059C0.209,-0.039 0.211,-0.023 0.211,-0.013C0.211,-0.006 0.207,0.001 0.199,0.008C0.19,0.014 0.183,0.018 0.176,0.018C0.16,0.018 0.146,0 0.136,-0.034C0.13,-0.059 0.126,-0.083 0.126,-0.105C0.126,-0.223 0.127,-0.309 0.129,-0.365C0.124,-0.369 0.105,-0.369 0.071,-0.365C0.045,-0.362 0.031,-0.371 0.031,-0.394C0.031,-0.425 0.065,-0.44 0.133,-0.438L0.149,-0.664C0.149,-0.666 0.148,-0.67 0.146,-0.676C0.144,-0.681 0.143,-0.685 0.143,-0.688C0.143,-0.693 0.146,-0.697 0.153,-0.702C0.159,-0.706 0.167,-0.708 0.176,-0.708C0.205,-0.705 0.22,-0.69 0.22,-0.664C0.22,-0.643 0.217,-0.612 0.211,-0.57C0.205,-0.528 0.203,-0.498 0.203,-0.478C0.203,-0.468 0.203,-0.458 0.205,-0.449L0.274,-0.453C0.297,-0.452 0.309,-0.443 0.309,-0.425C0.309,-0.412 0.303,-0.401 0.293,-0.394Z"
          style="fill-rule:nonzero;fill:white"
        />
      </g>
      <g transform="matrix(12,0,0,12,614.88,241.368)">
        <path
          d="M0.145,-0.676C0.145,-0.648 0.132,-0.634 0.105,-0.634C0.089,-0.634 0.075,-0.64 0.061,-0.651C0.048,-0.663 0.041,-0.676 0.041,-0.691C0.041,-0.72 0.055,-0.734 0.084,-0.734C0.1,-0.734 0.115,-0.728 0.127,-0.718C0.139,-0.707 0.145,-0.693 0.145,-0.676ZM0.121,-0.489C0.121,-0.474 0.118,-0.451 0.111,-0.421C0.105,-0.391 0.101,-0.369 0.101,-0.354L0.101,-0.078C0.101,-0.059 0.105,-0.034 0.113,-0.003C0.109,0.004 0.105,0.008 0.099,0.008C0.058,0.008 0.038,-0.012 0.038,-0.051L0.038,-0.51C0.048,-0.516 0.059,-0.519 0.069,-0.519C0.079,-0.519 0.089,-0.516 0.1,-0.51C0.114,-0.504 0.121,-0.497 0.121,-0.489Z"
          style="fill-rule:nonzero;fill:white"
        />
      </g>
      <g transform="matrix(12,0,0,12,616.755,241.368)">
        <path
          d="M0.398,-0.124C0.398,-0.087 0.373,-0.054 0.324,-0.025C0.28,0.002 0.238,0.015 0.199,0.015C0.087,0.015 0.031,-0.056 0.031,-0.198C0.031,-0.26 0.043,-0.327 0.065,-0.399C0.095,-0.492 0.133,-0.539 0.18,-0.539C0.22,-0.539 0.264,-0.519 0.311,-0.478C0.359,-0.438 0.383,-0.397 0.383,-0.358C0.383,-0.306 0.362,-0.261 0.32,-0.223C0.278,-0.184 0.231,-0.165 0.179,-0.165C0.174,-0.165 0.163,-0.169 0.147,-0.178C0.131,-0.186 0.12,-0.19 0.114,-0.19C0.103,-0.19 0.097,-0.187 0.098,-0.18C0.097,-0.084 0.129,-0.036 0.193,-0.036C0.225,-0.036 0.255,-0.047 0.283,-0.069C0.299,-0.081 0.318,-0.101 0.338,-0.128C0.353,-0.148 0.364,-0.159 0.369,-0.159C0.388,-0.159 0.398,-0.147 0.398,-0.124ZM0.311,-0.354C0.311,-0.383 0.303,-0.41 0.286,-0.436C0.27,-0.461 0.247,-0.474 0.22,-0.474C0.187,-0.474 0.16,-0.453 0.139,-0.411C0.121,-0.376 0.113,-0.34 0.113,-0.303C0.113,-0.278 0.12,-0.258 0.136,-0.242C0.151,-0.226 0.171,-0.218 0.195,-0.218C0.229,-0.218 0.258,-0.232 0.28,-0.261C0.301,-0.288 0.311,-0.319 0.311,-0.354Z"
          style="fill-rule:nonzero;fill:white"
        />
      </g>
      <g transform="matrix(12,0,0,12,621.585,241.368)">
        <path
          d="M0.41,-0.498C0.415,-0.426 0.4,-0.327 0.365,-0.201C0.328,-0.061 0.288,0.009 0.246,0.009C0.196,0.009 0.15,-0.044 0.109,-0.15C0.083,-0.214 0.061,-0.29 0.044,-0.378C0.035,-0.418 0.031,-0.461 0.031,-0.506C0.031,-0.513 0.035,-0.52 0.042,-0.527C0.049,-0.534 0.056,-0.538 0.063,-0.538C0.073,-0.538 0.088,-0.529 0.108,-0.513C0.104,-0.498 0.102,-0.484 0.103,-0.47C0.102,-0.419 0.113,-0.358 0.133,-0.286C0.151,-0.221 0.173,-0.163 0.198,-0.111C0.212,-0.083 0.223,-0.069 0.233,-0.069C0.265,-0.069 0.293,-0.134 0.318,-0.265C0.336,-0.367 0.345,-0.449 0.345,-0.513C0.345,-0.518 0.349,-0.523 0.357,-0.529C0.365,-0.535 0.372,-0.538 0.378,-0.538C0.398,-0.538 0.409,-0.524 0.41,-0.498Z"
          style="fill-rule:nonzero;fill:white"
        />
      </g>
      <g transform="matrix(12,0,0,12,626.52,241.368)">
        <path
          d="M0.398,-0.124C0.398,-0.087 0.373,-0.054 0.324,-0.025C0.28,0.002 0.238,0.015 0.199,0.015C0.087,0.015 0.031,-0.056 0.031,-0.198C0.031,-0.26 0.043,-0.327 0.065,-0.399C0.095,-0.492 0.133,-0.539 0.18,-0.539C0.22,-0.539 0.264,-0.519 0.311,-0.478C0.359,-0.438 0.383,-0.397 0.383,-0.358C0.383,-0.306 0.362,-0.261 0.32,-0.223C0.278,-0.184 0.231,-0.165 0.179,-0.165C0.174,-0.165 0.163,-0.169 0.147,-0.178C0.131,-0.186 0.12,-0.19 0.114,-0.19C0.103,-0.19 0.097,-0.187 0.098,-0.18C0.097,-0.084 0.129,-0.036 0.193,-0.036C0.225,-0.036 0.255,-0.047 0.283,-0.069C0.299,-0.081 0.318,-0.101 0.338,-0.128C0.353,-0.148 0.364,-0.159 0.369,-0.159C0.388,-0.159 0.398,-0.147 0.398,-0.124ZM0.311,-0.354C0.311,-0.383 0.303,-0.41 0.286,-0.436C0.27,-0.461 0.247,-0.474 0.22,-0.474C0.187,-0.474 0.16,-0.453 0.139,-0.411C0.121,-0.376 0.113,-0.34 0.113,-0.303C0.113,-0.278 0.12,-0.258 0.136,-0.242C0.151,-0.226 0.171,-0.218 0.195,-0.218C0.229,-0.218 0.258,-0.232 0.28,-0.261C0.301,-0.288 0.311,-0.319 0.311,-0.354Z"
          style="fill-rule:nonzero;fill:white"
        />
      </g>
      <g transform="matrix(12,0,0,12,594.653,253.548)">
        <path
          d="M0.428,-0.794C0.428,-0.775 0.425,-0.75 0.42,-0.72C0.414,-0.681 0.41,-0.656 0.409,-0.646C0.406,-0.62 0.402,-0.535 0.396,-0.389C0.391,-0.255 0.389,-0.182 0.389,-0.168C0.389,-0.078 0.397,-0.015 0.413,0.021C0.407,0.03 0.399,0.035 0.39,0.035C0.382,0.035 0.372,0.031 0.362,0.023C0.351,0.014 0.345,0.006 0.343,-0.003C0.343,-0.019 0.34,-0.045 0.335,-0.079C0.286,-0.016 0.239,0.015 0.194,0.015C0.14,0.015 0.098,-0.005 0.069,-0.046C0.044,-0.081 0.031,-0.128 0.031,-0.185C0.031,-0.255 0.044,-0.327 0.07,-0.403C0.103,-0.501 0.148,-0.55 0.203,-0.55C0.226,-0.55 0.25,-0.541 0.274,-0.524C0.279,-0.52 0.298,-0.503 0.333,-0.471C0.341,-0.528 0.345,-0.652 0.345,-0.844C0.351,-0.85 0.359,-0.853 0.369,-0.853C0.385,-0.853 0.398,-0.847 0.41,-0.835C0.422,-0.823 0.428,-0.81 0.428,-0.794ZM0.334,-0.333C0.334,-0.369 0.325,-0.402 0.309,-0.431C0.289,-0.466 0.262,-0.484 0.228,-0.484C0.186,-0.484 0.153,-0.441 0.128,-0.356C0.108,-0.292 0.097,-0.232 0.098,-0.175C0.097,-0.138 0.103,-0.107 0.115,-0.08C0.131,-0.045 0.155,-0.028 0.186,-0.028C0.238,-0.028 0.277,-0.067 0.304,-0.148C0.324,-0.205 0.334,-0.267 0.334,-0.333Z"
          style="fill-rule:nonzero;fill:white"
        />
      </g>
      <g transform="matrix(12,0,0,12,600.158,253.548)">
        <path
          d="M0.398,-0.124C0.398,-0.087 0.373,-0.054 0.324,-0.025C0.28,0.002 0.238,0.015 0.199,0.015C0.087,0.015 0.031,-0.056 0.031,-0.198C0.031,-0.26 0.043,-0.327 0.065,-0.399C0.095,-0.492 0.133,-0.539 0.18,-0.539C0.22,-0.539 0.264,-0.519 0.311,-0.478C0.359,-0.438 0.383,-0.397 0.383,-0.358C0.383,-0.306 0.362,-0.261 0.32,-0.223C0.278,-0.184 0.231,-0.165 0.179,-0.165C0.174,-0.165 0.163,-0.169 0.147,-0.178C0.131,-0.186 0.12,-0.19 0.114,-0.19C0.103,-0.19 0.097,-0.187 0.098,-0.18C0.097,-0.084 0.129,-0.036 0.193,-0.036C0.225,-0.036 0.255,-0.047 0.283,-0.069C0.299,-0.081 0.318,-0.101 0.338,-0.128C0.353,-0.148 0.364,-0.159 0.369,-0.159C0.388,-0.159 0.398,-0.147 0.398,-0.124ZM0.311,-0.354C0.311,-0.383 0.303,-0.41 0.286,-0.436C0.27,-0.461 0.247,-0.474 0.22,-0.474C0.187,-0.474 0.16,-0.453 0.139,-0.411C0.121,-0.376 0.113,-0.34 0.113,-0.303C0.113,-0.278 0.12,-0.258 0.136,-0.242C0.151,-0.226 0.171,-0.218 0.195,-0.218C0.229,-0.218 0.258,-0.232 0.28,-0.261C0.301,-0.288 0.311,-0.319 0.311,-0.354Z"
          style="fill-rule:nonzero;fill:white"
        />
      </g>
      <g transform="matrix(12,0,0,12,605.228,253.548)">
        <path
          d="M0.605,0.008C0.588,0.018 0.574,0.024 0.565,0.024C0.559,0.024 0.551,0.021 0.54,0.015C0.541,0.002 0.541,-0.021 0.541,-0.053C0.542,-0.082 0.543,-0.104 0.543,-0.12C0.543,-0.377 0.516,-0.505 0.463,-0.505C0.431,-0.505 0.403,-0.465 0.38,-0.385C0.362,-0.321 0.353,-0.267 0.353,-0.223L0.353,-0.098C0.353,-0.091 0.354,-0.081 0.358,-0.069C0.362,-0.057 0.364,-0.048 0.364,-0.043C0.364,-0.036 0.359,-0.029 0.35,-0.023C0.341,-0.016 0.333,-0.013 0.326,-0.013C0.319,-0.013 0.31,-0.018 0.301,-0.028C0.292,-0.039 0.288,-0.048 0.288,-0.055L0.288,-0.306C0.288,-0.333 0.283,-0.367 0.274,-0.408C0.262,-0.459 0.248,-0.485 0.231,-0.485C0.222,-0.485 0.208,-0.473 0.19,-0.45C0.128,-0.37 0.096,-0.272 0.096,-0.155C0.096,-0.141 0.098,-0.12 0.101,-0.092C0.105,-0.064 0.106,-0.043 0.106,-0.03C0.106,-0.005 0.096,0.008 0.075,0.008C0.065,0.008 0.056,0.003 0.049,-0.005C0.045,-0.009 0.042,-0.028 0.038,-0.061C0.033,-0.091 0.031,-0.112 0.031,-0.123L0.031,-0.418C0.031,-0.503 0.041,-0.545 0.061,-0.545C0.07,-0.545 0.078,-0.541 0.087,-0.533C0.096,-0.525 0.1,-0.517 0.1,-0.509C0.1,-0.491 0.097,-0.468 0.093,-0.44C0.088,-0.403 0.085,-0.38 0.084,-0.371L0.09,-0.365C0.106,-0.401 0.122,-0.437 0.138,-0.473C0.16,-0.518 0.187,-0.541 0.218,-0.541C0.261,-0.541 0.298,-0.495 0.33,-0.401C0.338,-0.411 0.349,-0.432 0.361,-0.464C0.374,-0.495 0.385,-0.518 0.395,-0.531C0.411,-0.551 0.43,-0.561 0.454,-0.561C0.476,-0.561 0.501,-0.546 0.529,-0.516C0.58,-0.462 0.605,-0.364 0.605,-0.223L0.605,0.008Z"
          style="fill-rule:nonzero;fill:white"
        />
      </g>
      <g transform="matrix(12,0,0,12,612.983,253.548)">
        <path
          d="M0.428,-0.246C0.428,-0.175 0.412,-0.112 0.38,-0.059C0.342,0.005 0.29,0.038 0.224,0.038C0.156,0.038 0.106,0.011 0.073,-0.041C0.045,-0.085 0.031,-0.142 0.031,-0.214C0.031,-0.285 0.047,-0.354 0.079,-0.423C0.119,-0.507 0.17,-0.549 0.231,-0.549C0.247,-0.549 0.27,-0.54 0.299,-0.521C0.385,-0.468 0.428,-0.376 0.428,-0.246ZM0.368,-0.248C0.368,-0.301 0.36,-0.349 0.346,-0.391C0.325,-0.45 0.293,-0.48 0.25,-0.48C0.2,-0.48 0.161,-0.447 0.133,-0.381C0.111,-0.33 0.1,-0.276 0.1,-0.218C0.1,-0.165 0.108,-0.121 0.123,-0.085C0.144,-0.036 0.178,-0.011 0.224,-0.011C0.274,-0.011 0.312,-0.04 0.338,-0.096C0.358,-0.14 0.368,-0.191 0.368,-0.248Z"
          style="fill-rule:nonzero;fill:white"
        />
      </g>
    </g>
  </g>
</svg>
