<?xml version="1.0" encoding="UTF-8" standalone="no"?>
<!DOCTYPE svg PUBLIC "-//W3C//DTD SVG 1.1//EN" "http://www.w3.org/Graphics/SVG/1.1/DTD/svg11.dtd"
><svg
  width="100%"
  height="100%"
  viewBox="0 0 108 118"
  version="1.1"
  xmlns="http://www.w3.org/2000/svg"
  xmlns:xlink="http://www.w3.org/1999/xlink"
  xml:space="preserve"
  xmlns:serif="http://www.serif.com/"
  style="fill-rule:evenodd;clip-rule:evenodd;stroke-linecap:round;stroke-linejoin:round;stroke-miterlimit:1.5;"
>
  <path
    d="M47.283,75.438c-4.56,2.471 9.425,-18.409 11.879,-22.09c3.799,-5.697 35.986,-37.323 40.807,-37.323"
    style="fill:none;stroke:#fff;stroke-width:1px;"
  />
  <path
    d="M99.825,16.059c1.476,0.478 -23.148,4.407 -23.148,7.206"
    style="fill:none;stroke:#fff;stroke-width:1px;"
  />
  <path
    d="M99.657,16.04c1.033,-0.492 -1.354,5.965 -1.552,6.758c-1.322,5.289 -2.986,10.389 -2.986,15.925"
    style="fill:none;stroke:#fff;stroke-width:1px;"
  />
  <g>
    <path
      d="M13.771,76.336c-0.119,0.429 -0.38,0.588 -0.785,0.477c-0.24,-0.067 -0.437,-0.216 -0.59,-0.449c-0.154,-0.233 -0.199,-0.463 -0.136,-0.691c0.119,-0.429 0.393,-0.585 0.823,-0.466c0.253,0.07 0.448,0.212 0.586,0.427c0.138,0.215 0.172,0.449 0.102,0.702Zm-1.146,2.744c-0.063,0.228 -0.207,0.555 -0.434,0.982c-0.227,0.428 -0.372,0.755 -0.435,0.982l-1.157,4.191c-0.076,0.278 -0.124,0.673 -0.143,1.185c-0.079,0.087 -0.162,0.118 -0.251,0.094c-0.619,-0.171 -0.847,-0.554 -0.683,-1.148l1.922,-6.959c0.189,-0.043 0.359,-0.044 0.511,-0.002c0.151,0.042 0.297,0.13 0.437,0.264c0.19,0.148 0.268,0.285 0.233,0.411Z"
      style="fill-rule:nonzero;fill:#fff"
    />
    <path
      d="M17.871,88.61c-0.114,0.118 -0.241,0.158 -0.38,0.12c-0.139,-0.039 -0.342,-0.19 -0.609,-0.454l0.042,-0.152c0.031,-0.114 0.085,-0.282 0.16,-0.507c0.076,-0.224 0.127,-0.386 0.155,-0.487c1.159,-4.197 1.214,-6.441 0.165,-6.73c-0.329,-0.091 -0.749,0.051 -1.261,0.427c-1.289,0.923 -2.183,2.288 -2.682,4.096c-0.066,0.24 -0.122,0.602 -0.167,1.087c-0.046,0.484 -0.101,0.846 -0.168,1.086c-0.052,0.19 -0.211,0.248 -0.477,0.174c-0.505,-0.139 -0.648,-0.607 -0.428,-1.404l1.188,-4.304c0.032,-0.114 0.09,-0.275 0.174,-0.482c0.085,-0.208 0.143,-0.369 0.174,-0.483c0.046,-0.164 0.09,-0.411 0.133,-0.739c0.043,-0.328 0.086,-0.568 0.127,-0.72c0.028,-0.101 0.14,-0.196 0.334,-0.285c0.195,-0.089 0.337,-0.122 0.425,-0.097c0.164,0.045 0.292,0.176 0.382,0.391c-0.265,0.811 -0.417,1.286 -0.455,1.425c-0.052,0.19 -0.097,0.375 -0.133,0.556c0.124,-0.007 0.334,-0.174 0.628,-0.501c0.373,-0.414 0.666,-0.686 0.879,-0.818c0.401,-0.27 0.798,-0.351 1.19,-0.243c0.151,0.042 0.363,0.162 0.635,0.359c0.613,0.441 0.984,0.993 1.115,1.655c0.217,1.135 0.099,2.524 -0.355,4.167l-0.791,2.863Z"
      style="fill-rule:nonzero;fill:#fff"
    />
    <path
      d="M23.946,83.757c-0.122,0.048 -0.38,0.045 -0.773,-0.009c-0.431,-0.065 -0.684,-0.087 -0.757,-0.066c-0.051,0.135 -0.251,0.835 -0.6,2.099c-0.273,0.986 -0.443,1.653 -0.512,2.002c-0.039,0.139 -0.068,0.369 -0.089,0.689c-0.02,0.321 -0.053,0.564 -0.099,0.728c-0.028,0.101 -0.119,0.185 -0.273,0.251c-0.154,0.066 -0.282,0.086 -0.383,0.058c-0.253,-0.07 -0.384,-0.385 -0.392,-0.945c0.003,-0.407 0.052,-0.782 0.146,-1.123c0.493,-1.782 0.868,-3.094 1.127,-3.934c-0.058,-0.084 -0.349,-0.164 -0.872,-0.24c-0.418,-0.062 -0.58,-0.263 -0.486,-0.604c0.132,-0.48 0.705,-0.56 1.719,-0.24l1.194,-3.364c0.011,-0.038 0.011,-0.102 0.002,-0.193c-0.008,-0.091 -0.008,-0.155 0.003,-0.193c0.021,-0.076 0.091,-0.135 0.212,-0.176c0.12,-0.042 0.248,-0.037 0.384,0.014c0.432,0.16 0.592,0.442 0.48,0.847c-0.087,0.316 -0.262,0.778 -0.525,1.385c-0.263,0.608 -0.437,1.063 -0.521,1.367c-0.042,0.151 -0.069,0.3 -0.082,0.446l1.058,0.231c0.354,0.098 0.493,0.286 0.416,0.564c-0.056,0.202 -0.181,0.338 -0.377,0.406Z"
      style="fill-rule:nonzero;fill:#fff"
    />
    <path
      d="M28.864,89.523c-0.154,0.556 -0.665,0.953 -1.533,1.189c-0.781,0.22 -1.469,0.248 -2.063,0.083c-1.694,-0.467 -2.245,-1.776 -1.651,-3.925c0.262,-0.948 0.713,-1.918 1.355,-2.911c0.846,-1.29 1.623,-1.838 2.331,-1.642c0.606,0.167 1.185,0.657 1.737,1.469c0.551,0.812 0.743,1.522 0.575,2.128c-0.216,0.784 -0.721,1.38 -1.513,1.787c-0.793,0.407 -1.587,0.5 -2.384,0.28c-0.076,-0.021 -0.219,-0.128 -0.431,-0.323c-0.212,-0.194 -0.362,-0.304 -0.45,-0.328c-0.164,-0.046 -0.261,-0.018 -0.289,0.083c-0.401,1.454 -0.121,2.314 0.839,2.579c0.493,0.136 0.994,0.097 1.502,-0.116c0.305,-0.12 0.665,-0.34 1.08,-0.661c0.328,-0.25 0.529,-0.364 0.605,-0.343c0.291,0.08 0.387,0.297 0.29,0.651Zm-0.345,-3.85c0.122,-0.443 0.11,-0.891 -0.037,-1.347c-0.146,-0.455 -0.428,-0.74 -0.845,-0.856c-0.506,-0.139 -1.004,0.063 -1.494,0.608c-0.412,0.458 -0.697,0.971 -0.854,1.54c-0.101,0.366 -0.069,0.705 0.097,1.016c0.166,0.311 0.432,0.518 0.799,0.619c0.518,0.143 1.009,0.04 1.472,-0.308c0.428,-0.317 0.715,-0.741 0.862,-1.272Z"
      style="fill-rule:nonzero;fill:#fff"
    />
    <path
      d="M35.272,86.048c-0.014,0.051 -0.05,0.156 -0.108,0.317c-0.234,0.208 -0.427,0.29 -0.579,0.248c-0.101,-0.028 -0.172,-0.115 -0.213,-0.263c0.182,-0.806 -0.036,-1.295 -0.656,-1.466c-0.404,-0.112 -1.009,0.524 -1.812,1.907c-0.302,0.502 -0.579,1.208 -0.83,2.118c-0.321,1.163 -0.487,1.886 -0.497,2.169c0.002,0.041 0.012,0.129 0.03,0.263c0.017,0.134 0.017,0.233 -0.001,0.296c-0.076,0.278 -0.304,0.365 -0.684,0.26c-0.429,-0.119 -0.583,-0.399 -0.461,-0.842c0.017,-0.063 0.059,-0.15 0.123,-0.261c0.065,-0.112 0.106,-0.199 0.124,-0.262c0.192,-0.696 0.448,-1.747 0.769,-3.155c0.32,-1.408 0.577,-2.46 0.769,-3.155c0.07,-0.253 0.157,-0.396 0.261,-0.428c0.104,-0.032 0.283,-0.014 0.535,0.056c0.316,0.087 0.468,0.252 0.456,0.493c-0.057,0.257 -0.113,0.507 -0.166,0.75c0.468,-0.415 0.736,-0.647 0.804,-0.696c0.366,-0.239 0.7,-0.317 1.003,-0.233c0.228,0.063 0.436,0.195 0.625,0.397c0.106,0.111 0.226,0.355 0.36,0.732c0.133,0.377 0.183,0.629 0.148,0.755Z"
      style="fill-rule:nonzero;fill:#fff"
    />
    <path
      d="M39.078,94.956c-0.049,0.177 -0.213,0.227 -0.491,0.15c-0.303,-0.084 -0.452,-0.261 -0.445,-0.531c-0.002,-0.042 0.06,-0.29 0.185,-0.745c0.035,-0.126 0.044,-0.233 0.027,-0.319c-0.851,0.323 -1.687,0.371 -2.509,0.144c-0.569,-0.157 -1.075,-0.467 -1.519,-0.93c-0.509,-0.521 -0.69,-1.047 -0.543,-1.578c0.143,-0.519 0.643,-0.925 1.499,-1.219c0.783,-0.273 1.453,-0.333 2.009,-0.18l1.877,0.519c0.097,-0.055 0.172,-0.178 0.224,-0.367c0.234,-0.847 0.341,-1.505 0.32,-1.973c-0.028,-0.783 -0.378,-1.268 -1.048,-1.453c-0.48,-0.132 -1.006,0.049 -1.578,0.544c-0.52,0.455 -0.85,0.935 -0.99,1.441l-0.058,0.209c-0.027,0.101 -0.092,0.137 -0.193,0.109c-0.127,-0.034 -0.245,-0.149 -0.354,-0.342c-0.11,-0.194 -0.149,-0.348 -0.118,-0.461c0.098,-0.354 0.328,-0.77 0.691,-1.248c0.364,-0.478 0.71,-0.821 1.04,-1.029c0.41,-0.254 0.849,-0.317 1.317,-0.188c0.72,0.199 1.321,0.61 1.802,1.233c0.509,0.671 0.673,1.356 0.494,2.054l-1.639,6.16Zm-0.173,-3.293c0.14,-0.505 -0.182,-0.866 -0.966,-1.083c-0.62,-0.171 -1.193,-0.214 -1.72,-0.128c-0.671,0.114 -1.083,0.449 -1.237,1.006c-0.094,0.341 -0.009,0.65 0.255,0.927c0.22,0.238 0.513,0.407 0.88,0.508c0.543,0.15 1.107,0.116 1.692,-0.104c0.584,-0.22 0.95,-0.595 1.096,-1.126Z"
      style="fill-rule:nonzero;fill:#fff"
    />
    <path
      d="M46.866,94.392c-0.084,0.303 -0.456,0.639 -1.115,1.008c-0.66,0.369 -1.167,0.552 -1.52,0.55c-0.48,0.017 -0.866,-0.015 -1.157,-0.095c-0.923,-0.255 -1.538,-0.785 -1.846,-1.591c-0.291,-0.72 -0.306,-1.554 -0.044,-2.502c0.269,-0.974 0.777,-2.003 1.526,-3.089c0.93,-1.348 1.781,-1.916 2.552,-1.703c0.367,0.101 0.804,0.416 1.311,0.943c0.507,0.528 0.753,0.967 0.739,1.317c-0.02,0.416 -0.082,0.814 -0.187,1.193c-0.384,1.39 -0.785,2.028 -1.202,1.913c-0.101,-0.028 -0.21,-0.099 -0.329,-0.213c-0.118,-0.115 -0.163,-0.222 -0.135,-0.323c0.014,-0.051 0.058,-0.11 0.131,-0.179c0.073,-0.068 0.12,-0.113 0.139,-0.135c0.096,-0.15 0.226,-0.522 0.39,-1.116c0.388,-1.404 0.265,-2.192 -0.367,-2.367c-0.695,-0.192 -1.44,0.289 -2.235,1.444c-0.601,0.895 -1.024,1.785 -1.268,2.67c-0.188,0.683 -0.238,1.281 -0.149,1.796c0.127,0.674 0.494,1.095 1.1,1.263c0.367,0.101 0.849,0.03 1.447,-0.213c0.537,-0.219 0.965,-0.489 1.284,-0.809c0.086,-0.112 0.211,-0.268 0.374,-0.468c0.088,-0.071 0.189,-0.091 0.303,-0.059c0.075,0.021 0.144,0.131 0.204,0.332c0.06,0.2 0.078,0.344 0.054,0.433Z"
      style="fill-rule:nonzero;fill:#fff"
    />
    <path
      d="M51.801,91.449c-0.122,0.048 -0.38,0.044 -0.773,-0.01c-0.431,-0.064 -0.684,-0.086 -0.757,-0.066c-0.051,0.136 -0.251,0.835 -0.601,2.1c-0.272,0.986 -0.442,1.653 -0.511,2.001c-0.039,0.139 -0.068,0.369 -0.089,0.69c-0.02,0.321 -0.053,0.563 -0.099,0.728c-0.028,0.101 -0.119,0.184 -0.273,0.251c-0.154,0.066 -0.282,0.085 -0.383,0.057c-0.253,-0.07 -0.384,-0.385 -0.392,-0.945c0.003,-0.407 0.052,-0.781 0.146,-1.123c0.492,-1.782 0.868,-3.093 1.127,-3.933c-0.058,-0.084 -0.349,-0.165 -0.872,-0.241c-0.418,-0.061 -0.581,-0.262 -0.486,-0.604c0.132,-0.48 0.705,-0.56 1.719,-0.239l1.194,-3.364c0.011,-0.038 0.011,-0.103 0.002,-0.193c-0.009,-0.091 -0.008,-0.156 0.003,-0.194c0.021,-0.076 0.091,-0.134 0.212,-0.176c0.12,-0.041 0.248,-0.037 0.383,0.014c0.432,0.16 0.593,0.443 0.481,0.847c-0.087,0.316 -0.263,0.778 -0.526,1.386c-0.263,0.607 -0.436,1.063 -0.52,1.366c-0.042,0.152 -0.069,0.301 -0.082,0.447l1.058,0.231c0.354,0.098 0.493,0.286 0.416,0.564c-0.056,0.202 -0.182,0.337 -0.377,0.406Z"
      style="fill-rule:nonzero;fill:#fff"
    />
    <path
      d="M55.904,87.97c-0.119,0.429 -0.38,0.588 -0.785,0.477c-0.24,-0.067 -0.437,-0.216 -0.59,-0.449c-0.153,-0.233 -0.199,-0.463 -0.136,-0.691c0.119,-0.429 0.393,-0.585 0.823,-0.466c0.253,0.07 0.448,0.212 0.586,0.427c0.138,0.215 0.172,0.449 0.102,0.702Zm-1.145,2.744c-0.063,0.228 -0.208,0.555 -0.435,0.982c-0.227,0.428 -0.372,0.755 -0.434,0.982l-1.157,4.191c-0.077,0.278 -0.125,0.673 -0.144,1.185c-0.078,0.087 -0.162,0.118 -0.25,0.094c-0.62,-0.171 -0.848,-0.554 -0.683,-1.148l1.921,-6.959c0.189,-0.043 0.359,-0.044 0.511,-0.002c0.151,0.042 0.297,0.13 0.437,0.264c0.191,0.148 0.268,0.285 0.234,0.411Z"
      style="fill-rule:nonzero;fill:#fff"
    />
    <path
      d="M59.79,98.063c-0.153,0.556 -0.664,0.952 -1.532,1.189c-0.782,0.219 -1.47,0.247 -2.064,0.083c-1.694,-0.468 -2.244,-1.776 -1.65,-3.925c0.261,-0.948 0.713,-1.919 1.354,-2.912c0.846,-1.29 1.623,-1.837 2.331,-1.642c0.607,0.168 1.186,0.658 1.737,1.47c0.552,0.812 0.744,1.521 0.576,2.128c-0.216,0.784 -0.721,1.379 -1.514,1.786c-0.792,0.407 -1.587,0.501 -2.383,0.281c-0.076,-0.021 -0.22,-0.129 -0.431,-0.323c-0.212,-0.195 -0.362,-0.304 -0.45,-0.329c-0.165,-0.045 -0.261,-0.017 -0.289,0.084c-0.401,1.454 -0.122,2.313 0.839,2.578c0.493,0.137 0.994,0.098 1.502,-0.116c0.305,-0.119 0.665,-0.34 1.08,-0.66c0.327,-0.25 0.529,-0.364 0.605,-0.344c0.291,0.081 0.387,0.298 0.289,0.652Zm-0.345,-3.85c0.123,-0.443 0.111,-0.892 -0.036,-1.347c-0.146,-0.456 -0.428,-0.741 -0.845,-0.856c-0.506,-0.14 -1.004,0.063 -1.494,0.608c-0.412,0.457 -0.697,0.971 -0.854,1.54c-0.101,0.366 -0.069,0.705 0.097,1.016c0.166,0.311 0.432,0.517 0.798,0.618c0.519,0.144 1.009,0.041 1.473,-0.307c0.428,-0.317 0.715,-0.741 0.861,-1.272Z"
      style="fill-rule:nonzero;fill:#fff"
    />
    <path
      d="M67.651,94.132c-0.224,1.108 -0.865,2.543 -1.923,4.305c-1.156,1.967 -2.049,2.863 -2.681,2.688c-0.759,-0.209 -1.232,-1.204 -1.421,-2.984c-0.123,-1.081 -0.134,-2.323 -0.033,-3.723c0.044,-0.655 0.161,-1.323 0.349,-2.006c0.028,-0.101 0.111,-0.19 0.248,-0.268c0.137,-0.078 0.256,-0.103 0.357,-0.075c0.152,0.042 0.345,0.231 0.578,0.568c-0.11,0.201 -0.194,0.409 -0.254,0.624c-0.212,0.771 -0.317,1.742 -0.314,2.913c0.006,1.063 0.09,2.038 0.253,2.927c0.096,0.489 0.214,0.753 0.353,0.791c0.493,0.136 1.197,-0.738 2.111,-2.621c0.704,-1.465 1.189,-2.679 1.454,-3.639c0.021,-0.076 0.104,-0.142 0.248,-0.197c0.145,-0.055 0.261,-0.071 0.35,-0.046c0.316,0.087 0.424,0.335 0.325,0.743Z"
      style="fill-rule:nonzero;fill:#fff"
    />
    <path
      d="M72.135,101.471c-0.154,0.557 -0.665,0.953 -1.533,1.189c-0.781,0.22 -1.469,0.248 -2.064,0.084c-1.693,-0.468 -2.244,-1.776 -1.65,-3.925c0.261,-0.949 0.713,-1.919 1.355,-2.912c0.846,-1.29 1.623,-1.837 2.331,-1.642c0.606,0.168 1.185,0.657 1.737,1.469c0.551,0.812 0.743,1.522 0.575,2.129c-0.216,0.783 -0.721,1.379 -1.513,1.786c-0.793,0.407 -1.588,0.5 -2.384,0.28c-0.076,-0.021 -0.22,-0.128 -0.431,-0.323c-0.212,-0.194 -0.362,-0.304 -0.45,-0.328c-0.165,-0.046 -0.261,-0.018 -0.289,0.083c-0.401,1.454 -0.121,2.314 0.839,2.579c0.493,0.136 0.994,0.097 1.502,-0.116c0.305,-0.12 0.665,-0.34 1.08,-0.661c0.328,-0.25 0.529,-0.364 0.605,-0.343c0.291,0.08 0.387,0.297 0.29,0.651Zm-0.345,-3.85c0.122,-0.442 0.11,-0.891 -0.037,-1.347c-0.146,-0.455 -0.428,-0.74 -0.845,-0.855c-0.506,-0.14 -1.004,0.063 -1.494,0.607c-0.412,0.458 -0.697,0.971 -0.854,1.54c-0.101,0.367 -0.069,0.705 0.097,1.017c0.166,0.311 0.432,0.517 0.798,0.618c0.519,0.143 1.01,0.041 1.473,-0.308c0.428,-0.317 0.715,-0.741 0.862,-1.272Z"
      style="fill-rule:nonzero;fill:#fff"
    />
    <path
      d="M30.86,95.707c-0.08,0.291 -0.221,0.653 -0.423,1.087c-0.252,0.57 -0.412,0.927 -0.479,1.072c-0.146,0.381 -0.569,1.666 -1.268,3.854c-0.635,2.001 -0.981,3.11 -1.041,3.325c-0.373,1.352 -0.517,2.34 -0.43,2.962c-0.127,0.115 -0.26,0.153 -0.399,0.115c-0.126,-0.035 -0.251,-0.138 -0.374,-0.308c-0.123,-0.17 -0.187,-0.323 -0.19,-0.46c0.07,-0.253 0.139,-0.649 0.206,-1.188c-1.008,0.742 -1.853,1.019 -2.535,0.83c-0.822,-0.227 -1.369,-0.711 -1.64,-1.453c-0.233,-0.635 -0.228,-1.389 0.012,-2.261c0.294,-1.062 0.793,-2.108 1.499,-3.137c0.918,-1.352 1.794,-1.913 2.628,-1.683c0.354,0.098 0.678,0.33 0.971,0.697c0.062,0.071 0.286,0.419 0.671,1.042c0.364,-0.825 0.947,-2.691 1.75,-5.598c0.113,-0.064 0.245,-0.075 0.397,-0.033c0.24,0.066 0.424,0.212 0.552,0.438c0.129,0.226 0.159,0.459 0.093,0.699Zm-3.354,6.604c0.154,-0.556 0.165,-1.09 0.034,-1.603c-0.156,-0.614 -0.494,-0.993 -1.012,-1.136c-0.632,-0.175 -1.316,0.33 -2.051,1.515c-0.572,0.89 -0.977,1.764 -1.214,2.624c-0.154,0.556 -0.198,1.061 -0.133,1.514c0.094,0.597 0.381,0.962 0.861,1.095c0.784,0.216 1.545,-0.226 2.285,-1.328c0.544,-0.789 0.954,-1.682 1.23,-2.681Z"
      style="fill-rule:nonzero;fill:#fff"
    />
    <path
      d="M34.558,107.666c-0.154,0.557 -0.665,0.953 -1.533,1.189c-0.781,0.22 -1.469,0.248 -2.063,0.084c-1.694,-0.468 -2.245,-1.776 -1.651,-3.925c0.262,-0.949 0.713,-1.919 1.355,-2.912c0.846,-1.29 1.623,-1.837 2.331,-1.642c0.606,0.168 1.185,0.657 1.737,1.469c0.551,0.812 0.743,1.522 0.575,2.129c-0.216,0.783 -0.721,1.379 -1.513,1.786c-0.793,0.407 -1.587,0.5 -2.384,0.28c-0.076,-0.021 -0.219,-0.128 -0.431,-0.323c-0.212,-0.194 -0.362,-0.304 -0.45,-0.328c-0.165,-0.046 -0.261,-0.018 -0.289,0.083c-0.401,1.454 -0.121,2.314 0.839,2.579c0.493,0.136 0.994,0.097 1.502,-0.116c0.305,-0.12 0.665,-0.34 1.08,-0.661c0.328,-0.25 0.529,-0.364 0.605,-0.343c0.291,0.08 0.387,0.297 0.29,0.651Zm-0.345,-3.85c0.122,-0.442 0.11,-0.891 -0.037,-1.347c-0.146,-0.455 -0.428,-0.74 -0.845,-0.855c-0.506,-0.14 -1.004,0.063 -1.494,0.607c-0.412,0.458 -0.697,0.971 -0.854,1.54c-0.101,0.367 -0.069,0.706 0.097,1.017c0.166,0.311 0.432,0.517 0.799,0.618c0.518,0.143 1.009,0.041 1.472,-0.308c0.428,-0.317 0.715,-0.741 0.862,-1.272Z"
      style="fill-rule:nonzero;fill:#fff"
    />
    <path
      d="M43.565,112.296c-0.311,0.091 -0.536,0.118 -0.675,0.079c-0.089,-0.024 -0.203,-0.103 -0.343,-0.237c0.069,-0.199 0.169,-0.539 0.302,-1.019c0.135,-0.439 0.235,-0.778 0.302,-1.019c1.075,-3.893 1.208,-5.952 0.399,-6.175c-0.481,-0.133 -1.065,0.359 -1.754,1.475c-0.547,0.896 -0.913,1.68 -1.098,2.35l-0.524,1.896c-0.028,0.101 -0.039,0.251 -0.032,0.45c0.006,0.199 -0.003,0.343 -0.028,0.431c-0.027,0.101 -0.125,0.183 -0.292,0.246c-0.167,0.063 -0.301,0.08 -0.402,0.052c-0.114,-0.031 -0.218,-0.145 -0.314,-0.341c-0.095,-0.197 -0.127,-0.352 -0.096,-0.466l1.053,-3.811c0.111,-0.405 0.183,-0.936 0.215,-1.594c0.04,-0.832 -0.067,-1.283 -0.32,-1.353c-0.139,-0.039 -0.397,0.081 -0.772,0.358c-1.284,0.952 -2.169,2.312 -2.658,4.082c-0.059,0.215 -0.122,0.541 -0.189,0.979c-0.066,0.437 -0.127,0.757 -0.183,0.959c-0.105,0.38 -0.315,0.526 -0.631,0.438c-0.152,-0.042 -0.267,-0.142 -0.346,-0.299c-0.033,-0.077 -0.011,-0.378 0.065,-0.901c0.062,-0.472 0.116,-0.791 0.162,-0.955l1.235,-4.475c0.356,-1.289 0.686,-1.892 0.99,-1.808c0.126,0.034 0.239,0.13 0.338,0.287c0.1,0.157 0.132,0.298 0.097,0.425c-0.073,0.265 -0.207,0.602 -0.401,1.011c-0.23,0.535 -0.37,0.871 -0.421,1.006l0.069,0.121c0.39,-0.477 0.78,-0.954 1.171,-1.431c0.533,-0.601 1.033,-0.837 1.501,-0.708c0.657,0.181 1.031,1.046 1.12,2.595c0.168,-0.117 0.414,-0.389 0.736,-0.817c0.322,-0.428 0.587,-0.723 0.795,-0.883c0.324,-0.237 0.663,-0.307 1.017,-0.209c0.341,0.094 0.657,0.427 0.949,0.997c0.544,1.034 0.519,2.626 -0.074,4.775l-0.963,3.489Z"
      style="fill-rule:nonzero;fill:#fff"
    />
    <path
      d="M51.738,110.41c-0.3,1.088 -0.802,1.969 -1.506,2.646c-0.837,0.816 -1.762,1.085 -2.773,0.805c-1.024,-0.282 -1.679,-0.892 -1.965,-1.828c-0.235,-0.772 -0.203,-1.702 0.097,-2.789c0.297,-1.075 0.829,-2.064 1.595,-2.968c0.959,-1.109 1.907,-1.535 2.842,-1.276c0.24,0.066 0.543,0.299 0.909,0.7c1.079,1.168 1.346,2.738 0.801,4.71Zm-0.905,-0.27c0.224,-0.809 0.317,-1.565 0.28,-2.269c-0.068,-0.985 -0.431,-1.568 -1.088,-1.75c-0.759,-0.209 -1.491,0.126 -2.196,1.006c-0.542,0.68 -0.935,1.463 -1.179,2.348c-0.22,0.796 -0.291,1.498 -0.214,2.104c0.123,0.837 0.532,1.351 1.227,1.543c0.759,0.209 1.452,-0.062 2.082,-0.813c0.488,-0.586 0.851,-1.309 1.088,-2.169Z"
      style="fill-rule:nonzero;fill:#fff"
    />
  </g>
</svg>
