<svg width="189" height="93" viewBox="0 0 189 93" fill="none" xmlns="http://www.w3.org/2000/svg">
<path d="M43.4641 40C42.7281 40 42.0881 39.728 41.5441 39.184C41.0001 38.64 40.7281 38 40.7281 37.264V7.69596C40.7281 6.95996 41.0001 6.31996 41.5441 5.77596C42.0881 5.23196 42.7281 4.95996 43.4641 4.95996H46.2002C46.9362 4.95996 47.5601 5.23196 48.0721 5.77596C48.6161 6.31996 48.8881 6.95996 48.8881 7.69596V18.256C48.8881 18.544 49.0321 18.688 49.3202 18.688H59.2082C59.4962 18.688 59.6402 18.544 59.6402 18.256V7.69596C59.6402 6.95996 59.8961 6.31996 60.4081 5.77596C60.9521 5.23196 61.5921 4.95996 62.3281 4.95996H65.0641C65.8001 4.95996 66.4401 5.23196 66.9841 5.77596C67.5282 6.31996 67.8001 6.95996 67.8001 7.69596V37.264C67.8001 38 67.5282 38.64 66.9841 39.184C66.4401 39.728 65.8001 40 65.0641 40H62.3281C61.5921 40 60.9521 39.728 60.4081 39.184C59.8961 38.64 59.6402 38 59.6402 37.264V25.264C59.6402 25.008 59.4962 24.88 59.2082 24.88H49.3202C49.0321 24.88 48.8881 25.008 48.8881 25.264V37.264C48.8881 38 48.6161 38.64 48.0721 39.184C47.5601 39.728 46.9362 40 46.2002 40H43.4641Z" fill="white"/>
<path d="M87.9415 12.064L84.4375 25.84C84.4055 25.936 84.4215 26.032 84.4855 26.128C84.5815 26.192 84.6775 26.224 84.7735 26.224H91.2055C91.3015 26.224 91.3815 26.192 91.4455 26.128C91.5415 26.032 91.5735 25.936 91.5415 25.84L88.0375 12.064C88.0375 12.032 88.0215 12.016 87.9895 12.016C87.9575 12.016 87.9415 12.032 87.9415 12.064ZM75.1255 40C74.4535 40 73.9095 39.728 73.4935 39.184C73.1095 38.64 73.0295 38.048 73.2535 37.408L82.9495 7.55196C83.2055 6.78396 83.6535 6.15996 84.2935 5.67996C84.9655 5.19996 85.7015 4.95996 86.5015 4.95996H89.6695C90.5015 4.95996 91.2535 5.19996 91.9255 5.67996C92.5975 6.15996 93.0455 6.78396 93.2695 7.55196L102.918 37.408C103.142 38.048 103.046 38.64 102.63 39.184C102.246 39.728 101.718 40 101.046 40H97.8295C97.0295 40 96.3095 39.76 95.6695 39.28C95.0295 38.768 94.6135 38.128 94.4215 37.36L93.2695 32.8C93.2375 32.544 93.0775 32.416 92.7895 32.416H83.1895C82.9335 32.416 82.7735 32.544 82.7095 32.8L81.5575 37.36C81.3655 38.128 80.9495 38.768 80.3095 39.28C79.6695 39.76 78.9495 40 78.1495 40H75.1255Z" fill="white"/>
<path d="M110.447 40C109.711 40 109.071 39.728 108.527 39.184C107.983 38.64 107.711 38 107.711 37.264V7.69596C107.711 6.95996 107.983 6.31996 108.527 5.77596C109.071 5.23196 109.711 4.95996 110.447 4.95996H113.423C114.159 4.95996 114.783 5.23196 115.295 5.77596C115.839 6.31996 116.111 6.95996 116.111 7.69596V32.848C116.111 33.104 116.255 33.232 116.543 33.232H128.207C128.943 33.232 129.583 33.504 130.127 34.048C130.671 34.592 130.943 35.232 130.943 35.968V37.264C130.943 38 130.671 38.64 130.127 39.184C129.583 39.728 128.943 40 128.207 40H110.447Z" fill="white"/>
<path d="M131.746 11.728C131.01 11.728 130.37 11.456 129.826 10.912C129.282 10.368 129.01 9.72796 129.01 8.99196V7.69596C129.01 6.95996 129.282 6.31996 129.826 5.77596C130.37 5.23196 131.01 4.95996 131.746 4.95996H153.154C153.89 4.95996 154.53 5.23196 155.074 5.77596C155.618 6.31996 155.89 6.95996 155.89 7.69596V8.99196C155.89 9.72796 155.618 10.368 155.074 10.912C154.53 11.456 153.89 11.728 153.154 11.728H147.01C146.754 11.728 146.626 11.856 146.626 12.112V37.264C146.626 38 146.354 38.64 145.81 39.184C145.266 39.728 144.626 40 143.89 40H141.01C140.274 40 139.634 39.728 139.09 39.184C138.546 38.64 138.274 38 138.274 37.264V12.112C138.274 11.856 138.146 11.728 137.89 11.728H131.746Z" fill="white"/>
<path d="M165.053 40C164.317 40 163.677 39.728 163.133 39.184C162.621 38.64 162.365 38 162.365 37.264V7.69596C162.365 6.95996 162.621 6.31996 163.133 5.77596C163.677 5.23196 164.317 4.95996 165.053 4.95996H182.045C182.781 4.95996 183.405 5.23196 183.917 5.77596C184.461 6.31996 184.733 6.95996 184.733 7.69596V8.79996C184.733 9.53596 184.461 10.176 183.917 10.72C183.405 11.264 182.781 11.536 182.045 11.536H170.909C170.653 11.536 170.525 11.664 170.525 11.92V18.256C170.525 18.544 170.653 18.688 170.909 18.688H181.085C181.821 18.688 182.445 18.96 182.957 19.504C183.501 20.048 183.773 20.688 183.773 21.424V22.144C183.773 22.88 183.501 23.52 182.957 24.064C182.445 24.608 181.821 24.88 181.085 24.88H170.909C170.653 24.88 170.525 25.008 170.525 25.264V33.04C170.525 33.296 170.653 33.424 170.909 33.424H182.045C182.781 33.424 183.405 33.696 183.917 34.24C184.461 34.784 184.733 35.424 184.733 36.16V37.264C184.733 38 184.461 38.64 183.917 39.184C183.405 39.728 182.781 40 182.045 40H165.053Z" fill="white"/>
<path d="M47.1504 72.12V80.568C47.1504 80.856 47.2944 81.032 47.5824 81.096C48.2544 81.224 49.0704 81.288 50.0304 81.288C52.3024 81.288 53.9664 80.872 55.0224 80.04C56.0784 79.176 56.6064 77.864 56.6064 76.104C56.6064 73.16 54.2064 71.688 49.4064 71.688H47.5344C47.2784 71.688 47.1504 71.832 47.1504 72.12ZM47.1504 58.392V65.448C47.1504 65.704 47.2784 65.832 47.5344 65.832H48.7344C53.4064 65.832 55.7424 64.44 55.7424 61.656C55.7424 59 53.7904 57.672 49.8864 57.672C48.9584 57.672 48.1744 57.736 47.5344 57.864C47.2784 57.928 47.1504 58.104 47.1504 58.392ZM41.8224 87.096C41.0544 87.032 40.4144 86.696 39.9024 86.088C39.3904 85.48 39.1344 84.792 39.1344 84.024V54.936C39.1344 54.136 39.3904 53.448 39.9024 52.872C40.4464 52.264 41.1024 51.928 41.8704 51.864C44.3664 51.608 46.8144 51.48 49.2144 51.48C58.4944 51.48 63.1344 54.472 63.1344 60.456C63.1344 62.472 62.4784 64.184 61.1664 65.592C59.8864 67 58.1584 67.896 55.9824 68.28C55.9504 68.28 55.9344 68.312 55.9344 68.376C55.9344 68.408 55.9664 68.424 56.0304 68.424C58.5584 68.776 60.5584 69.736 62.0304 71.304C63.5344 72.872 64.2864 74.744 64.2864 76.92C64.2864 80.472 63.1024 83.128 60.7344 84.888C58.3984 86.616 54.7184 87.48 49.6944 87.48C47.1664 87.48 44.5424 87.352 41.8224 87.096Z" fill="white"/>
<path d="M94.6897 74.28C94.6897 83.08 90.2097 87.48 81.2497 87.48C72.2897 87.48 67.8096 83.08 67.8096 74.28V54.696C67.8096 53.96 68.0817 53.32 68.6257 52.776C69.1697 52.232 69.8096 51.96 70.5456 51.96H73.3297C74.0657 51.96 74.7057 52.232 75.2497 52.776C75.7937 53.32 76.0657 53.96 76.0657 54.696V74.856C76.0657 77.032 76.4817 78.584 77.3137 79.512C78.1457 80.44 79.4897 80.904 81.3457 80.904C83.2017 80.904 84.5457 80.44 85.3777 79.512C86.2097 78.584 86.6257 77.032 86.6257 74.856V54.696C86.6257 53.96 86.8977 53.32 87.4417 52.776C87.9857 52.232 88.6257 51.96 89.3617 51.96H91.9537C92.6897 51.96 93.3297 52.232 93.8737 52.776C94.4177 53.32 94.6897 53.96 94.6897 54.696V74.28Z" fill="white"/>
<path d="M108.366 58.584V80.376C108.366 80.664 108.51 80.84 108.798 80.904C109.438 81.032 110.206 81.096 111.102 81.096C114.334 81.096 116.718 80.152 118.254 78.264C119.822 76.376 120.606 73.288 120.606 69C120.606 65.16 119.822 62.344 118.254 60.552C116.686 58.76 114.302 57.864 111.102 57.864C110.206 57.864 109.438 57.928 108.798 58.056C108.51 58.12 108.366 58.296 108.366 58.584ZM103.086 87.096C102.318 87.032 101.678 86.712 101.166 86.136C100.654 85.528 100.398 84.824 100.398 84.024V54.936C100.398 54.136 100.654 53.448 101.166 52.872C101.678 52.264 102.318 51.928 103.086 51.864C105.582 51.608 108.046 51.48 110.478 51.48C116.206 51.48 120.622 53 123.726 56.04C126.83 59.08 128.382 63.4 128.382 69C128.382 75.08 126.83 79.688 123.726 82.824C120.622 85.928 116.206 87.48 110.478 87.48C108.046 87.48 105.582 87.352 103.086 87.096Z" fill="white"/>
<path d="M140.381 58.584V80.376C140.381 80.664 140.525 80.84 140.813 80.904C141.453 81.032 142.221 81.096 143.117 81.096C146.349 81.096 148.733 80.152 150.269 78.264C151.837 76.376 152.621 73.288 152.621 69C152.621 65.16 151.837 62.344 150.269 60.552C148.701 58.76 146.317 57.864 143.117 57.864C142.221 57.864 141.453 57.928 140.813 58.056C140.525 58.12 140.381 58.296 140.381 58.584ZM135.101 87.096C134.333 87.032 133.693 86.712 133.181 86.136C132.669 85.528 132.413 84.824 132.413 84.024V54.936C132.413 54.136 132.669 53.448 133.181 52.872C133.693 52.264 134.333 51.928 135.101 51.864C137.597 51.608 140.061 51.48 142.493 51.48C148.221 51.48 152.637 53 155.741 56.04C158.845 59.08 160.397 63.4 160.397 69C160.397 75.08 158.845 79.688 155.741 82.824C152.637 85.928 148.221 87.48 142.493 87.48C140.061 87.48 137.597 87.352 135.101 87.096Z" fill="white"/>
<path d="M169.957 73.176L159.973 54.36C159.685 53.816 159.701 53.288 160.021 52.776C160.341 52.232 160.821 51.96 161.461 51.96H165.349C166.181 51.96 166.933 52.184 167.605 52.632C168.277 53.08 168.773 53.688 169.093 54.456L174.373 66.936C174.373 66.968 174.389 66.984 174.421 66.984C174.453 66.984 174.469 66.968 174.469 66.936L179.749 54.456C180.069 53.688 180.565 53.08 181.237 52.632C181.909 52.184 182.661 51.96 183.493 51.96H187.189C187.797 51.96 188.261 52.232 188.581 52.776C188.933 53.288 188.965 53.816 188.677 54.36L178.693 73.176C178.565 73.4 178.501 73.672 178.501 73.992V84.264C178.501 85 178.229 85.64 177.685 86.184C177.173 86.728 176.549 87 175.813 87H172.837C172.101 87 171.461 86.728 170.917 86.184C170.373 85.64 170.101 85 170.101 84.264V73.992C170.101 73.608 170.053 73.336 169.957 73.176Z" fill="white"/>
<line x1="11.5" y1="73" x2="11.5" y2="18" stroke="white" stroke-width="5"/>
<circle cx="11.5" cy="11.5" r="9" stroke="white" stroke-width="5"/>
<circle cx="11.5" cy="81.5" r="9" stroke="white" stroke-width="5"/>
</svg>
