<svg width="146" height="151" viewBox="0 0 146 151" fill="none" xmlns="http://www.w3.org/2000/svg">
<path d="M6.384 99C5.648 99 5.008 98.728 4.464 98.184C3.92 97.64 3.648 97 3.648 96.264V66.696C3.648 65.96 3.92 65.32 4.464 64.776C5.008 64.232 5.648 63.96 6.384 63.96H9.12C9.856 63.96 10.48 64.232 10.992 64.776C11.536 65.32 11.808 65.96 11.808 66.696V77.256C11.808 77.544 11.952 77.688 12.24 77.688H22.128C22.416 77.688 22.56 77.544 22.56 77.256V66.696C22.56 65.96 22.816 65.32 23.328 64.776C23.872 64.232 24.512 63.96 25.248 63.96H27.984C28.72 63.96 29.36 64.232 29.904 64.776C30.448 65.32 30.72 65.96 30.72 66.696V96.264C30.72 97 30.448 97.64 29.904 98.184C29.36 98.728 28.72 99 27.984 99H25.248C24.512 99 23.872 98.728 23.328 98.184C22.816 97.64 22.56 97 22.56 96.264V84.264C22.56 84.008 22.416 83.88 22.128 83.88H12.24C11.952 83.88 11.808 84.008 11.808 84.264V96.264C11.808 97 11.536 97.64 10.992 98.184C10.48 98.728 9.856 99 9.12 99H6.384ZM49.3614 71.064L45.8574 84.84C45.8254 84.936 45.8414 85.032 45.9054 85.128C46.0014 85.192 46.0974 85.224 46.1934 85.224H52.6254C52.7214 85.224 52.8014 85.192 52.8654 85.128C52.9614 85.032 52.9934 84.936 52.9614 84.84L49.4574 71.064C49.4574 71.032 49.4414 71.016 49.4094 71.016C49.3774 71.016 49.3614 71.032 49.3614 71.064ZM36.5454 99C35.8734 99 35.3294 98.728 34.9134 98.184C34.5294 97.64 34.4494 97.048 34.6734 96.408L44.3694 66.552C44.6254 65.784 45.0734 65.16 45.7134 64.68C46.3854 64.2 47.1214 63.96 47.9214 63.96H51.0894C51.9214 63.96 52.6734 64.2 53.3454 64.68C54.0174 65.16 54.4654 65.784 54.6894 66.552L64.3374 96.408C64.5614 97.048 64.4654 97.64 64.0494 98.184C63.6654 98.728 63.1374 99 62.4654 99H59.2494C58.4494 99 57.7294 98.76 57.0894 98.28C56.4494 97.768 56.0334 97.128 55.8414 96.36L54.6894 91.8C54.6574 91.544 54.4974 91.416 54.2094 91.416H44.6094C44.3534 91.416 44.1934 91.544 44.1294 91.8L42.9774 96.36C42.7854 97.128 42.3694 97.768 41.7294 98.28C41.0894 98.76 40.3694 99 39.5694 99H36.5454ZM70.3664 99C69.6304 99 68.9904 98.728 68.4464 98.184C67.9024 97.64 67.6304 97 67.6304 96.264V66.696C67.6304 65.96 67.9024 65.32 68.4464 64.776C68.9904 64.232 69.6304 63.96 70.3664 63.96H73.3424C74.0784 63.96 74.7024 64.232 75.2144 64.776C75.7584 65.32 76.0304 65.96 76.0304 66.696V91.848C76.0304 92.104 76.1744 92.232 76.4624 92.232H88.1264C88.8624 92.232 89.5024 92.504 90.0464 93.048C90.5904 93.592 90.8624 94.232 90.8624 94.968V96.264C90.8624 97 90.5904 97.64 90.0464 98.184C89.5024 98.728 88.8624 99 88.1264 99H70.3664ZM90.1654 70.728C89.4294 70.728 88.7894 70.456 88.2454 69.912C87.7014 69.368 87.4294 68.728 87.4294 67.992V66.696C87.4294 65.96 87.7014 65.32 88.2454 64.776C88.7894 64.232 89.4294 63.96 90.1654 63.96H111.573C112.309 63.96 112.949 64.232 113.493 64.776C114.037 65.32 114.309 65.96 114.309 66.696V67.992C114.309 68.728 114.037 69.368 113.493 69.912C112.949 70.456 112.309 70.728 111.573 70.728H105.429C105.173 70.728 105.045 70.856 105.045 71.112V96.264C105.045 97 104.773 97.64 104.229 98.184C103.685 98.728 103.045 99 102.309 99H99.4294C98.6934 99 98.0534 98.728 97.5094 98.184C96.9654 97.64 96.6934 97 96.6934 96.264V71.112C96.6934 70.856 96.5654 70.728 96.3094 70.728H90.1654ZM121.973 99C121.237 99 120.597 98.728 120.053 98.184C119.541 97.64 119.285 97 119.285 96.264V66.696C119.285 65.96 119.541 65.32 120.053 64.776C120.597 64.232 121.237 63.96 121.973 63.96H138.965C139.701 63.96 140.325 64.232 140.837 64.776C141.381 65.32 141.653 65.96 141.653 66.696V67.8C141.653 68.536 141.381 69.176 140.837 69.72C140.325 70.264 139.701 70.536 138.965 70.536H127.829C127.573 70.536 127.445 70.664 127.445 70.92V77.256C127.445 77.544 127.573 77.688 127.829 77.688H138.005C138.741 77.688 139.365 77.96 139.877 78.504C140.421 79.048 140.693 79.688 140.693 80.424V81.144C140.693 81.88 140.421 82.52 139.877 83.064C139.365 83.608 138.741 83.88 138.005 83.88H127.829C127.573 83.88 127.445 84.008 127.445 84.264V92.04C127.445 92.296 127.573 92.424 127.829 92.424H138.965C139.701 92.424 140.325 92.696 140.837 93.24C141.381 93.784 141.653 94.424 141.653 95.16V96.264C141.653 97 141.381 97.64 140.837 98.184C140.325 98.728 139.701 99 138.965 99H121.973ZM6.384 146C5.648 146 5.008 145.728 4.464 145.184C3.92 144.64 3.648 144 3.648 143.264V113.696C3.648 112.96 3.92 112.32 4.464 111.776C5.008 111.232 5.648 110.96 6.384 110.96H9.12C9.856 110.96 10.48 111.232 10.992 111.776C11.536 112.32 11.808 112.96 11.808 113.696V125.936C11.808 125.968 11.824 125.984 11.856 125.984C11.92 125.984 11.952 125.968 11.952 125.936L20.112 113.264C21.072 111.728 22.464 110.96 24.288 110.96H28.32C28.896 110.96 29.312 111.216 29.568 111.728C29.824 112.24 29.792 112.736 29.472 113.216L19.728 127.424C19.568 127.648 19.568 127.872 19.728 128.096L30 143.744C30.32 144.224 30.336 144.72 30.048 145.232C29.792 145.744 29.376 146 28.8 146H24.768C22.944 146 21.568 145.232 20.64 143.696L11.952 129.584C11.952 129.552 11.92 129.536 11.856 129.536C11.824 129.536 11.808 129.552 11.808 129.584V143.264C11.808 144 11.536 144.64 10.992 145.184C10.48 145.728 9.856 146 9.12 146H6.384ZM42.258 146C41.522 146 40.882 145.728 40.338 145.184C39.794 144.64 39.522 144 39.522 143.264V113.696C39.522 112.96 39.794 112.32 40.338 111.776C40.882 111.232 41.522 110.96 42.258 110.96H44.61C46.434 110.96 47.762 111.76 48.594 113.36L58.674 132.416C58.674 132.448 58.69 132.464 58.722 132.464C58.754 132.464 58.77 132.448 58.77 132.416V113.696C58.77 112.96 59.042 112.32 59.586 111.776C60.13 111.232 60.77 110.96 61.506 110.96H63.858C64.594 110.96 65.234 111.232 65.778 111.776C66.322 112.32 66.594 112.96 66.594 113.696V143.264C66.594 144 66.322 144.64 65.778 145.184C65.234 145.728 64.594 146 63.858 146H61.506C59.682 146 58.354 145.2 57.522 143.6L47.442 124.544C47.442 124.512 47.426 124.496 47.394 124.496C47.362 124.496 47.346 124.512 47.346 124.544V143.264C47.346 144 47.074 144.64 46.53 145.184C45.986 145.728 45.346 146 44.61 146H42.258ZM100.575 128.48C100.575 120.96 97.8874 117.2 92.5114 117.2C87.1354 117.2 84.4474 120.96 84.4474 128.48C84.4474 136 87.1354 139.76 92.5114 139.76C97.8874 139.76 100.575 136 100.575 128.48ZM104.511 141.728C101.567 144.896 97.5674 146.48 92.5114 146.48C87.4554 146.48 83.4554 144.896 80.5114 141.728C77.5674 138.528 76.0954 134.112 76.0954 128.48C76.0954 122.848 77.5674 118.448 80.5114 115.28C83.4554 112.08 87.4554 110.48 92.5114 110.48C97.5674 110.48 101.567 112.08 104.511 115.28C107.455 118.448 108.927 122.848 108.927 128.48C108.927 134.112 107.455 138.528 104.511 141.728ZM126.458 117.392V127.856C126.458 128.08 126.602 128.224 126.89 128.288C127.978 128.416 128.842 128.48 129.482 128.48C131.786 128.48 133.562 127.952 134.81 126.896C136.09 125.808 136.73 124.304 136.73 122.384C136.73 118.576 134.314 116.672 129.482 116.672C128.682 116.672 127.802 116.752 126.842 116.912C126.586 116.976 126.458 117.136 126.458 117.392ZM121.178 146C120.442 146 119.802 145.728 119.258 145.184C118.714 144.64 118.442 144 118.442 143.264V113.936C118.442 113.168 118.698 112.48 119.21 111.872C119.722 111.264 120.362 110.928 121.13 110.864C123.85 110.608 126.474 110.48 129.002 110.48C139.242 110.48 144.362 114.288 144.362 121.904C144.362 126.032 143.162 129.168 140.762 131.312C138.394 133.424 134.906 134.48 130.298 134.48C129.082 134.48 127.946 134.432 126.89 134.336C126.602 134.336 126.458 134.464 126.458 134.72V143.264C126.458 144 126.186 144.64 125.642 145.184C125.098 145.728 124.458 146 123.722 146H121.178Z" fill="white"/>
<path fill-rule="evenodd" clip-rule="evenodd" d="M71.6646 0.0622194C68.7608 0.561357 66.7527 2.89585 66.7298 5.7993C66.7235 6.60741 66.795 7.10387 67.0102 7.74569C67.2991 8.60741 68.1657 9.94401 68.6619 10.2932C68.906 10.4648 68.8248 10.4996 67.5619 10.7631C63.9171 11.5236 60.2888 13.1926 57.3058 15.4807C56.2283 16.3072 54.0503 18.4526 53.1416 19.5827C50.2776 23.1443 48.1828 28.0798 47.7655 32.2494C47.6826 33.0789 47.6667 33.1108 47.3361 33.1108C46.7481 33.1108 45.1083 33.5863 44.3227 33.9848C41.0017 35.6689 39.2605 39.6648 40.2996 43.2175C41.0658 45.8372 43.2737 48.0107 45.9359 48.7658C46.7246 48.9895 47.9183 49 72.5503 49C97.1823 49 98.376 48.9895 99.1647 48.7658C101.772 48.0262 103.847 46.0493 104.702 43.4897C105.005 42.5829 105.028 42.3679 104.981 40.8379C104.925 39.0037 104.731 38.2634 103.962 36.9527C103.354 35.9165 102.031 34.651 100.971 34.0912C100.076 33.6191 98.419 33.1108 97.7743 33.1108C97.4484 33.1108 97.437 33.0822 97.2747 31.8665C96.6929 27.5056 94.7853 23.0974 91.959 19.5827C91.0503 18.4526 88.8724 16.3072 87.7948 15.4807C84.8153 13.1951 81.183 11.5235 77.5495 10.7653L76.1967 10.4831L76.5539 10.1811C77.0648 9.74913 77.793 8.60013 78.0974 7.74544C78.476 6.68271 78.4653 4.97944 78.0736 3.94875C77.373 2.10484 76.1664 0.905304 74.4341 0.330486C73.5026 0.0213804 72.4792 -0.0777841 71.6646 0.0622194ZM73.4933 4.91576C74.356 5.78245 73.7702 7.20316 72.5503 7.20316C72.1031 7.20316 71.9239 7.1285 71.6073 6.81046C70.7446 5.94377 71.3304 4.52306 72.5503 4.52306C72.9975 4.52306 73.1767 4.59772 73.4933 4.91576ZM75.1574 14.9168C77.6664 15.2524 79.5764 15.8563 81.8876 17.0449C85.739 19.0256 88.789 22.0892 90.7669 25.9639C91.8469 28.0796 92.5782 30.351 92.8725 32.5046L92.9555 33.1108H72.5503H52.1451L52.2281 32.5046C52.5224 30.351 53.2537 28.0796 54.3337 25.9639C57.0193 20.7027 61.8485 16.8332 67.5643 15.3619C69.9188 14.7559 72.7251 14.5914 75.1574 14.9168ZM98.2338 37.7685C100.623 38.4814 101.402 41.7004 99.6138 43.4718C99.3527 43.7304 98.9306 44.0463 98.6756 44.1738C98.2321 44.3955 97.0921 44.4055 72.5503 44.4055C48.0085 44.4055 46.8685 44.3955 46.425 44.1738C44.7664 43.3445 44.0555 41.3694 44.7944 39.6436C45.1464 38.8216 46.0071 38.0255 46.8136 37.776C47.7178 37.4961 97.297 37.489 98.2338 37.7685Z" fill="white"/>
</svg>
