<svg width="190" height="95" viewBox="0 0 190 95" fill="none" xmlns="http://www.w3.org/2000/svg">
<path d="M43.4641 42C42.7281 42 42.0881 41.728 41.5441 41.184C41.0001 40.64 40.7281 40 40.7281 39.264V9.696C40.7281 8.96 41.0001 8.32 41.5441 7.776C42.0881 7.232 42.7281 6.96 43.4641 6.96H46.2001C46.9361 6.96 47.5601 7.232 48.0721 7.776C48.6161 8.32 48.8881 8.96 48.8881 9.696V20.256C48.8881 20.544 49.0321 20.688 49.3201 20.688H59.2081C59.4961 20.688 59.6401 20.544 59.6401 20.256V9.696C59.6401 8.96 59.8961 8.32 60.4081 7.776C60.9521 7.232 61.5921 6.96 62.3281 6.96H65.0641C65.8001 6.96 66.4401 7.232 66.9841 7.776C67.5281 8.32 67.8001 8.96 67.8001 9.696V39.264C67.8001 40 67.5281 40.64 66.9841 41.184C66.4401 41.728 65.8001 42 65.0641 42H62.3281C61.5921 42 60.9521 41.728 60.4081 41.184C59.8961 40.64 59.6401 40 59.6401 39.264V27.264C59.6401 27.008 59.4961 26.88 59.2081 26.88H49.3201C49.0321 26.88 48.8881 27.008 48.8881 27.264V39.264C48.8881 40 48.6161 40.64 48.0721 41.184C47.5601 41.728 46.9361 42 46.2001 42H43.4641ZM87.9415 14.064L84.4375 27.84C84.4055 27.936 84.4215 28.032 84.4855 28.128C84.5815 28.192 84.6775 28.224 84.7735 28.224H91.2055C91.3015 28.224 91.3815 28.192 91.4455 28.128C91.5415 28.032 91.5735 27.936 91.5415 27.84L88.0375 14.064C88.0375 14.032 88.0215 14.016 87.9895 14.016C87.9575 14.016 87.9415 14.032 87.9415 14.064ZM75.1255 42C74.4535 42 73.9095 41.728 73.4935 41.184C73.1095 40.64 73.0295 40.048 73.2535 39.408L82.9495 9.552C83.2055 8.784 83.6535 8.16 84.2935 7.68C84.9655 7.2 85.7015 6.96 86.5015 6.96H89.6695C90.5015 6.96 91.2535 7.2 91.9255 7.68C92.5975 8.16 93.0455 8.784 93.2695 9.552L102.917 39.408C103.142 40.048 103.046 40.64 102.63 41.184C102.246 41.728 101.718 42 101.046 42H97.8295C97.0295 42 96.3095 41.76 95.6695 41.28C95.0295 40.768 94.6135 40.128 94.4215 39.36L93.2695 34.8C93.2375 34.544 93.0775 34.416 92.7895 34.416H83.1895C82.9335 34.416 82.7735 34.544 82.7095 34.8L81.5575 39.36C81.3655 40.128 80.9495 40.768 80.3095 41.28C79.6695 41.76 78.9495 42 78.1495 42H75.1255ZM110.447 42C109.711 42 109.071 41.728 108.527 41.184C107.983 40.64 107.711 40 107.711 39.264V9.696C107.711 8.96 107.983 8.32 108.527 7.776C109.071 7.232 109.711 6.96 110.447 6.96H113.423C114.159 6.96 114.783 7.232 115.295 7.776C115.839 8.32 116.111 8.96 116.111 9.696V34.848C116.111 35.104 116.255 35.232 116.543 35.232H128.207C128.943 35.232 129.583 35.504 130.127 36.048C130.671 36.592 130.943 37.232 130.943 37.968V39.264C130.943 40 130.671 40.64 130.127 41.184C129.583 41.728 128.943 42 128.207 42H110.447ZM131.746 13.728C131.01 13.728 130.37 13.456 129.826 12.912C129.282 12.368 129.01 11.728 129.01 10.992V9.696C129.01 8.96 129.282 8.32 129.826 7.776C130.37 7.232 131.01 6.96 131.746 6.96H153.154C153.89 6.96 154.53 7.232 155.074 7.776C155.618 8.32 155.89 8.96 155.89 9.696V10.992C155.89 11.728 155.618 12.368 155.074 12.912C154.53 13.456 153.89 13.728 153.154 13.728H147.01C146.754 13.728 146.626 13.856 146.626 14.112V39.264C146.626 40 146.354 40.64 145.81 41.184C145.266 41.728 144.626 42 143.89 42H141.01C140.274 42 139.634 41.728 139.09 41.184C138.546 40.64 138.274 40 138.274 39.264V14.112C138.274 13.856 138.146 13.728 137.89 13.728H131.746ZM165.053 42C164.317 42 163.677 41.728 163.133 41.184C162.621 40.64 162.365 40 162.365 39.264V9.696C162.365 8.96 162.621 8.32 163.133 7.776C163.677 7.232 164.317 6.96 165.053 6.96H182.045C182.781 6.96 183.405 7.232 183.917 7.776C184.461 8.32 184.733 8.96 184.733 9.696V10.8C184.733 11.536 184.461 12.176 183.917 12.72C183.405 13.264 182.781 13.536 182.045 13.536H170.909C170.653 13.536 170.525 13.664 170.525 13.92V20.256C170.525 20.544 170.653 20.688 170.909 20.688H181.085C181.821 20.688 182.445 20.96 182.957 21.504C183.501 22.048 183.773 22.688 183.773 23.424V24.144C183.773 24.88 183.501 25.52 182.957 26.064C182.445 26.608 181.821 26.88 181.085 26.88H170.909C170.653 26.88 170.525 27.008 170.525 27.264V35.04C170.525 35.296 170.653 35.424 170.909 35.424H182.045C182.781 35.424 183.405 35.696 183.917 36.24C184.461 36.784 184.733 37.424 184.733 38.16V39.264C184.733 40 184.461 40.64 183.917 41.184C183.405 41.728 182.781 42 182.045 42H165.053ZM47.1504 74.12V82.568C47.1504 82.856 47.2944 83.032 47.5824 83.096C48.2544 83.224 49.0704 83.288 50.0304 83.288C52.3024 83.288 53.9664 82.872 55.0224 82.04C56.0784 81.176 56.6064 79.864 56.6064 78.104C56.6064 75.16 54.2064 73.688 49.4064 73.688H47.5344C47.2784 73.688 47.1504 73.832 47.1504 74.12ZM47.1504 60.392V67.448C47.1504 67.704 47.2784 67.832 47.5344 67.832H48.7344C53.4064 67.832 55.7424 66.44 55.7424 63.656C55.7424 61 53.7904 59.672 49.8864 59.672C48.9584 59.672 48.1744 59.736 47.5344 59.864C47.2784 59.928 47.1504 60.104 47.1504 60.392ZM41.8224 89.096C41.0544 89.032 40.4144 88.696 39.9024 88.088C39.3904 87.48 39.1344 86.792 39.1344 86.024V56.936C39.1344 56.136 39.3904 55.448 39.9024 54.872C40.4464 54.264 41.1024 53.928 41.8704 53.864C44.3664 53.608 46.8144 53.48 49.2144 53.48C58.4944 53.48 63.1344 56.472 63.1344 62.456C63.1344 64.472 62.4784 66.184 61.1664 67.592C59.8864 69 58.1584 69.896 55.9824 70.28C55.9504 70.28 55.9344 70.312 55.9344 70.376C55.9344 70.408 55.9664 70.424 56.0304 70.424C58.5584 70.776 60.5584 71.736 62.0304 73.304C63.5344 74.872 64.2864 76.744 64.2864 78.92C64.2864 82.472 63.1024 85.128 60.7344 86.888C58.3984 88.616 54.7184 89.48 49.6944 89.48C47.1664 89.48 44.5424 89.352 41.8224 89.096ZM94.6896 76.28C94.6896 85.08 90.2096 89.48 81.2496 89.48C72.2896 89.48 67.8096 85.08 67.8096 76.28V56.696C67.8096 55.96 68.0816 55.32 68.6256 54.776C69.1696 54.232 69.8096 53.96 70.5456 53.96H73.3296C74.0656 53.96 74.7056 54.232 75.2496 54.776C75.7936 55.32 76.0656 55.96 76.0656 56.696V76.856C76.0656 79.032 76.4816 80.584 77.3136 81.512C78.1456 82.44 79.4896 82.904 81.3456 82.904C83.2016 82.904 84.5456 82.44 85.3776 81.512C86.2096 80.584 86.6256 79.032 86.6256 76.856V56.696C86.6256 55.96 86.8976 55.32 87.4416 54.776C87.9856 54.232 88.6256 53.96 89.3616 53.96H91.9536C92.6896 53.96 93.3296 54.232 93.8736 54.776C94.4176 55.32 94.6896 55.96 94.6896 56.696V76.28ZM108.366 60.584V82.376C108.366 82.664 108.51 82.84 108.798 82.904C109.438 83.032 110.206 83.096 111.102 83.096C114.334 83.096 116.718 82.152 118.254 80.264C119.822 78.376 120.606 75.288 120.606 71C120.606 67.16 119.822 64.344 118.254 62.552C116.686 60.76 114.302 59.864 111.102 59.864C110.206 59.864 109.438 59.928 108.798 60.056C108.51 60.12 108.366 60.296 108.366 60.584ZM103.086 89.096C102.318 89.032 101.678 88.712 101.166 88.136C100.654 87.528 100.398 86.824 100.398 86.024V56.936C100.398 56.136 100.654 55.448 101.166 54.872C101.678 54.264 102.318 53.928 103.086 53.864C105.582 53.608 108.046 53.48 110.478 53.48C116.206 53.48 120.622 55 123.726 58.04C126.83 61.08 128.382 65.4 128.382 71C128.382 77.08 126.83 81.688 123.726 84.824C120.622 87.928 116.206 89.48 110.478 89.48C108.046 89.48 105.582 89.352 103.086 89.096ZM140.381 60.584V82.376C140.381 82.664 140.525 82.84 140.813 82.904C141.453 83.032 142.221 83.096 143.117 83.096C146.349 83.096 148.733 82.152 150.269 80.264C151.837 78.376 152.621 75.288 152.621 71C152.621 67.16 151.837 64.344 150.269 62.552C148.701 60.76 146.317 59.864 143.117 59.864C142.221 59.864 141.453 59.928 140.813 60.056C140.525 60.12 140.381 60.296 140.381 60.584ZM135.101 89.096C134.333 89.032 133.693 88.712 133.181 88.136C132.669 87.528 132.413 86.824 132.413 86.024V56.936C132.413 56.136 132.669 55.448 133.181 54.872C133.693 54.264 134.333 53.928 135.101 53.864C137.597 53.608 140.061 53.48 142.493 53.48C148.221 53.48 152.637 55 155.741 58.04C158.845 61.08 160.397 65.4 160.397 71C160.397 77.08 158.845 81.688 155.741 84.824C152.637 87.928 148.221 89.48 142.493 89.48C140.061 89.48 137.597 89.352 135.101 89.096ZM169.957 75.176L159.973 56.36C159.685 55.816 159.701 55.288 160.021 54.776C160.341 54.232 160.821 53.96 161.461 53.96H165.349C166.181 53.96 166.933 54.184 167.605 54.632C168.277 55.08 168.773 55.688 169.093 56.456L174.373 68.936C174.373 68.968 174.389 68.984 174.421 68.984C174.453 68.984 174.469 68.968 174.469 68.936L179.749 56.456C180.069 55.688 180.565 55.08 181.237 54.632C181.909 54.184 182.661 53.96 183.493 53.96H187.189C187.797 53.96 188.261 54.232 188.581 54.776C188.933 55.288 188.965 55.816 188.677 56.36L178.693 75.176C178.565 75.4 178.501 75.672 178.501 75.992V86.264C178.501 87 178.229 87.64 177.685 88.184C177.173 88.728 176.549 89 175.813 89H172.837C172.101 89 171.461 88.728 170.917 88.184C170.373 87.64 170.101 87 170.101 86.264V75.992C170.101 75.608 170.053 75.336 169.957 75.176Z" fill="white"/>
<line x1="11.5" y1="75" x2="11.5" y2="20" stroke="white" stroke-width="5"/>
<circle cx="11.5" cy="13.5" r="9" stroke="white" stroke-width="5"/>
<circle cx="11.5" cy="83.5" r="9" stroke="white" stroke-width="5"/>
</svg>
