<svg width="300" height="37" viewBox="0 0 300 37" fill="none" xmlns="http://www.w3.org/2000/svg">
<path d="M8.81581 7.584V29.376C8.81581 29.664 8.95981 29.84 9.24781 29.904C9.88781 30.032 10.6558 30.096 11.5518 30.096C14.7838 30.096 17.1678 29.152 18.7038 27.264C20.2718 25.376 21.0558 22.288 21.0558 18C21.0558 14.16 20.2718 11.344 18.7038 9.552C17.1358 7.76 14.7518 6.864 11.5518 6.864C10.6558 6.864 9.88781 6.928 9.24781 7.056C8.95981 7.12 8.81581 7.296 8.81581 7.584ZM3.53581 36.096C2.76781 36.032 2.12781 35.712 1.61581 35.136C1.10381 34.528 0.847814 33.824 0.847814 33.024V3.936C0.847814 3.136 1.10381 2.448 1.61581 1.872C2.12781 1.264 2.76781 0.927999 3.53581 0.863997C6.03181 0.607999 8.49581 0.48 10.9278 0.48C16.6558 0.48 21.0718 2 24.1758 5.04C27.2798 8.08 28.8318 12.4 28.8318 18C28.8318 24.08 27.2798 28.688 24.1758 31.824C21.0718 34.928 16.6558 36.48 10.9278 36.48C8.49581 36.48 6.03181 36.352 3.53581 36.096ZM37.0504 36C36.3144 36 35.6744 35.728 35.1304 35.184C34.6184 34.64 34.3624 34 34.3624 33.264V3.696C34.3624 2.96 34.6184 2.32 35.1304 1.776C35.6744 1.232 36.3144 0.959999 37.0504 0.959999H54.0424C54.7784 0.959999 55.4024 1.232 55.9144 1.776C56.4584 2.32 56.7304 2.96 56.7304 3.696V4.8C56.7304 5.536 56.4584 6.176 55.9144 6.72C55.4024 7.264 54.7784 7.536 54.0424 7.536H42.9064C42.6504 7.536 42.5224 7.664 42.5224 7.92V14.256C42.5224 14.544 42.6504 14.688 42.9064 14.688H53.0824C53.8184 14.688 54.4424 14.96 54.9544 15.504C55.4984 16.048 55.7704 16.688 55.7704 17.424V18.144C55.7704 18.88 55.4984 19.52 54.9544 20.064C54.4424 20.608 53.8184 20.88 53.0824 20.88H42.9064C42.6504 20.88 42.5224 21.008 42.5224 21.264V29.04C42.5224 29.296 42.6504 29.424 42.9064 29.424H54.0424C54.7784 29.424 55.4024 29.696 55.9144 30.24C56.4584 30.784 56.7304 31.424 56.7304 32.16V33.264C56.7304 34 56.4584 34.64 55.9144 35.184C55.4024 35.728 54.7784 36 54.0424 36H37.0504ZM66.6756 36C65.9396 36 65.2996 35.728 64.7556 35.184C64.2116 34.64 63.9396 34 63.9396 33.264V3.696C63.9396 2.96 64.2116 2.32 64.7556 1.776C65.2996 1.232 65.9396 0.959999 66.6756 0.959999H69.4116C70.2436 0.959999 70.9956 1.184 71.6676 1.632C72.3396 2.08 72.8356 2.688 73.1556 3.456L80.5956 21.552C80.5956 21.584 80.6116 21.6 80.6436 21.6C80.6756 21.6 80.6916 21.584 80.6916 21.552L88.1316 3.456C88.4516 2.688 88.9476 2.08 89.6196 1.632C90.2916 1.184 91.0436 0.959999 91.8756 0.959999H94.8036C95.5396 0.959999 96.1796 1.232 96.7236 1.776C97.2676 2.32 97.5396 2.96 97.5396 3.696V33.264C97.5396 34 97.2676 34.64 96.7236 35.184C96.1796 35.728 95.5396 36 94.8036 36H92.4996C91.7636 36 91.1236 35.728 90.5796 35.184C90.0676 34.64 89.8116 34 89.8116 33.264V14.592C89.8116 14.56 89.7956 14.544 89.7636 14.544C89.6996 14.544 89.6676 14.56 89.6676 14.592L85.0596 25.488C84.7396 26.256 84.2276 26.864 83.5236 27.312C82.8516 27.76 82.0996 27.984 81.2676 27.984H80.0196C79.1876 27.984 78.4196 27.76 77.7156 27.312C77.0436 26.864 76.5476 26.256 76.2276 25.488L71.6196 14.592C71.6196 14.56 71.5876 14.544 71.5236 14.544C71.4916 14.544 71.4756 14.56 71.4756 14.592V33.264C71.4756 34 71.2036 34.64 70.6596 35.184C70.1476 35.728 69.5236 36 68.7876 36H66.6756ZM127.509 18.48C127.509 10.96 124.821 7.2 119.445 7.2C114.069 7.2 111.381 10.96 111.381 18.48C111.381 26 114.069 29.76 119.445 29.76C124.821 29.76 127.509 26 127.509 18.48ZM131.445 31.728C128.501 34.896 124.501 36.48 119.445 36.48C114.389 36.48 110.389 34.896 107.445 31.728C104.501 28.528 103.029 24.112 103.029 18.48C103.029 12.848 104.501 8.448 107.445 5.28C110.389 2.08 114.389 0.48 119.445 0.48C124.501 0.48 128.501 2.08 131.445 5.28C134.389 8.448 135.861 12.848 135.861 18.48C135.861 24.112 134.389 28.528 131.445 31.728ZM163.206 33.408L153.51 3.552C153.286 2.912 153.366 2.32 153.75 1.776C154.166 1.232 154.71 0.959999 155.382 0.959999H158.598C159.398 0.959999 160.118 1.216 160.758 1.728C161.398 2.208 161.814 2.832 162.006 3.6L168.294 28.128C168.294 28.16 168.31 28.176 168.342 28.176C168.374 28.176 168.39 28.16 168.39 28.128L174.87 3.6C175.062 2.832 175.478 2.208 176.118 1.728C176.758 1.216 177.478 0.959999 178.278 0.959999H181.302C181.974 0.959999 182.502 1.232 182.886 1.776C183.302 2.32 183.398 2.912 183.174 3.552L173.478 33.408C173.254 34.176 172.806 34.8 172.134 35.28C171.494 35.76 170.758 36 169.926 36H166.758C165.958 36 165.222 35.76 164.55 35.28C163.91 34.8 163.462 34.176 163.206 33.408ZM191.375 36C190.639 36 189.999 35.728 189.455 35.184C188.943 34.64 188.687 34 188.687 33.264V3.696C188.687 2.96 188.943 2.32 189.455 1.776C189.999 1.232 190.639 0.959999 191.375 0.959999H194.927C195.663 0.959999 196.287 1.232 196.799 1.776C197.343 2.32 197.615 2.96 197.615 3.696V33.264C197.615 34 197.343 34.64 196.799 35.184C196.287 35.728 195.663 36 194.927 36H191.375ZM213.981 7.584V29.376C213.981 29.664 214.125 29.84 214.413 29.904C215.053 30.032 215.821 30.096 216.717 30.096C219.949 30.096 222.333 29.152 223.869 27.264C225.437 25.376 226.221 22.288 226.221 18C226.221 14.16 225.437 11.344 223.869 9.552C222.301 7.76 219.917 6.864 216.717 6.864C215.821 6.864 215.053 6.928 214.413 7.056C214.125 7.12 213.981 7.296 213.981 7.584ZM208.701 36.096C207.933 36.032 207.293 35.712 206.781 35.136C206.269 34.528 206.013 33.824 206.013 33.024V3.936C206.013 3.136 206.269 2.448 206.781 1.872C207.293 1.264 207.933 0.927999 208.701 0.863997C211.197 0.607999 213.661 0.48 216.093 0.48C221.821 0.48 226.237 2 229.341 5.04C232.445 8.08 233.997 12.4 233.997 18C233.997 24.08 232.445 28.688 229.341 31.824C226.237 34.928 221.821 36.48 216.093 36.48C213.661 36.48 211.197 36.352 208.701 36.096ZM242.215 36C241.479 36 240.839 35.728 240.295 35.184C239.783 34.64 239.527 34 239.527 33.264V3.696C239.527 2.96 239.783 2.32 240.295 1.776C240.839 1.232 241.479 0.959999 242.215 0.959999H259.207C259.943 0.959999 260.567 1.232 261.079 1.776C261.623 2.32 261.895 2.96 261.895 3.696V4.8C261.895 5.536 261.623 6.176 261.079 6.72C260.567 7.264 259.943 7.536 259.207 7.536H248.071C247.815 7.536 247.687 7.664 247.687 7.92V14.256C247.687 14.544 247.815 14.688 248.071 14.688H258.247C258.983 14.688 259.607 14.96 260.119 15.504C260.663 16.048 260.935 16.688 260.935 17.424V18.144C260.935 18.88 260.663 19.52 260.119 20.064C259.607 20.608 258.983 20.88 258.247 20.88H248.071C247.815 20.88 247.687 21.008 247.687 21.264V29.04C247.687 29.296 247.815 29.424 248.071 29.424H259.207C259.943 29.424 260.567 29.696 261.079 30.24C261.623 30.784 261.895 31.424 261.895 32.16V33.264C261.895 34 261.623 34.64 261.079 35.184C260.567 35.728 259.943 36 259.207 36H242.215ZM290.956 18.48C290.956 10.96 288.268 7.2 282.892 7.2C277.516 7.2 274.828 10.96 274.828 18.48C274.828 26 277.516 29.76 282.892 29.76C288.268 29.76 290.956 26 290.956 18.48ZM294.892 31.728C291.948 34.896 287.948 36.48 282.892 36.48C277.836 36.48 273.836 34.896 270.892 31.728C267.948 28.528 266.476 24.112 266.476 18.48C266.476 12.848 267.948 8.448 270.892 5.28C273.836 2.08 277.836 0.48 282.892 0.48C287.948 0.48 291.948 2.08 294.892 5.28C297.836 8.448 299.308 12.848 299.308 18.48C299.308 24.112 297.836 28.528 294.892 31.728Z" fill="white"/>
</svg>
