<svg width="17" height="21" viewBox="0 0 17 21" fill="none" xmlns="http://www.w3.org/2000/svg">
<path d="M5.66188 10.3625C5.60555 10.9822 5.78582 12.2553 6.95755 12.3905" stroke="#2B2B2B" stroke-width="0.788668"/>
<rect x="6.50684" y="11.0385" width="8.99082" height="2.366" rx="0.591501" fill="#2B2B2B"/>
<rect x="5.31055" width="10.6824" height="2.67175" rx="0.702792" transform="rotate(79.7938 5.31055 0)" fill="#2B2B2B"/>
<rect x="6.50695" y="14.8692" width="9.46402" height="3.71801" rx="0.338001" stroke="#2B2B2B" stroke-width="0.676001"/>
<circle cx="9.09795" cy="18.6999" r="1.57734" fill="white" stroke="#2B2B2B" stroke-width="0.676001"/>
<circle cx="13.492" cy="18.6999" r="1.57734" fill="white" stroke="#2B2B2B" stroke-width="0.676001"/>
<line x1="6.16895" y1="7.43315" x2="12.8163" y2="7.43315" stroke="#2B2B2B" stroke-width="0.901335"/>
<line x1="9.09825" y1="13.0665" x2="9.09825" y2="14.5312" stroke="#2B2B2B" stroke-width="0.676001"/>
<line x1="13.6046" y1="13.0665" x2="13.6046" y2="14.5312" stroke="#2B2B2B" stroke-width="0.676001"/>
<path d="M6.58534 17.3033C5.31614 17.2369 3.0588 17.4763 4.18305 18.9654C5.58837 20.8267 6.55049 15.7713 4.03874 16.9925C2.02934 17.9696 1.3893 18.8384 1.32045 19.1506" stroke="#2B2B2B" stroke-width="0.169"/>
<path d="M0.822321 18.5273C1.04558 18.3106 1.40222 18.3159 1.61891 18.5392L1.69738 18.62C1.91406 18.8433 1.90873 19.1999 1.68548 19.4166L1.11954 19.9659L0.256382 19.0766L0.822321 18.5273Z" fill="#2B2B2B"/>
<line x1="1.10831" y1="19.468" x2="0.431237" y2="20.0735" stroke="#2B2B2B" stroke-width="0.225334"/>
<line x1="0.752353" y1="19.1117" x2="0.0752796" y2="19.7172" stroke="#2B2B2B" stroke-width="0.225334"/>
</svg>
