<svg width="17" height="18" viewBox="0 0 17 18" fill="none" xmlns="http://www.w3.org/2000/svg">
<path d="M7 8H14.3329C14.7013 8 15 8.29866 15 8.66708V14" stroke="#2B2B2B" stroke-width="1.00063"/>
<line x1="15.3423" y1="9.7277" x2="10.3391" y2="9.7277" stroke="#2B2B2B" stroke-width="1.00063"/>
<path d="M2 0.499686C1.72368 0.499686 1.49969 0.723684 1.49969 1C1.49969 1.27632 1.72368 1.50031 2 1.50031V0.499686ZM2 1.50031H5.83574V0.499686H2V1.50031ZM6.00251 1.66708V8.11557H7.00313V1.66708H6.00251ZM5.83574 1.50031C5.92784 1.50031 6.00251 1.57498 6.00251 1.66708H7.00313C7.00313 1.02235 6.48047 0.499686 5.83574 0.499686V1.50031Z" fill="#2B2B2B"/>
<rect x="12" y="8" width="3" height="2" rx="0.555904" fill="#2B2B2B"/>
<circle cx="6.5" cy="11.5" r="5.88851" fill="white" stroke="#2B2B2B" stroke-width="1.22299"/>
<circle cx="15" cy="16" r="1.61087" stroke="#2B2B2B" stroke-width="0.778265"/>
<circle cx="6.5" cy="11.5" r="4.11087" fill="white" stroke="#2B2B2B" stroke-width="0.778265"/>
</svg>
