<svg width="19" height="24" viewBox="0 0 19 24" fill="none" xmlns="http://www.w3.org/2000/svg">
<path fill-rule="evenodd" clip-rule="evenodd" d="M7.326 13.3305L5.85131 14.5814C6.08973 14.887 6.23186 15.2712 6.23186 15.6886C6.23186 16.6827 5.42474 17.49 4.43038 17.49C3.43621 17.49 2.62891 16.6827 2.62891 15.6886C2.62891 14.6942 3.43621 13.8871 4.43038 13.8871C4.66604 13.8871 4.89102 13.9324 5.0974 14.0147L6.51575 12.7777C6.52919 12.7547 6.54503 12.7327 6.56325 12.7129C6.59087 12.683 6.62327 12.6578 6.65898 12.6385C6.67077 12.632 6.68273 12.6263 6.69507 12.6214L11.5731 8.3676L10.5874 6.12777H7.65187C7.61983 6.12666 7.61155 6.12721 7.57988 6.12224C7.5322 6.11488 7.4858 6.10015 7.44254 6.07879C7.38859 6.0521 7.33981 6.01491 7.29967 5.96999C7.26764 5.93409 7.24131 5.89322 7.22143 5.84921C7.20173 5.80521 7.18884 5.75827 7.18332 5.7104C7.16656 5.56532 7.21977 5.41767 7.3249 5.31641C7.38565 5.25787 7.46205 5.21626 7.54435 5.19711C7.56791 5.19159 7.59166 5.18791 7.61578 5.18606C7.62775 5.18514 7.63972 5.18514 7.65187 5.18459H10.1725L9.06543 2.66915C8.9384 2.88032 8.80952 3.09057 8.68415 3.30266C8.66132 3.33856 8.6326 3.36857 8.59504 3.38938C8.58105 3.39692 8.56669 3.40263 8.55159 3.40779C7.86248 3.59852 7.16159 3.74341 6.46659 3.91095C6.43529 3.91739 6.40418 3.9196 6.37252 3.91445C6.29372 3.90119 6.22541 3.84743 6.1943 3.77397C6.1838 3.7493 6.17865 3.72408 6.17607 3.69757C6.16613 3.40337 6.17552 3.10898 6.17552 2.8146C6.17644 2.78827 6.17976 2.76286 6.18841 2.73783C6.21069 2.67339 6.26095 2.62055 6.32446 2.59551C6.34416 2.58759 6.36423 2.58336 6.38503 2.58041L8.71747 2.31935L8.82867 2.13101L8.71103 1.86369H4.92949C4.88439 1.86111 4.87261 1.8624 4.82824 1.85264C4.74484 1.83423 4.66714 1.79318 4.60528 1.73445C4.5055 1.64 4.45119 1.50376 4.45874 1.36661C4.4615 1.31561 4.47254 1.26498 4.49151 1.21748C4.51047 1.16998 4.53698 1.12579 4.57012 1.08676C4.60326 1.04792 4.64266 1.01441 4.68648 0.988084C4.74484 0.95292 4.81075 0.930643 4.8785 0.923279C4.89544 0.921437 4.91255 0.921437 4.92949 0.920517H9.01867C9.03524 0.921437 9.05162 0.922174 9.06819 0.923094C9.11164 0.93009 9.12306 0.93009 9.16503 0.943714C9.25948 0.974644 9.34306 1.03558 9.40124 1.11622C9.42701 1.15212 9.43051 1.16298 9.45039 1.2022L9.8418 2.0918C10.0572 2.11095 10.2721 2.13562 10.486 2.16728C10.7723 2.20999 11.0569 2.26523 11.3371 2.33832C11.7556 2.44767 12.1678 2.59698 12.5421 2.8157C12.7717 2.94973 12.9865 3.11101 13.1704 3.3034C13.2949 3.43375 13.4046 3.5779 13.495 3.73365C13.5548 3.83694 13.6062 3.94519 13.6486 4.05694C13.6773 4.1328 13.702 4.20994 13.7224 4.28836C13.7975 4.5752 13.8174 4.87124 13.7993 5.166L15.4136 5.16563C15.4224 5.16581 15.4314 5.16618 15.4405 5.16655C15.4642 5.16913 15.4703 5.16913 15.4937 5.17428C15.5198 5.18017 15.5454 5.18901 15.5699 5.20042C15.6023 5.21552 15.6325 5.23559 15.6594 5.25952C15.7332 5.3258 15.7779 5.42117 15.7816 5.5204C15.7829 5.5563 15.7788 5.5922 15.7698 5.627C15.7638 5.6502 15.761 5.65553 15.7525 5.67781L13.6333 10.6621C13.6289 10.6719 13.6259 10.6783 13.623 10.6844L14.0317 11.6132C14.0411 11.6314 14.0494 11.6504 14.0562 11.6699C14.0683 11.7036 14.0764 11.7389 14.0807 11.7745C14.0825 11.7905 14.0829 11.7986 14.0832 11.8093C14.0834 11.8153 14.0836 11.8216 14.0836 11.8277V11.8282V13.9495C14.8495 14.157 15.4136 14.8573 15.4136 15.6886C15.4136 16.6827 14.6063 17.49 13.6121 17.49C12.6178 17.49 11.8106 16.6827 11.8106 15.6886C11.8106 14.8573 12.3745 14.157 13.1404 13.9495V13.3305H7.326ZM4.43315 14.7559C4.94625 14.7559 5.36306 15.1727 5.36306 15.6858C5.36306 16.1989 4.94625 16.6157 4.43315 16.6157C3.92004 16.6157 3.50323 16.1989 3.50323 15.6858C3.50323 15.1727 3.92004 14.7559 4.43315 14.7559ZM13.6114 14.7559C14.1247 14.7559 14.5413 15.1727 14.5413 15.6858C14.5413 16.1989 14.1247 16.6157 13.6114 16.6157C13.0983 16.6157 12.6816 16.1989 12.6816 15.6858C12.6816 15.1727 13.0983 14.7559 13.6114 14.7559ZM8.19424 12.5941H13.1404V11.9297L12.0091 9.35845L8.19424 12.5941ZM11.1948 5.16655L13.6149 5.166C13.6336 4.8775 13.6141 4.58735 13.537 4.3077C13.5173 4.23608 13.4937 4.16557 13.4665 4.09653C13.4263 3.9949 13.3779 3.8964 13.3218 3.80251C13.2367 3.6602 13.1338 3.52893 13.0176 3.41036C12.8425 3.2316 12.6386 3.08266 12.4215 2.95857C12.0573 2.75053 11.6573 2.60969 11.2519 2.5064C10.9906 2.43994 10.7255 2.38913 10.4587 2.34955C10.282 2.32322 10.1045 2.30186 9.92668 2.28456L11.1948 5.16655ZM6.64702 3.02558V3.38238L8.32901 2.97698L8.41719 2.82748C7.82713 2.89358 7.23708 2.95949 6.64702 3.02558Z" fill="#2B2B2B"/>
</svg>
