<svg width="18" height="19" viewBox="0 0 18 19" fill="none" xmlns="http://www.w3.org/2000/svg">
<path d="M6.77246 11.5013L7.37625 13.2623" stroke="#2B2B2B" stroke-width="0.905691"/>
<circle cx="15.377" cy="16.6335" r="1.76107" stroke="#2B2B2B" stroke-width="0.704426"/>
<circle cx="2.99902" cy="16.6335" r="1.76107" stroke="#2B2B2B" stroke-width="0.704426"/>
<path d="M16.1316 14.9731L15.1224 7.07346M15.1224 7.07346L14.7398 4.07861C14.7013 3.77718 14.4448 3.55133 14.1409 3.55133H12.5601C12.4308 3.55133 12.3351 3.67143 12.3639 3.79744L13.0948 6.99525C13.1053 7.04101 13.146 7.07346 13.1929 7.07346H15.1224Z" stroke="#2B2B2B" stroke-width="0.905691"/>
<line x1="10.2446" y1="5.71493" x2="13.968" y2="5.71493" stroke="#2B2B2B" stroke-width="0.704426"/>
<line x1="3.70361" y1="7.92882" x2="9.43966" y2="7.92882" stroke="#2B2B2B" stroke-width="0.704426"/>
<line x1="4.71379" y1="17.0864" x2="13.6701" y2="17.1838" stroke="#2B2B2B" stroke-width="0.704426"/>
<rect x="4.70996" y="9.89117" width="7.64806" height="2.01265" rx="0.503162" fill="#2B2B2B"/>
<rect x="3.54639" width="9.4184" height="2.18822" rx="0.503162" transform="rotate(80.4313 3.54639 0)" fill="#2B2B2B"/>
<path d="M2.79736 14.8724V13.363C2.79736 13.3074 2.84242 13.2623 2.898 13.2623H7.18455C7.30149 13.2623 7.40792 13.3299 7.45771 13.4357L8.50215 15.6551C8.55194 15.7609 8.65836 15.8285 8.77531 15.8285H13.6657" stroke="#2B2B2B" stroke-width="0.905691"/>
<path d="M4.00523 9.0358C3.98846 9.70668 4.21656 11.0283 5.26314 10.9478" stroke="#2B2B2B" stroke-width="0.704426"/>
</svg>
